<svg width="24" height="24" viewBox="0 0 24 24" fill="none" xmlns="http://www.w3.org/2000/svg">
<path d="M2.59506 13.7992L2.64006 20.7442C2.63702 21.4043 2.89585 22.0386 3.3598 22.5082C3.82375 22.9778 4.45497 23.2442 5.11506 23.2492H18.8851C19.5452 23.2442 20.1764 22.9778 20.6403 22.5082C21.1043 22.0386 21.3631 21.4043 21.3601 20.7442V13.7992H21.4051C21.7697 13.8025 22.1267 13.6954 22.4293 13.4919C22.7318 13.2884 22.9657 12.9981 23.1001 12.6592C23.2474 12.3193 23.2889 11.9429 23.2194 11.5791C23.1498 11.2152 22.9723 10.8807 22.7101 10.6192L13.7551 1.48415C13.284 1.02948 12.6548 0.775391 12.0001 0.775391C11.3453 0.775391 10.7162 1.02948 10.2451 1.48415L1.29006 10.6192C1.02777 10.8807 0.850303 11.2152 0.780745 11.5791C0.711186 11.9429 0.752762 12.3193 0.900061 12.6592C1.03443 12.9981 1.26828 13.2884 1.57083 13.4919C1.87338 13.6954 2.23046 13.8025 2.59506 13.7992ZM7.21146 14.3071C7.39521 14.2313 7.60142 14.2313 7.78522 14.3068C7.96903 14.3824 8.11555 14.5275 8.19291 14.7106C8.50598 15.4623 9.03459 16.1045 9.71211 16.5563C10.3896 17.0081 11.1857 17.2492 12.0001 17.2492C12.8144 17.2492 13.6105 17.0081 14.288 16.5563C14.9655 16.1045 15.4941 15.4623 15.8072 14.7106C15.8838 14.5268 16.0302 14.381 16.2142 14.3052C16.3983 14.2294 16.6049 14.2298 16.7887 14.3063C16.9724 14.3828 17.1182 14.5292 17.194 14.7133C17.2699 14.8974 17.2695 15.104 17.1929 15.2878C16.7656 16.3128 16.0445 17.1885 15.1204 17.8045C14.1963 18.4205 13.1106 18.7492 12.0001 18.7492C10.8895 18.7492 9.80377 18.4205 8.87968 17.8045C7.9556 17.1885 7.23449 16.3128 6.80721 15.2878C6.73104 15.1041 6.73082 14.8977 6.8066 14.7138C6.88238 14.53 7.02798 14.3837 7.21146 14.3071Z" fill="#05150E"/>
</svg>
