<svg width="24" height="24" viewBox="0 0 24 24" fill="none" xmlns="http://www.w3.org/2000/svg">
<path d="M11.9999 1.77539C12.346 1.77539 12.6802 1.89311 12.9491 2.10645L13.0604 2.2041L21.996 11.3193L22.0038 11.3271C22.1239 11.4469 22.2053 11.6 22.2372 11.7666C22.269 11.9332 22.25 12.106 22.1825 12.2617L22.1708 12.291C22.1108 12.4421 22.0059 12.5714 21.871 12.6621C21.736 12.7528 21.5765 12.8003 21.4139 12.7988H20.3602V20.749C20.362 21.1443 20.2064 21.5245 19.9286 21.8057C19.6508 22.0867 19.273 22.246 18.8778 22.249H5.12292C4.72762 22.2461 4.34905 22.0868 4.07117 21.8057C3.79334 21.5245 3.63876 21.1443 3.6405 20.749V20.7373L3.5946 13.793L3.58875 12.79L2.58582 12.7988C2.42317 12.8003 2.26375 12.7529 2.12878 12.6621C1.99399 12.5714 1.88991 12.442 1.82996 12.291L1.8241 12.2764L1.81726 12.2617L1.77625 12.1416C1.744 12.0197 1.7387 11.8915 1.76257 11.7666C1.79444 11.6001 1.87594 11.4469 1.99597 11.3271L2.00378 11.3193L10.9393 2.2041C11.224 1.92938 11.6043 1.77544 11.9999 1.77539Z" stroke="black" stroke-width="2"/>
</svg>
