<svg width="24" height="24" viewBox="0 0 24 24" fill="none" xmlns="http://www.w3.org/2000/svg">
<path d="M12.0349 0.5L12.1696 0.508789C12.3031 0.522812 12.4351 0.55094 12.5632 0.591797V0.59082C15.1786 1.4505 17.8531 2.46698 20.1325 3.34961C20.4951 3.49065 21.0749 3.73501 21.2702 4.34082V4.3418L21.2878 4.39941L21.2995 4.4541L21.3015 4.46484L21.3044 4.47559C21.604 5.66123 21.8134 7.29845 21.8972 9.15137L21.9255 9.95801V9.96094H21.9245L21.9255 9.96875C21.9691 12.967 21.6812 14.3875 21.5202 14.9395L21.5163 14.9512L21.5095 14.9785L21.4977 15.0176C21.2318 15.8707 20.7377 16.7678 20.0114 17.6807C19.3319 18.5351 18.4505 19.4113 17.3815 20.2891L16.9118 20.665C15.6306 21.6699 14.2582 22.5534 12.8132 23.3037L12.7956 23.3125L12.779 23.3203L12.7741 23.3223C12.5331 23.4391 12.2685 23.4991 12.0007 23.499C11.7344 23.4983 11.4716 23.4379 11.2321 23.3213L11.1286 23.2715C10.9688 23.1901 10.5355 22.9658 9.93915 22.6113C9.17663 22.1581 8.15017 21.4965 7.08563 20.6611H7.08466C5.80347 19.6608 4.76522 18.6564 3.98895 17.6807C3.26589 16.7707 2.77348 15.8791 2.50653 15.0303L2.48212 14.9434L2.48016 14.9375L2.41473 14.6885C2.25232 14.0057 2.03769 12.5897 2.07587 9.96875V9.94629H2.07489C2.12931 7.76736 2.35395 5.82779 2.69598 4.47949L2.71161 4.41895V4.39844L2.72626 4.34863C2.87231 3.88985 3.23792 3.63674 3.56415 3.47949L3.86786 3.35059C6.14723 2.46768 8.82207 1.45186 11.4401 0.589844C11.5673 0.549697 11.6983 0.522454 11.8307 0.508789L11.9636 0.5H12.0349ZM11.9597 7.55664C11.3008 7.56583 10.6641 7.79625 10.152 8.21094C9.64001 8.62564 9.28237 9.20024 9.13641 9.84277C8.99045 10.4854 9.06461 11.1586 9.34735 11.7539C9.58408 12.2522 9.95668 12.6696 10.4177 12.9648V14.8291C10.4177 15.2568 10.587 15.6672 10.8893 15.9697C11.1919 16.2723 11.6031 16.4424 12.0309 16.4424C12.4587 16.4423 12.8691 16.2722 13.1716 15.9697C13.4739 15.6672 13.6442 15.2568 13.6442 14.8291V12.9258C14.1005 12.6175 14.4641 12.1873 14.6882 11.6797C14.9542 11.0769 15.01 10.4019 14.8464 9.76367C14.6826 9.12534 14.3083 8.56049 13.7849 8.16016C13.2614 7.75987 12.6186 7.54749 11.9597 7.55664Z" fill="#05150E" stroke="#00291B"/>
</svg>
