<svg width="24" height="24" viewBox="0 0 24 24" fill="none" xmlns="http://www.w3.org/2000/svg">
<g clip-path="url(#clip0_1437_1214)">
<path d="M12.0557 15.3057C10.224 15.3057 8.75 13.8317 8.75 12C8.75 10.1683 10.224 8.69434 12.0557 8.69434C13.8873 8.69439 15.3613 10.1683 15.3613 12C15.3613 13.8317 13.8873 15.3056 12.0557 15.3057ZM9.94434 3.47168L9.60254 3.58594C9.01731 3.78101 8.5023 3.96239 8.04785 4.21484L7.71875 4.39844L7.45215 4.13184L6.25781 2.93652C5.94912 2.62784 5.67991 2.43258 5.41504 2.41699C5.12462 2.403 4.876 2.58104 4.60352 2.85352L3.21484 4.24219C2.87397 4.58304 2.783 4.83305 2.78809 5.02441C2.79349 5.22444 2.90668 5.5053 3.29785 5.89648L3.30273 5.90039L4.41309 7.04004L4.68457 7.31738L4.48242 7.64844C4.11647 8.24965 3.8307 8.9009 3.64941 9.57422L3.5498 9.94434H1.61133C1.12622 9.94434 0.885245 10.0602 0.753906 10.2002C0.615906 10.3473 0.5 10.6256 0.5 11.167V12.8887C0.5 13.2715 0.55091 13.5711 0.686523 13.7695C0.794969 13.928 1.02031 14.1113 1.61133 14.1113H3.50488L3.61523 14.4609C3.77415 14.964 3.98598 15.4913 4.24805 15.9893L4.41992 16.3154L4.15918 16.5762L3.06348 17.6709C2.76995 17.9939 2.57062 18.2585 2.55469 18.5293L2.55371 18.54L2.55273 18.5498C2.52219 18.8556 2.71881 19.1231 2.96484 19.3691L4.35352 20.7578C4.69443 21.0987 4.94437 21.1897 5.13574 21.1846C5.33577 21.1792 5.61661 21.065 6.00781 20.6738L7.30371 19.3779L7.63477 19.5645C8.25026 19.9124 8.87902 20.1994 9.52344 20.3799L9.88867 20.4814V22.2773C9.88867 22.6603 9.94046 22.9597 10.0762 23.1582C10.1711 23.2969 10.3546 23.455 10.7949 23.4922L11 23.5H12.9727C13.5634 23.4999 13.7881 23.3167 13.8965 23.1582C14.0321 22.9597 14.083 22.6602 14.083 22.2773V20.4404L14.4307 20.3291C15.0981 20.1155 15.7326 19.8504 16.3369 19.5088L16.668 19.3223L16.9365 19.5908L17.9648 20.6182C18.2596 20.913 18.5388 21.1385 18.833 21.1387C19.1132 21.1387 19.3744 20.9469 19.6191 20.7021L21.0078 19.3135C21.4265 18.8948 21.4566 18.6078 21.4219 18.4209C21.3782 18.1862 21.2022 17.9376 20.9238 17.6592L19.5801 16.3154L19.752 15.9893C20.0162 15.4872 20.2241 14.9915 20.3799 14.4463L20.4844 14.083H22.3887C22.9798 14.083 23.206 13.9 23.3145 13.7432C23.4493 13.548 23.5001 13.2555 23.5 12.8887V11.1387C23.5 10.7557 23.4483 10.4562 23.3125 10.2578C23.204 10.0994 22.9792 9.91699 22.3887 9.91699H20.4814L20.3799 9.55176C20.1995 8.90734 19.9123 8.27857 19.5645 7.66309L19.3779 7.33203L19.6465 7.06348L20.8125 5.89648L20.8213 5.8877L20.8301 5.87988C21.1212 5.61522 21.333 5.32687 21.333 5.02734C21.3328 4.74487 21.1651 4.5108 20.8965 4.24219L19.5078 2.85352C19.2661 2.6118 19.0151 2.42794 18.7207 2.44336L18.707 2.44434H18.6943C18.4188 2.44434 18.1608 2.62927 17.8535 2.93652L16.6309 4.15918L16.3711 4.41992L16.0449 4.24805C15.5428 3.98371 15.0463 3.77595 14.501 3.62012L14.1387 3.51562V1.72266C14.1387 1.33985 14.0877 1.04026 13.9521 0.841797C13.8437 0.683297 13.6184 0.5 13.0273 0.5H11.0557C10.5706 0.5 10.3296 0.615877 10.1982 0.755859C10.0602 0.902985 9.94434 1.18126 9.94434 1.72266V3.47168Z" fill="#05150E" stroke="#00291B"/>
</g>
<defs>
<clipPath id="clip0_1437_1214">
<rect width="24" height="24" fill="white" transform="matrix(1 0 0 -1 0 24)"/>
</clipPath>
</defs>
</svg>
