<svg width="24" height="24" viewBox="0 0 24 24" fill="none" xmlns="http://www.w3.org/2000/svg">
<path d="M12.0002 11.125C12.4832 11.1251 12.8743 11.517 12.8743 12C12.8741 12.4829 12.4832 12.8739 12.0002 12.874C11.5172 12.874 11.1254 12.483 11.1252 12C11.1252 11.5169 11.5171 11.125 12.0002 11.125Z" fill="#05150E" stroke="#00291B"/>
<path d="M12.0016 9.09766C12.7642 9.09766 13.4773 9.38594 14.0153 9.90918L14.0162 9.91113C14.5905 10.4659 14.9058 11.2059 14.9059 12.001C14.9059 12.7762 14.6042 13.5039 14.0533 14.0547L14.0514 14.0566C13.5096 14.6031 12.7837 14.9043 12.0016 14.9043C11.2064 14.9042 10.4653 14.5896 9.91077 14.0156C9.38618 13.4707 9.09827 12.7562 9.09827 12.001C9.09833 11.2258 9.39993 10.498 9.95081 9.94727L9.95178 9.94629C10.4936 9.39964 11.2198 9.09772 12.0016 9.09766ZM11.9996 9.37598C10.5522 9.37618 9.37561 10.5534 9.37561 12.001C9.37568 13.4485 10.5522 14.6248 11.9996 14.625C13.4472 14.625 14.6246 13.4486 14.6246 12.001C14.6246 10.5533 13.4472 9.37598 11.9996 9.37598Z" fill="#05150E" stroke="#00291B"/>
<path d="M19.3009 4.69922V19.3008H4.69934V4.69922H19.3009ZM17.0265 6.75195C16.7057 6.49009 16.2429 6.49025 15.922 6.75195L15.8556 6.81152L14.5558 8.11035C13.8052 7.61465 12.9235 7.34673 12.0021 7.34668C11.0541 7.34668 10.1501 7.62716 9.38782 8.14844L8.0509 6.81152C7.73047 6.49124 7.22365 6.47155 6.88 6.75195L6.8136 6.81152C6.4719 7.15322 6.472 7.70707 6.8136 8.04883L8.15247 9.3877C7.63038 10.1527 7.34877 11.0553 7.34875 12C7.34875 12.9183 7.61709 13.7997 8.1134 14.5527L6.8136 15.8535C6.47186 16.1953 6.47188 16.7491 6.8136 17.0908C6.9843 17.2615 7.2095 17.3477 7.43274 17.3477C7.65582 17.3475 7.88032 17.2614 8.0509 17.0908L9.33215 15.8086C10.1088 16.3562 11.0313 16.6533 12.0021 16.6533C12.9499 16.6533 13.8522 16.3707 14.6144 15.8496L15.8556 17.0908C16.0262 17.2614 16.2506 17.3476 16.4738 17.3477C16.697 17.3477 16.9222 17.2615 17.0929 17.0908C17.4345 16.7491 17.4345 16.1952 17.0929 15.8535L15.8507 14.6113C16.3726 13.8464 16.6554 12.9445 16.6554 12C16.6554 11.0422 16.3515 10.1085 15.8087 9.33203L17.0929 8.04883C17.4131 7.72832 17.433 7.22153 17.1525 6.87793L17.0929 6.81152L17.0265 6.75195Z" fill="#05150E" stroke="#00291B"/>
<path d="M3.34863 2H20.6514C21.3944 2 22 2.60546 22 3.34863V20.6514C22 21.3945 21.3944 22 20.6514 22H3.34863C2.60558 22 2 21.3945 2 20.6514V3.34863C2 2.60546 2.60558 2 3.34863 2ZM4.52148 2.94922C3.65433 2.94922 2.94922 3.65441 2.94922 4.52148V19.4785C2.94922 20.3456 3.65433 21.0508 4.52148 21.0508H19.4785C20.3457 21.0508 21.0508 20.3456 21.0508 19.4785V4.52148C21.0508 3.65441 20.3457 2.94922 19.4785 2.94922H4.52148Z" fill="#05150E" stroke="#00291B"/>
</svg>
