<svg width="24" height="24" viewBox="0 0 24 24" fill="none" xmlns="http://www.w3.org/2000/svg">
<path d="M12.0002 10.875C12.6213 10.8751 13.1243 11.3789 13.1243 12C13.1241 12.621 12.6212 13.1239 12.0002 13.124C11.3791 13.124 10.8754 12.6211 10.8752 12C10.8752 11.3788 11.3791 10.875 12.0002 10.875Z" stroke="#00291B" stroke-width="0.5"/>
<path d="M12.0016 8.84766C12.8286 8.84766 13.6039 9.16128 14.1891 9.73047H14.1901C14.813 10.3322 15.1558 11.1378 15.1559 12.001C15.1559 12.8427 14.8278 13.6339 14.2301 14.2314L14.2291 14.2324C13.6398 14.827 12.8497 15.1543 12.0016 15.1543C11.1384 15.1542 10.3336 14.812 9.73206 14.1895H9.73108C9.16145 13.5979 8.84827 12.8212 8.84827 12.001C8.84833 11.2118 9.13611 10.4671 9.66467 9.88477L9.77405 9.77051C10.3633 9.17596 11.1539 8.84772 12.0016 8.84766ZM11.9996 9.62598C10.6902 9.62618 9.62561 10.6915 9.62561 12.001C9.62568 13.3104 10.6903 14.3748 11.9996 14.375C13.3091 14.375 14.3746 13.3105 14.3746 12.001C14.3746 10.6914 13.3092 9.62598 11.9996 9.62598Z" stroke="#00291B" stroke-width="0.5"/>
<path d="M4.52161 4.44922H19.4786C19.5181 4.44922 19.5507 4.48143 19.5509 4.52051V19.4785C19.5509 19.5178 19.5183 19.5508 19.4786 19.5508H4.52161C4.48197 19.5508 4.44934 19.5178 4.44934 19.4785V4.52051C4.44952 4.49126 4.46765 4.46601 4.49329 4.45508L4.52161 4.44922ZM16.9161 6.98828C16.6721 6.74429 16.2765 6.74445 16.0323 6.98828L14.5851 8.43457C13.8411 7.89175 12.944 7.59673 12.0021 7.59668C11.0337 7.59668 10.1155 7.90573 9.36145 8.47559L7.87415 6.98828C7.63007 6.74437 7.23443 6.74437 6.99036 6.98828C6.74629 7.23235 6.74639 7.62794 6.99036 7.87207L8.47864 9.36035C7.9078 10.1183 7.59877 11.0359 7.59875 12C7.59875 12.9378 7.89416 13.8345 8.43762 14.582L6.99036 16.0303C6.74625 16.2744 6.74627 16.6699 6.99036 16.9141C7.11233 17.036 7.27315 17.0977 7.43274 17.0977C7.59217 17.0975 7.7523 17.0359 7.87415 16.9141L9.30774 15.4795C10.0758 16.0773 11.0119 16.4033 12.0021 16.4033C12.9703 16.4033 13.8867 16.0922 14.6407 15.5225L16.0323 16.9141C16.1542 17.0359 16.3143 17.0976 16.4738 17.0977C16.6333 17.0977 16.7942 17.036 16.9161 16.9141C17.1601 16.67 17.1601 16.2743 16.9161 16.0303L15.5245 14.6387C16.0952 13.8808 16.4054 12.964 16.4054 12C16.4054 11.0241 16.0721 10.073 15.4806 9.30664L16.9161 7.87207C17.16 7.62793 17.1602 7.23231 16.9161 6.98828Z" stroke="#00291B" stroke-width="0.5"/>
<path d="M3.34863 1.75H20.6514C21.5325 1.75 22.25 2.46737 22.25 3.34863V20.6514C22.25 21.5326 21.5325 22.25 20.6514 22.25H3.34863C2.46752 22.25 1.75 21.5326 1.75 20.6514V3.34863C1.75 2.46737 2.46752 1.75 3.34863 1.75ZM4.52148 3.19922C3.79238 3.19922 3.19922 3.7925 3.19922 4.52148V19.4785C3.19922 20.2075 3.79238 20.8008 4.52148 20.8008H19.4785C20.2076 20.8008 20.8008 20.2075 20.8008 19.4785V4.52148C20.8008 3.7925 20.2076 3.19922 19.4785 3.19922H4.52148Z" stroke="#00291B" stroke-width="0.5"/>
</svg>
