<svg width="64" height="62" viewBox="0 0 64 62" fill="none" xmlns="http://www.w3.org/2000/svg">
<rect width="63.6316" height="62" rx="13.0526" fill="url(#paint0_linear_685_4177)"/>
<path d="M39.1648 15.5C42.4168 15.6852 44.4729 16.2078 45.9484 17.6832C47.4238 19.1587 47.9464 21.2149 48.1316 24.4671M26.0985 15.5C22.8464 15.6852 20.7903 16.2078 19.3148 17.6832C17.8394 19.1587 17.3167 21.2149 17.1316 24.4671M48.1316 37.5328C47.9464 40.7851 47.4238 42.8413 45.9484 44.3168C44.4729 45.7922 42.4167 46.3148 39.1644 46.5M17.1316 37.5328C17.3167 40.7851 17.8394 42.8413 19.3148 44.3168C20.7903 45.7922 22.8465 46.3148 26.0987 46.5" stroke="white" stroke-width="2.44737" stroke-linecap="round" stroke-linejoin="round"/>
<path d="M21.2106 31H44.0527" stroke="white" stroke-width="2.44737" stroke-linecap="round" stroke-linejoin="round"/>
<defs>
<linearGradient id="paint0_linear_685_4177" x1="-1.01587e-06" y1="11.4211" x2="73.4211" y2="95.4474" gradientUnits="userSpaceOnUse">
<stop stop-color="#002D0E"/>
<stop offset="1" stop-color="#009311"/>
</linearGradient>
</defs>
</svg>
