<svg width="12" height="12" viewBox="0 0 12 12" fill="none" xmlns="http://www.w3.org/2000/svg">
<path d="M6.9624 10.5H5.0376C2.72238 10.5 1.56478 10.5 1.13818 9.74695C0.711587 8.99395 1.30368 7.9957 2.48787 5.99925L3.45029 4.37667C4.5878 2.45889 5.15655 1.5 6 1.5C6.84345 1.5 7.4122 2.45888 8.5497 4.37666L9.51215 5.99925C10.6963 7.9957 11.2884 8.99395 10.8618 9.74695C10.4352 10.5 9.2776 10.5 6.9624 10.5Z" stroke="#AA5102" stroke-width="0.75" stroke-linecap="round" stroke-linejoin="round"/>
<path d="M6 8.5V6.5" stroke="#AA5102" stroke-width="0.75" stroke-linecap="round" stroke-linejoin="round"/>
<path d="M6 4.625H6.0625M6.125 4.625C6.125 4.55596 6.06905 4.5 6 4.5C5.93095 4.5 5.875 4.55596 5.875 4.625C5.875 4.69404 5.93095 4.75 6 4.75C6.06905 4.75 6.125 4.69404 6.125 4.625Z" stroke="#AA5102" stroke-width="0.75" stroke-linecap="round" stroke-linejoin="round"/>
</svg>
