<svg width="33" height="33" viewBox="0 0 33 33" fill="none" xmlns="http://www.w3.org/2000/svg">
<path d="M20.474 9.35352C20.474 9.35352 21.1407 10.0202 21.8073 11.3535C21.8073 11.3535 23.9249 8.02018 25.8073 7.35352" stroke="#00291B" stroke-width="1.5" stroke-linecap="round" stroke-linejoin="round"/>
<path d="M13.8265 2.6952C10.4953 2.55416 7.92158 2.93792 7.92158 2.93792C6.29644 3.05412 3.18203 3.96522 3.18205 9.28614C3.18208 14.5618 3.1476 21.0658 3.18205 23.6586C3.18205 25.2428 4.16288 28.9378 7.55776 29.1358C11.6842 29.3766 19.1171 29.4278 22.5273 29.1358C23.4403 29.0844 26.4796 28.3677 26.8643 25.0609C27.2628 21.6352 27.1835 19.2544 27.1835 18.6877" stroke="#00291B" stroke-width="1.5" stroke-linecap="round" stroke-linejoin="round"/>
<path d="M29.8332 9.35417C29.8332 13.0361 26.8456 16.0209 23.1601 16.0209C19.4747 16.0209 16.4871 13.0361 16.4871 9.35417C16.4871 5.67227 19.4747 2.6875 23.1601 2.6875C26.8456 2.6875 29.8332 5.67227 29.8332 9.35417Z" stroke="#00291B" stroke-width="1.5" stroke-linecap="round"/>
<path d="M9.80737 17.3535H15.1407" stroke="#00291B" stroke-width="1.5" stroke-linecap="round"/>
<path d="M9.80737 22.6875H20.474" stroke="#00291B" stroke-width="1.5" stroke-linecap="round"/>
</svg>
