<svg width="28" height="28" viewBox="0 0 28 28" fill="none" xmlns="http://www.w3.org/2000/svg">
<path d="M18.0834 21C18.0834 23.2552 16.2552 25.0833 14 25.0833C11.7449 25.0833 9.91669 23.2552 9.91669 21" stroke="#00291B" stroke-width="1.5" stroke-linecap="round" stroke-linejoin="round"/>
<path d="M22.4363 20.9994H5.56368C4.42394 20.9994 3.5 20.0754 3.5 18.9356C3.5 18.3884 3.71742 17.8635 4.10444 17.4764L4.80821 16.7726C5.46458 16.1163 5.83333 15.226 5.83333 14.2978V11.0827C5.83333 6.57236 9.48968 2.91602 14 2.91602C18.5103 2.91602 22.1667 6.57235 22.1667 11.0827V14.2978C22.1667 15.226 22.5354 16.1163 23.1918 16.7726L23.8955 17.4764C24.2825 17.8635 24.5 18.3884 24.5 18.9356C24.5 20.0754 23.576 20.9994 22.4363 20.9994Z" stroke="#00291B" stroke-width="1.5" stroke-linecap="round" stroke-linejoin="round"/>
<circle cx="20" cy="5" r="4" fill="#9C0000"/>
</svg>
