<svg width="202" height="65" viewBox="0 0 202 65" fill="none" xmlns="http://www.w3.org/2000/svg">
<path fill-rule="evenodd" clip-rule="evenodd" d="M22.0156 8C34.1743 8 44.0311 17.8568 44.0311 30.0156C44.0311 39.4444 38.1032 47.4874 29.7717 50.6245L27.345 36.6326C28.0117 36.3236 29.0477 35.3366 29.5799 34.7414C31.8015 32.2568 32.6255 28.4385 31.589 25.1884C29.3745 18.2462 21.0735 16.079 15.8331 20.2708C14.4363 21.3882 13.1731 22.8936 12.441 25.1884C11.7098 27.4812 11.9151 30.1218 12.8318 32.1839C13.3612 33.3748 14.254 34.6763 15.2073 35.5092C15.6398 35.887 16.1386 36.3781 16.6789 36.6312L14.254 50.6222C5.92531 47.4836 0 39.4421 0 30.0156C0 17.8568 9.8565 8 22.0156 8Z" fill="white"/>
<path d="M56.9438 31.3838V47H51.3666V31.8534C51.3666 22.9886 57.2961 17.0591 66.4545 17.0591C75.3193 17.0591 81.2488 22.9886 81.2488 31.8534V47H75.6128V31.3838C75.6128 25.924 71.8556 22.2841 66.2196 22.2841C60.7598 22.2841 56.9438 25.9827 56.9438 31.3838ZM102.55 47C90.6915 47 85.9949 42.0099 85.9949 30.8554V11.5406H91.5721V17.9984H102.55V22.9886H91.5721V31.6773C91.5721 38.8984 94.2727 41.6576 102.55 41.6576V47ZM107.093 8.54652C107.093 6.60917 108.443 5.3176 110.439 5.3176C112.494 5.3176 113.844 6.60917 113.844 8.54652C113.844 10.4839 112.494 11.7754 110.439 11.7754C108.443 11.7754 107.093 10.4839 107.093 8.54652ZM107.68 47V17.6462H113.257V47H107.68ZM118.674 47V17.6462H124.251V41.5402C126.952 41.5402 139.398 41.8924 139.398 25.1608V17.6462H145.034V24.6324C145.034 39.0158 137.108 47 125.073 47H118.674ZM179.525 32.9689H154.809C154.926 38.5461 158.801 42.4795 164.789 42.4795C169.545 42.4795 172.773 39.8964 173.83 35.9043H179.525C178.233 43.2427 172.773 47.5871 164.672 47.5871C155.396 47.5871 149.232 41.4815 149.232 32.3231C149.232 23.1647 155.396 17.0591 164.672 17.0591C173.537 17.0591 179.584 22.4602 179.525 31.3251V32.9689ZM155.22 28.6832H173.713C172.832 24.3976 169.545 21.8144 164.731 21.8144C159.916 21.8144 156.394 24.6911 155.22 28.6832ZM189.953 31.9121V47H184.376V32.6166C184.376 23.106 190.423 17.1765 199.757 17.1765V22.5776C193.887 22.5776 189.953 26.1588 189.953 31.9121Z" fill="white"/>
</svg>
