<svg width="361" height="145" viewBox="0 0 361 145" fill="none" xmlns="http://www.w3.org/2000/svg">
<g clip-path="url(#clip0_1603_4074)">
<rect width="361" height="145" rx="12" fill="#0052FF"/>
<g opacity="0.1">
<path fill-rule="evenodd" clip-rule="evenodd" d="M5.20947 124.664C5.20947 116.747 11.6278 110.329 19.5452 110.329C25.6849 110.329 30.9222 114.189 32.965 119.614L23.854 121.194C23.6528 120.76 23.0101 120.085 22.6224 119.739C21.0046 118.292 18.5182 117.756 16.4019 118.43C11.8814 119.872 10.4702 125.278 13.1998 128.69C13.9274 129.6 14.9076 130.422 16.4019 130.899C17.8949 131.375 19.6144 131.241 20.9571 130.644C21.7326 130.3 22.5801 129.718 23.1224 129.098C23.3685 128.816 23.6882 128.491 23.8531 128.139L32.9635 129.718C30.9197 135.142 25.6834 139 19.5452 139C11.6278 139 5.20947 132.582 5.20947 124.664Z" fill="white"/>
<path d="M20.8313 101.92H31V105.552H21.1371C15.3647 105.552 11.5036 101.691 11.5036 95.7271C11.5036 89.9547 15.3647 86.0936 21.1371 86.0936H31V89.7635H20.8313C17.2761 89.7635 14.9059 92.2101 14.9059 95.8801C14.9059 99.4353 17.3143 101.92 20.8313 101.92ZM31 72.2228C31 79.9449 27.7506 83.0031 20.4872 83.0031H7.91017V79.3714H12.1153V72.2228H15.3647V79.3714H21.0224C25.7245 79.3714 27.5212 77.6129 27.5212 72.2228H31ZM5.96053 69.2649C4.699 69.2649 3.85798 68.3856 3.85798 67.0859C3.85798 65.7479 4.699 64.8686 5.96053 64.8686C7.22206 64.8686 8.06308 65.7479 8.06308 67.0859C8.06308 68.3856 7.22206 69.2649 5.96053 69.2649ZM31 68.8826H11.8859V65.2509H31V68.8826ZM31 61.7238H11.8859V58.0921H27.4448C27.4448 56.3336 27.6741 48.2292 16.7791 48.2292H11.8859V44.5593H16.4351C25.801 44.5593 31 49.7201 31 57.5569V61.7238ZM21.8635 22.0999V38.194C25.4951 38.1175 28.0564 35.5945 28.0564 31.6952C28.0564 28.5987 26.3744 26.4962 23.7749 25.8081V22.0999C28.5534 22.941 31.3823 26.4962 31.3823 31.7717C31.3823 37.8117 27.4065 41.8257 21.443 41.8257C15.4794 41.8257 11.5036 37.8117 11.5036 31.7717C11.5036 25.9992 15.0206 22.0617 20.7931 22.0999H21.8635ZM19.0728 37.9264V25.8845C16.2821 26.4579 14.6001 28.5987 14.6001 31.7334C14.6001 34.8681 16.4733 37.1618 19.0728 37.9264ZM21.1754 15.3093H31V18.941H21.6341C15.4411 18.941 11.5801 15.0035 11.5801 8.92524H15.0971C15.0971 12.7481 17.429 15.3093 21.1754 15.3093Z" fill="white"/>
</g>
<path d="M55.28 27.96L50.42 37.36V42H47V37.36L42.14 27.96H46.02L48.74 33.84L51.44 27.96H55.28ZM61.138 42.16C60.0446 42.16 59.058 41.9267 58.178 41.46C57.3113 40.9933 56.6246 40.3267 56.118 39.46C55.6246 38.5933 55.378 37.58 55.378 36.42C55.378 35.2733 55.6313 34.2667 56.138 33.4C56.6446 32.52 57.338 31.8467 58.218 31.38C59.098 30.9133 60.0846 30.68 61.178 30.68C62.2713 30.68 63.258 30.9133 64.138 31.38C65.018 31.8467 65.7113 32.52 66.218 33.4C66.7246 34.2667 66.978 35.2733 66.978 36.42C66.978 37.5667 66.718 38.58 66.198 39.46C65.6913 40.3267 64.9913 40.9933 64.098 41.46C63.218 41.9267 62.2313 42.16 61.138 42.16ZM61.138 39.2C61.7913 39.2 62.3446 38.96 62.798 38.48C63.2646 38 63.498 37.3133 63.498 36.42C63.498 35.5267 63.2713 34.84 62.818 34.36C62.378 33.88 61.8313 33.64 61.178 33.64C60.5113 33.64 59.958 33.88 59.518 34.36C59.078 34.8267 58.858 35.5133 58.858 36.42C58.858 37.3133 59.0713 38 59.498 38.48C59.938 38.96 60.4846 39.2 61.138 39.2ZM79.2123 30.84V42H75.7923V40.48C75.4457 40.9733 74.9723 41.3733 74.3723 41.68C73.7857 41.9733 73.1323 42.12 72.4123 42.12C71.559 42.12 70.8057 41.9333 70.1523 41.56C69.499 41.1733 68.9923 40.62 68.6323 39.9C68.2723 39.18 68.0923 38.3333 68.0923 37.36V30.84H71.4923V36.9C71.4923 37.6467 71.6857 38.2267 72.0723 38.64C72.459 39.0533 72.979 39.26 73.6323 39.26C74.299 39.26 74.8257 39.0533 75.2123 38.64C75.599 38.2267 75.7923 37.6467 75.7923 36.9V30.84H79.2123ZM83.4489 26L83.1889 30.42H80.8889L80.6289 26H83.4489ZM88.303 32.7C88.703 32.0867 89.203 31.6067 89.803 31.26C90.403 30.9 91.0696 30.72 91.803 30.72V34.34H90.863C90.0096 34.34 89.3696 34.5267 88.943 34.9C88.5163 35.26 88.303 35.9 88.303 36.82V42H84.883V30.84H88.303V32.7ZM103.358 36.24C103.358 36.56 103.338 36.8933 103.298 37.24H95.5577C95.611 37.9333 95.831 38.4667 96.2177 38.84C96.6177 39.2 97.1043 39.38 97.6777 39.38C98.531 39.38 99.1243 39.02 99.4577 38.3H103.098C102.911 39.0333 102.571 39.6933 102.078 40.28C101.598 40.8667 100.991 41.3267 100.258 41.66C99.5243 41.9933 98.7043 42.16 97.7977 42.16C96.7043 42.16 95.731 41.9267 94.8777 41.46C94.0243 40.9933 93.3577 40.3267 92.8777 39.46C92.3977 38.5933 92.1577 37.58 92.1577 36.42C92.1577 35.26 92.391 34.2467 92.8577 33.38C93.3377 32.5133 94.0043 31.8467 94.8577 31.38C95.711 30.9133 96.691 30.68 97.7977 30.68C98.8777 30.68 99.8377 30.9067 100.678 31.36C101.518 31.8133 102.171 32.46 102.638 33.3C103.118 34.14 103.358 35.12 103.358 36.24ZM99.8577 35.34C99.8577 34.7533 99.6577 34.2867 99.2577 33.94C98.8577 33.5933 98.3577 33.42 97.7577 33.42C97.1843 33.42 96.6977 33.5867 96.2977 33.92C95.911 34.2533 95.671 34.7267 95.5777 35.34H99.8577ZM116.94 39.52H111.7L110.86 42H107.28L112.36 27.96H116.32L121.4 42H117.78L116.94 39.52ZM116.06 36.88L114.32 31.74L112.6 36.88H116.06ZM125.766 27.2V42H122.346V27.2H125.766ZM143.665 30.84L140.645 42H136.865L135.105 34.76L133.285 42H129.525L126.485 30.84H129.905L131.485 38.82L133.365 30.84H136.985L138.885 38.78L140.445 30.84H143.665ZM143.689 36.4C143.689 35.2533 143.902 34.2467 144.329 33.38C144.769 32.5133 145.362 31.8467 146.109 31.38C146.856 30.9133 147.689 30.68 148.609 30.68C149.396 30.68 150.082 30.84 150.669 31.16C151.269 31.48 151.729 31.9 152.049 32.42V30.84H155.469V42H152.049V40.42C151.716 40.94 151.249 41.36 150.649 41.68C150.062 42 149.376 42.16 148.589 42.16C147.682 42.16 146.856 41.9267 146.109 41.46C145.362 40.98 144.769 40.3067 144.329 39.44C143.902 38.56 143.689 37.5467 143.689 36.4ZM152.049 36.42C152.049 35.5667 151.809 34.8933 151.329 34.4C150.862 33.9067 150.289 33.66 149.609 33.66C148.929 33.66 148.349 33.9067 147.869 34.4C147.402 34.88 147.169 35.5467 147.169 36.4C147.169 37.2533 147.402 37.9333 147.869 38.44C148.349 38.9333 148.929 39.18 149.609 39.18C150.289 39.18 150.862 38.9333 151.329 38.44C151.809 37.9467 152.049 37.2733 152.049 36.42ZM168.743 30.84L161.743 47.3H158.063L160.623 41.62L156.083 30.84H159.903L162.483 37.82L165.043 30.84H168.743ZM173.92 42.16C172.947 42.16 172.08 41.9933 171.32 41.66C170.56 41.3267 169.96 40.8733 169.52 40.3C169.08 39.7133 168.833 39.06 168.78 38.34H172.16C172.2 38.7267 172.38 39.04 172.7 39.28C173.02 39.52 173.413 39.64 173.88 39.64C174.307 39.64 174.633 39.56 174.86 39.4C175.1 39.2267 175.22 39.0067 175.22 38.74C175.22 38.42 175.053 38.1867 174.72 38.04C174.387 37.88 173.847 37.7067 173.1 37.52C172.3 37.3333 171.633 37.14 171.1 36.94C170.567 36.7267 170.107 36.4 169.72 35.96C169.333 35.5067 169.14 34.9 169.14 34.14C169.14 33.5 169.313 32.92 169.66 32.4C170.02 31.8667 170.54 31.4467 171.22 31.14C171.913 30.8333 172.733 30.68 173.68 30.68C175.08 30.68 176.18 31.0267 176.98 31.72C177.793 32.4133 178.26 33.3333 178.38 34.48H175.22C175.167 34.0933 174.993 33.7867 174.7 33.56C174.42 33.3333 174.047 33.22 173.58 33.22C173.18 33.22 172.873 33.3 172.66 33.46C172.447 33.6067 172.34 33.8133 172.34 34.08C172.34 34.4 172.507 34.64 172.84 34.8C173.187 34.96 173.72 35.12 174.44 35.28C175.267 35.4933 175.94 35.7067 176.46 35.92C176.98 36.12 177.433 36.4533 177.82 36.92C178.22 37.3733 178.427 37.9867 178.44 38.76C178.44 39.4133 178.253 40 177.88 40.52C177.52 41.0267 176.993 41.4267 176.3 41.72C175.62 42.0133 174.827 42.16 173.92 42.16ZM44.96 59.68C44.36 59.68 43.8667 59.5067 43.48 59.16C43.1067 58.8 42.92 58.36 42.92 57.84C42.92 57.3067 43.1067 56.8667 43.48 56.52C43.8667 56.16 44.36 55.98 44.96 55.98C45.5467 55.98 46.0267 56.16 46.4 56.52C46.7867 56.8667 46.98 57.3067 46.98 57.84C46.98 58.36 46.7867 58.8 46.4 59.16C46.0267 59.5067 45.5467 59.68 44.96 59.68ZM46.66 60.84V72H43.24V60.84H46.66ZM55.3384 60.72C56.6451 60.72 57.6851 61.1467 58.4584 62C59.2451 62.84 59.6384 64 59.6384 65.48V72H56.2384V65.94C56.2384 65.1933 56.0451 64.6133 55.6584 64.2C55.2718 63.7867 54.7518 63.58 54.0984 63.58C53.4451 63.58 52.9251 63.7867 52.5384 64.2C52.1518 64.6133 51.9584 65.1933 51.9584 65.94V72H48.5384V60.84H51.9584V62.32C52.3051 61.8267 52.7718 61.44 53.3584 61.16C53.9451 60.8667 54.6051 60.72 55.3384 60.72ZM64.4733 64.96C64.4733 63.5733 64.7733 62.34 65.3733 61.26C65.9733 60.1667 66.8066 59.32 67.8733 58.72C68.9533 58.1067 70.1733 57.8 71.5333 57.8C73.1999 57.8 74.6266 58.24 75.8133 59.12C76.9999 60 77.7933 61.2 78.1933 62.72H74.4333C74.1533 62.1333 73.7533 61.6867 73.2333 61.38C72.7266 61.0733 72.1466 60.92 71.4933 60.92C70.4399 60.92 69.5866 61.2867 68.9333 62.02C68.2799 62.7533 67.9533 63.7333 67.9533 64.96C67.9533 66.1867 68.2799 67.1667 68.9333 67.9C69.5866 68.6333 70.4399 69 71.4933 69C72.1466 69 72.7266 68.8467 73.2333 68.54C73.7533 68.2333 74.1533 67.7867 74.4333 67.2H78.1933C77.7933 68.72 76.9999 69.92 75.8133 70.8C74.6266 71.6667 73.1999 72.1 71.5333 72.1C70.1733 72.1 68.9533 71.8 67.8733 71.2C66.8066 70.5867 65.9733 69.74 65.3733 68.66C64.7733 67.58 64.4733 66.3467 64.4733 64.96ZM84.7677 72.16C83.6743 72.16 82.6877 71.9267 81.8077 71.46C80.941 70.9933 80.2543 70.3267 79.7477 69.46C79.2543 68.5933 79.0077 67.58 79.0077 66.42C79.0077 65.2733 79.261 64.2667 79.7677 63.4C80.2743 62.52 80.9677 61.8467 81.8477 61.38C82.7277 60.9133 83.7143 60.68 84.8077 60.68C85.901 60.68 86.8877 60.9133 87.7677 61.38C88.6477 61.8467 89.341 62.52 89.8477 63.4C90.3543 64.2667 90.6077 65.2733 90.6077 66.42C90.6077 67.5667 90.3477 68.58 89.8277 69.46C89.321 70.3267 88.621 70.9933 87.7277 71.46C86.8477 71.9267 85.861 72.16 84.7677 72.16ZM84.7677 69.2C85.421 69.2 85.9743 68.96 86.4277 68.48C86.8943 68 87.1277 67.3133 87.1277 66.42C87.1277 65.5267 86.901 64.84 86.4477 64.36C86.0077 63.88 85.461 63.64 84.8077 63.64C84.141 63.64 83.5877 63.88 83.1477 64.36C82.7077 64.8267 82.4877 65.5133 82.4877 66.42C82.4877 67.3133 82.701 68 83.1277 68.48C83.5677 68.96 84.1143 69.2 84.7677 69.2ZM98.622 60.72C99.9287 60.72 100.969 61.1467 101.742 62C102.529 62.84 102.922 64 102.922 65.48V72H99.522V65.94C99.522 65.1933 99.3287 64.6133 98.942 64.2C98.5554 63.7867 98.0354 63.58 97.382 63.58C96.7287 63.58 96.2087 63.7867 95.822 64.2C95.4354 64.6133 95.242 65.1933 95.242 65.94V72H91.822V60.84H95.242V62.32C95.5887 61.8267 96.0554 61.44 96.642 61.16C97.2287 60.8667 97.8887 60.72 98.622 60.72ZM110.919 69.1V72H109.179C107.939 72 106.972 71.7 106.279 71.1C105.585 70.4867 105.239 69.4933 105.239 68.12V63.68H103.879V60.84H105.239V58.12H108.659V60.84H110.899V63.68H108.659V68.16C108.659 68.4933 108.739 68.7333 108.899 68.88C109.059 69.0267 109.325 69.1 109.699 69.1H110.919ZM115.644 62.7C116.044 62.0867 116.544 61.6067 117.144 61.26C117.744 60.9 118.41 60.72 119.144 60.72V64.34H118.204C117.35 64.34 116.71 64.5267 116.284 64.9C115.857 65.26 115.644 65.9 115.644 66.82V72H112.224V60.84H115.644V62.7ZM125.258 72.16C124.165 72.16 123.178 71.9267 122.298 71.46C121.432 70.9933 120.745 70.3267 120.238 69.46C119.745 68.5933 119.498 67.58 119.498 66.42C119.498 65.2733 119.752 64.2667 120.258 63.4C120.765 62.52 121.458 61.8467 122.338 61.38C123.218 60.9133 124.205 60.68 125.298 60.68C126.392 60.68 127.378 60.9133 128.258 61.38C129.138 61.8467 129.832 62.52 130.338 63.4C130.845 64.2667 131.098 65.2733 131.098 66.42C131.098 67.5667 130.838 68.58 130.318 69.46C129.812 70.3267 129.112 70.9933 128.218 71.46C127.338 71.9267 126.352 72.16 125.258 72.16ZM125.258 69.2C125.912 69.2 126.465 68.96 126.918 68.48C127.385 68 127.618 67.3133 127.618 66.42C127.618 65.5267 127.392 64.84 126.938 64.36C126.498 63.88 125.952 63.64 125.298 63.64C124.632 63.64 124.078 63.88 123.638 64.36C123.198 64.8267 122.978 65.5133 122.978 66.42C122.978 67.3133 123.192 68 123.618 68.48C124.058 68.96 124.605 69.2 125.258 69.2ZM135.733 57.2V72H132.313V57.2H135.733Z" fill="#D0E2FF"/>
<path d="M42.98 111.07C42.52 111.07 42.1067 110.99 41.74 110.83C41.38 110.663 41.0967 110.437 40.89 110.15C40.6833 109.857 40.5767 109.52 40.57 109.14H41.54C41.5733 109.467 41.7067 109.743 41.94 109.97C42.18 110.19 42.5267 110.3 42.98 110.3C43.4133 110.3 43.7533 110.193 44 109.98C44.2533 109.76 44.38 109.48 44.38 109.14C44.38 108.873 44.3067 108.657 44.16 108.49C44.0133 108.323 43.83 108.197 43.61 108.11C43.39 108.023 43.0933 107.93 42.72 107.83C42.26 107.71 41.89 107.59 41.61 107.47C41.3367 107.35 41.1 107.163 40.9 106.91C40.7067 106.65 40.61 106.303 40.61 105.87C40.61 105.49 40.7067 105.153 40.9 104.86C41.0933 104.567 41.3633 104.34 41.71 104.18C42.0633 104.02 42.4667 103.94 42.92 103.94C43.5733 103.94 44.1067 104.103 44.52 104.43C44.94 104.757 45.1767 105.19 45.23 105.73H44.23C44.1967 105.463 44.0567 105.23 43.81 105.03C43.5633 104.823 43.2367 104.72 42.83 104.72C42.45 104.72 42.14 104.82 41.9 105.02C41.66 105.213 41.54 105.487 41.54 105.84C41.54 106.093 41.61 106.3 41.75 106.46C41.8967 106.62 42.0733 106.743 42.28 106.83C42.4933 106.91 42.79 107.003 43.17 107.11C43.63 107.237 44 107.363 44.28 107.49C44.56 107.61 44.8 107.8 45 108.06C45.2 108.313 45.3 108.66 45.3 109.1C45.3 109.44 45.21 109.76 45.03 110.06C44.85 110.36 44.5833 110.603 44.23 110.79C43.8767 110.977 43.46 111.07 42.98 111.07ZM49.3591 105.42C49.7725 105.42 50.1458 105.51 50.4791 105.69C50.8125 105.863 51.0725 106.127 51.2591 106.48C51.4525 106.833 51.5491 107.263 51.5491 107.77V111H50.6491V107.9C50.6491 107.353 50.5125 106.937 50.2391 106.65C49.9658 106.357 49.5925 106.21 49.1191 106.21C48.6391 106.21 48.2558 106.36 47.9691 106.66C47.6891 106.96 47.5491 107.397 47.5491 107.97V111H46.6391V103.6H47.5491V106.3C47.7291 106.02 47.9758 105.803 48.2891 105.65C48.6091 105.497 48.9658 105.42 49.3591 105.42ZM52.6956 108.24C52.6956 107.68 52.809 107.19 53.0356 106.77C53.2623 106.343 53.5723 106.013 53.9656 105.78C54.3656 105.547 54.809 105.43 55.2956 105.43C55.7756 105.43 56.1923 105.533 56.5456 105.74C56.899 105.947 57.1623 106.207 57.3356 106.52V105.52H58.2556V111H57.3356V109.98C57.1556 110.3 56.8856 110.567 56.5256 110.78C56.1723 110.987 55.759 111.09 55.2856 111.09C54.799 111.09 54.359 110.97 53.9656 110.73C53.5723 110.49 53.2623 110.153 53.0356 109.72C52.809 109.287 52.6956 108.793 52.6956 108.24ZM57.3356 108.25C57.3356 107.837 57.2523 107.477 57.0856 107.17C56.919 106.863 56.6923 106.63 56.4056 106.47C56.1256 106.303 55.8156 106.22 55.4756 106.22C55.1356 106.22 54.8256 106.3 54.5456 106.46C54.2656 106.62 54.0423 106.853 53.8756 107.16C53.709 107.467 53.6256 107.827 53.6256 108.24C53.6256 108.66 53.709 109.027 53.8756 109.34C54.0423 109.647 54.2656 109.883 54.5456 110.05C54.8256 110.21 55.1356 110.29 55.4756 110.29C55.8156 110.29 56.1256 110.21 56.4056 110.05C56.6923 109.883 56.919 109.647 57.0856 109.34C57.2523 109.027 57.3356 108.663 57.3356 108.25ZM60.7034 106.41C60.8634 106.097 61.0901 105.853 61.3834 105.68C61.6834 105.507 62.0468 105.42 62.4734 105.42V106.36H62.2334C61.2134 106.36 60.7034 106.913 60.7034 108.02V111H59.7934V105.52H60.7034V106.41ZM68.5239 108.05C68.5239 108.223 68.5139 108.407 68.4939 108.6H64.1139C64.1472 109.14 64.3306 109.563 64.6639 109.87C65.0039 110.17 65.4139 110.32 65.8939 110.32C66.2872 110.32 66.6139 110.23 66.8739 110.05C67.1406 109.863 67.3272 109.617 67.4339 109.31H68.4139C68.2672 109.837 67.9739 110.267 67.5339 110.6C67.0939 110.927 66.5472 111.09 65.8939 111.09C65.3739 111.09 64.9072 110.973 64.4939 110.74C64.0872 110.507 63.7672 110.177 63.5339 109.75C63.3006 109.317 63.1839 108.817 63.1839 108.25C63.1839 107.683 63.2972 107.187 63.5239 106.76C63.7506 106.333 64.0672 106.007 64.4739 105.78C64.8872 105.547 65.3606 105.43 65.8939 105.43C66.4139 105.43 66.8739 105.543 67.2739 105.77C67.6739 105.997 67.9806 106.31 68.1939 106.71C68.4139 107.103 68.5239 107.55 68.5239 108.05ZM67.5839 107.86C67.5839 107.513 67.5072 107.217 67.3539 106.97C67.2006 106.717 66.9906 106.527 66.7239 106.4C66.4639 106.267 66.1739 106.2 65.8539 106.2C65.3939 106.2 65.0006 106.347 64.6739 106.64C64.3539 106.933 64.1706 107.34 64.1239 107.86H67.5839ZM74.7811 111.09C74.2678 111.09 73.8011 110.973 73.3811 110.74C72.9678 110.507 72.6411 110.177 72.4011 109.75C72.1678 109.317 72.0511 108.817 72.0511 108.25C72.0511 107.69 72.1711 107.197 72.4111 106.77C72.6578 106.337 72.9911 106.007 73.4111 105.78C73.8311 105.547 74.3011 105.43 74.8211 105.43C75.3411 105.43 75.8111 105.547 76.2311 105.78C76.6511 106.007 76.9811 106.333 77.2211 106.76C77.4678 107.187 77.5911 107.683 77.5911 108.25C77.5911 108.817 77.4644 109.317 77.2111 109.75C76.9644 110.177 76.6278 110.507 76.2011 110.74C75.7744 110.973 75.3011 111.09 74.7811 111.09ZM74.7811 110.29C75.1078 110.29 75.4144 110.213 75.7011 110.06C75.9878 109.907 76.2178 109.677 76.3911 109.37C76.5711 109.063 76.6611 108.69 76.6611 108.25C76.6611 107.81 76.5744 107.437 76.4011 107.13C76.2278 106.823 76.0011 106.597 75.7211 106.45C75.4411 106.297 75.1378 106.22 74.8111 106.22C74.4778 106.22 74.1711 106.297 73.8911 106.45C73.6178 106.597 73.3978 106.823 73.2311 107.13C73.0644 107.437 72.9811 107.81 72.9811 108.25C72.9811 108.697 73.0611 109.073 73.2211 109.38C73.3878 109.687 73.6078 109.917 73.8811 110.07C74.1544 110.217 74.4544 110.29 74.7811 110.29ZM81.4576 105.42C82.1242 105.42 82.6642 105.623 83.0776 106.03C83.4909 106.43 83.6976 107.01 83.6976 107.77V111H82.7976V107.9C82.7976 107.353 82.6609 106.937 82.3876 106.65C82.1142 106.357 81.7409 106.21 81.2676 106.21C80.7876 106.21 80.4042 106.36 80.1176 106.66C79.8376 106.96 79.6976 107.397 79.6976 107.97V111H78.7876V105.52H79.6976V106.3C79.8776 106.02 80.1209 105.803 80.4276 105.65C80.7409 105.497 81.0842 105.42 81.4576 105.42ZM86.0941 103.6V111H85.1841V103.6H86.0941ZM92.365 105.52L89.065 113.58H88.125L89.205 110.94L86.995 105.52H88.005L89.725 109.96L91.425 105.52H92.365ZM103.246 105.52L101.536 111H100.596L99.2758 106.65L97.9558 111H97.0158L95.2958 105.52H96.2258L97.4858 110.12L98.8458 105.52H99.7758L101.106 110.13L102.346 105.52H103.246ZM106.869 105.42C107.282 105.42 107.656 105.51 107.989 105.69C108.322 105.863 108.582 106.127 108.769 106.48C108.962 106.833 109.059 107.263 109.059 107.77V111H108.159V107.9C108.159 107.353 108.022 106.937 107.749 106.65C107.476 106.357 107.102 106.21 106.629 106.21C106.149 106.21 105.766 106.36 105.479 106.66C105.199 106.96 105.059 107.397 105.059 107.97V111H104.149V103.6H105.059V106.3C105.239 106.02 105.486 105.803 105.799 105.65C106.119 105.497 106.476 105.42 106.869 105.42ZM110.205 108.24C110.205 107.68 110.319 107.19 110.545 106.77C110.772 106.343 111.082 106.013 111.475 105.78C111.875 105.547 112.319 105.43 112.805 105.43C113.285 105.43 113.702 105.533 114.055 105.74C114.409 105.947 114.672 106.207 114.845 106.52V105.52H115.765V111H114.845V109.98C114.665 110.3 114.395 110.567 114.035 110.78C113.682 110.987 113.269 111.09 112.795 111.09C112.309 111.09 111.869 110.97 111.475 110.73C111.082 110.49 110.772 110.153 110.545 109.72C110.319 109.287 110.205 108.793 110.205 108.24ZM114.845 108.25C114.845 107.837 114.762 107.477 114.595 107.17C114.429 106.863 114.202 106.63 113.915 106.47C113.635 106.303 113.325 106.22 112.985 106.22C112.645 106.22 112.335 106.3 112.055 106.46C111.775 106.62 111.552 106.853 111.385 107.16C111.219 107.467 111.135 107.827 111.135 108.24C111.135 108.66 111.219 109.027 111.385 109.34C111.552 109.647 111.775 109.883 112.055 110.05C112.335 110.21 112.645 110.29 112.985 110.29C113.325 110.29 113.635 110.21 113.915 110.05C114.202 109.883 114.429 109.647 114.595 109.34C114.762 109.027 114.845 108.663 114.845 108.25ZM118.413 106.27V109.5C118.413 109.767 118.47 109.957 118.583 110.07C118.697 110.177 118.893 110.23 119.173 110.23H119.843V111H119.023C118.517 111 118.137 110.883 117.883 110.65C117.63 110.417 117.503 110.033 117.503 109.5V106.27H116.793V105.52H117.503V104.14H118.413V105.52H119.843V106.27H118.413ZM121.406 103.04L121.286 105.03H120.656L120.526 103.04H121.406ZM124.478 111.09C124.058 111.09 123.681 111.02 123.348 110.88C123.014 110.733 122.751 110.533 122.558 110.28C122.364 110.02 122.258 109.723 122.238 109.39H123.178C123.204 109.663 123.331 109.887 123.558 110.06C123.791 110.233 124.094 110.32 124.468 110.32C124.814 110.32 125.088 110.243 125.288 110.09C125.488 109.937 125.588 109.743 125.588 109.51C125.588 109.27 125.481 109.093 125.268 108.98C125.054 108.86 124.724 108.743 124.278 108.63C123.871 108.523 123.538 108.417 123.278 108.31C123.024 108.197 122.804 108.033 122.618 107.82C122.438 107.6 122.348 107.313 122.348 106.96C122.348 106.68 122.431 106.423 122.598 106.19C122.764 105.957 123.001 105.773 123.308 105.64C123.614 105.5 123.964 105.43 124.358 105.43C124.964 105.43 125.454 105.583 125.828 105.89C126.201 106.197 126.401 106.617 126.428 107.15H125.518C125.498 106.863 125.381 106.633 125.168 106.46C124.961 106.287 124.681 106.2 124.328 106.2C124.001 106.2 123.741 106.27 123.548 106.41C123.354 106.55 123.258 106.733 123.258 106.96C123.258 107.14 123.314 107.29 123.428 107.41C123.548 107.523 123.694 107.617 123.868 107.69C124.048 107.757 124.294 107.833 124.608 107.92C125.001 108.027 125.321 108.133 125.568 108.24C125.814 108.34 126.024 108.493 126.198 108.7C126.378 108.907 126.471 109.177 126.478 109.51C126.478 109.81 126.394 110.08 126.228 110.32C126.061 110.56 125.824 110.75 125.518 110.89C125.218 111.023 124.871 111.09 124.478 111.09ZM133.098 105.42C133.765 105.42 134.305 105.623 134.718 106.03C135.132 106.43 135.338 107.01 135.338 107.77V111H134.438V107.9C134.438 107.353 134.302 106.937 134.028 106.65C133.755 106.357 133.382 106.21 132.908 106.21C132.428 106.21 132.045 106.36 131.758 106.66C131.478 106.96 131.338 107.397 131.338 107.97V111H130.428V105.52H131.338V106.3C131.518 106.02 131.762 105.803 132.068 105.65C132.382 105.497 132.725 105.42 133.098 105.42ZM141.825 108.05C141.825 108.223 141.815 108.407 141.795 108.6H137.415C137.448 109.14 137.631 109.563 137.965 109.87C138.305 110.17 138.715 110.32 139.195 110.32C139.588 110.32 139.915 110.23 140.175 110.05C140.441 109.863 140.628 109.617 140.735 109.31H141.715C141.568 109.837 141.275 110.267 140.835 110.6C140.395 110.927 139.848 111.09 139.195 111.09C138.675 111.09 138.208 110.973 137.795 110.74C137.388 110.507 137.068 110.177 136.835 109.75C136.601 109.317 136.485 108.817 136.485 108.25C136.485 107.683 136.598 107.187 136.825 106.76C137.051 106.333 137.368 106.007 137.775 105.78C138.188 105.547 138.661 105.43 139.195 105.43C139.715 105.43 140.175 105.543 140.575 105.77C140.975 105.997 141.281 106.31 141.495 106.71C141.715 107.103 141.825 107.55 141.825 108.05ZM140.885 107.86C140.885 107.513 140.808 107.217 140.655 106.97C140.501 106.717 140.291 106.527 140.025 106.4C139.765 106.267 139.475 106.2 139.155 106.2C138.695 106.2 138.301 106.347 137.975 106.64C137.655 106.933 137.471 107.34 137.425 107.86H140.885ZM148.026 108.05C148.026 108.223 148.016 108.407 147.996 108.6H143.616C143.649 109.14 143.833 109.563 144.166 109.87C144.506 110.17 144.916 110.32 145.396 110.32C145.789 110.32 146.116 110.23 146.376 110.05C146.643 109.863 146.829 109.617 146.936 109.31H147.916C147.769 109.837 147.476 110.267 147.036 110.6C146.596 110.927 146.049 111.09 145.396 111.09C144.876 111.09 144.409 110.973 143.996 110.74C143.589 110.507 143.269 110.177 143.036 109.75C142.803 109.317 142.686 108.817 142.686 108.25C142.686 107.683 142.799 107.187 143.026 106.76C143.253 106.333 143.569 106.007 143.976 105.78C144.389 105.547 144.863 105.43 145.396 105.43C145.916 105.43 146.376 105.543 146.776 105.77C147.176 105.997 147.483 106.31 147.696 106.71C147.916 107.103 148.026 107.55 148.026 108.05ZM147.086 107.86C147.086 107.513 147.009 107.217 146.856 106.97C146.703 106.717 146.493 106.527 146.226 106.4C145.966 106.267 145.676 106.2 145.356 106.2C144.896 106.2 144.503 106.347 144.176 106.64C143.856 106.933 143.673 107.34 143.626 107.86H147.086ZM148.887 108.24C148.887 107.68 149 107.19 149.227 106.77C149.454 106.343 149.764 106.013 150.157 105.78C150.557 105.547 151.004 105.43 151.497 105.43C151.924 105.43 152.32 105.53 152.687 105.73C153.054 105.923 153.334 106.18 153.527 106.5V103.6H154.447V111H153.527V109.97C153.347 110.297 153.08 110.567 152.727 110.78C152.374 110.987 151.96 111.09 151.487 111.09C151 111.09 150.557 110.97 150.157 110.73C149.764 110.49 149.454 110.153 149.227 109.72C149 109.287 148.887 108.793 148.887 108.24ZM153.527 108.25C153.527 107.837 153.444 107.477 153.277 107.17C153.11 106.863 152.884 106.63 152.597 106.47C152.317 106.303 152.007 106.22 151.667 106.22C151.327 106.22 151.017 106.3 150.737 106.46C150.457 106.62 150.234 106.853 150.067 107.16C149.9 107.467 149.817 107.827 149.817 108.24C149.817 108.66 149.9 109.027 150.067 109.34C150.234 109.647 150.457 109.883 150.737 110.05C151.017 110.21 151.327 110.29 151.667 110.29C152.007 110.29 152.317 110.21 152.597 110.05C152.884 109.883 153.11 109.647 153.277 109.34C153.444 109.027 153.527 108.663 153.527 108.25ZM160.985 108.05C160.985 108.223 160.975 108.407 160.955 108.6H156.575C156.608 109.14 156.792 109.563 157.125 109.87C157.465 110.17 157.875 110.32 158.355 110.32C158.748 110.32 159.075 110.23 159.335 110.05C159.602 109.863 159.788 109.617 159.895 109.31H160.875C160.728 109.837 160.435 110.267 159.995 110.6C159.555 110.927 159.008 111.09 158.355 111.09C157.835 111.09 157.368 110.973 156.955 110.74C156.548 110.507 156.228 110.177 155.995 109.75C155.762 109.317 155.645 108.817 155.645 108.25C155.645 107.683 155.758 107.187 155.985 106.76C156.212 106.333 156.528 106.007 156.935 105.78C157.348 105.547 157.822 105.43 158.355 105.43C158.875 105.43 159.335 105.543 159.735 105.77C160.135 105.997 160.442 106.31 160.655 106.71C160.875 107.103 160.985 107.55 160.985 108.05ZM160.045 107.86C160.045 107.513 159.968 107.217 159.815 106.97C159.662 106.717 159.452 106.527 159.185 106.4C158.925 106.267 158.635 106.2 158.315 106.2C157.855 106.2 157.462 106.347 157.135 106.64C156.815 106.933 156.632 107.34 156.585 107.86H160.045ZM161.846 108.24C161.846 107.68 161.959 107.19 162.186 106.77C162.413 106.343 162.723 106.013 163.116 105.78C163.516 105.547 163.963 105.43 164.456 105.43C164.883 105.43 165.279 105.53 165.646 105.73C166.013 105.923 166.293 106.18 166.486 106.5V103.6H167.406V111H166.486V109.97C166.306 110.297 166.039 110.567 165.686 110.78C165.333 110.987 164.919 111.09 164.446 111.09C163.959 111.09 163.516 110.97 163.116 110.73C162.723 110.49 162.413 110.153 162.186 109.72C161.959 109.287 161.846 108.793 161.846 108.24ZM166.486 108.25C166.486 107.837 166.403 107.477 166.236 107.17C166.069 106.863 165.843 106.63 165.556 106.47C165.276 106.303 164.966 106.22 164.626 106.22C164.286 106.22 163.976 106.3 163.696 106.46C163.416 106.62 163.193 106.853 163.026 107.16C162.859 107.467 162.776 107.827 162.776 108.24C162.776 108.66 162.859 109.027 163.026 109.34C163.193 109.647 163.416 109.883 163.696 110.05C163.976 110.21 164.286 110.29 164.626 110.29C164.966 110.29 165.276 110.21 165.556 110.05C165.843 109.883 166.069 109.647 166.236 109.34C166.403 109.027 166.486 108.663 166.486 108.25ZM178.91 105.52L177.2 111H176.26L174.94 106.65L173.62 111H172.68L170.96 105.52H171.89L173.15 110.12L174.51 105.52H175.44L176.77 110.13L178.01 105.52H178.91ZM182.533 105.42C182.946 105.42 183.32 105.51 183.653 105.69C183.986 105.863 184.246 106.127 184.433 106.48C184.626 106.833 184.723 107.263 184.723 107.77V111H183.823V107.9C183.823 107.353 183.686 106.937 183.413 106.65C183.14 106.357 182.766 106.21 182.293 106.21C181.813 106.21 181.43 106.36 181.143 106.66C180.863 106.96 180.723 107.397 180.723 107.97V111H179.813V103.6H180.723V106.3C180.903 106.02 181.15 105.803 181.463 105.65C181.783 105.497 182.14 105.42 182.533 105.42ZM186.679 104.63C186.506 104.63 186.359 104.57 186.239 104.45C186.119 104.33 186.059 104.183 186.059 104.01C186.059 103.837 186.119 103.69 186.239 103.57C186.359 103.45 186.506 103.39 186.679 103.39C186.846 103.39 186.986 103.45 187.099 103.57C187.219 103.69 187.279 103.837 187.279 104.01C187.279 104.183 187.219 104.33 187.099 104.45C186.986 104.57 186.846 104.63 186.679 104.63ZM187.119 105.52V111H186.209V105.52H187.119ZM189.58 103.6V111H188.67V103.6H189.58ZM196.131 108.05C196.131 108.223 196.121 108.407 196.101 108.6H191.721C191.755 109.14 191.938 109.563 192.271 109.87C192.611 110.17 193.021 110.32 193.501 110.32C193.895 110.32 194.221 110.23 194.481 110.05C194.748 109.863 194.935 109.617 195.041 109.31H196.021C195.875 109.837 195.581 110.267 195.141 110.6C194.701 110.927 194.155 111.09 193.501 111.09C192.981 111.09 192.515 110.973 192.101 110.74C191.695 110.507 191.375 110.177 191.141 109.75C190.908 109.317 190.791 108.817 190.791 108.25C190.791 107.683 190.905 107.187 191.131 106.76C191.358 106.333 191.675 106.007 192.081 105.78C192.495 105.547 192.968 105.43 193.501 105.43C194.021 105.43 194.481 105.543 194.881 105.77C195.281 105.997 195.588 106.31 195.801 106.71C196.021 107.103 196.131 107.55 196.131 108.05ZM195.191 107.86C195.191 107.513 195.115 107.217 194.961 106.97C194.808 106.717 194.598 106.527 194.331 106.4C194.071 106.267 193.781 106.2 193.461 106.2C193.001 106.2 192.608 106.347 192.281 106.64C191.961 106.933 191.778 107.34 191.731 107.86H195.191ZM203.059 111L200.909 108.58V111H199.999V103.6H200.909V107.95L203.019 105.52H204.289L201.709 108.25L204.299 111H203.059ZM210.145 108.05C210.145 108.223 210.135 108.407 210.115 108.6H205.735C205.768 109.14 205.952 109.563 206.285 109.87C206.625 110.17 207.035 110.32 207.515 110.32C207.908 110.32 208.235 110.23 208.495 110.05C208.762 109.863 208.948 109.617 209.055 109.31H210.035C209.888 109.837 209.595 110.267 209.155 110.6C208.715 110.927 208.168 111.09 207.515 111.09C206.995 111.09 206.528 110.973 206.115 110.74C205.708 110.507 205.388 110.177 205.155 109.75C204.922 109.317 204.805 108.817 204.805 108.25C204.805 107.683 204.918 107.187 205.145 106.76C205.372 106.333 205.688 106.007 206.095 105.78C206.508 105.547 206.982 105.43 207.515 105.43C208.035 105.43 208.495 105.543 208.895 105.77C209.295 105.997 209.602 106.31 209.815 106.71C210.035 107.103 210.145 107.55 210.145 108.05ZM209.205 107.86C209.205 107.513 209.128 107.217 208.975 106.97C208.822 106.717 208.612 106.527 208.345 106.4C208.085 106.267 207.795 106.2 207.475 106.2C207.015 106.2 206.622 106.347 206.295 106.64C205.975 106.933 205.792 107.34 205.745 107.86H209.205ZM216.346 108.05C216.346 108.223 216.336 108.407 216.316 108.6H211.936C211.97 109.14 212.153 109.563 212.486 109.87C212.826 110.17 213.236 110.32 213.716 110.32C214.11 110.32 214.436 110.23 214.696 110.05C214.963 109.863 215.15 109.617 215.256 109.31H216.236C216.09 109.837 215.796 110.267 215.356 110.6C214.916 110.927 214.37 111.09 213.716 111.09C213.196 111.09 212.73 110.973 212.316 110.74C211.91 110.507 211.59 110.177 211.356 109.75C211.123 109.317 211.006 108.817 211.006 108.25C211.006 107.683 211.12 107.187 211.346 106.76C211.573 106.333 211.89 106.007 212.296 105.78C212.71 105.547 213.183 105.43 213.716 105.43C214.236 105.43 214.696 105.543 215.096 105.77C215.496 105.997 215.803 106.31 216.016 106.71C216.236 107.103 216.346 107.55 216.346 108.05ZM215.406 107.86C215.406 107.513 215.33 107.217 215.176 106.97C215.023 106.717 214.813 106.527 214.546 106.4C214.286 106.267 213.996 106.2 213.676 106.2C213.216 106.2 212.823 106.347 212.496 106.64C212.176 106.933 211.993 107.34 211.946 107.86H215.406ZM218.457 106.53C218.637 106.217 218.904 105.957 219.257 105.75C219.617 105.537 220.034 105.43 220.507 105.43C220.994 105.43 221.434 105.547 221.827 105.78C222.227 106.013 222.541 106.343 222.767 106.77C222.994 107.19 223.107 107.68 223.107 108.24C223.107 108.793 222.994 109.287 222.767 109.72C222.541 110.153 222.227 110.49 221.827 110.73C221.434 110.97 220.994 111.09 220.507 111.09C220.041 111.09 219.627 110.987 219.267 110.78C218.914 110.567 218.644 110.303 218.457 109.99V113.6H217.547V105.52H218.457V106.53ZM222.177 108.24C222.177 107.827 222.094 107.467 221.927 107.16C221.761 106.853 221.534 106.62 221.247 106.46C220.967 106.3 220.657 106.22 220.317 106.22C219.984 106.22 219.674 106.303 219.387 106.47C219.107 106.63 218.881 106.867 218.707 107.18C218.541 107.487 218.457 107.843 218.457 108.25C218.457 108.663 218.541 109.027 218.707 109.34C218.881 109.647 219.107 109.883 219.387 110.05C219.674 110.21 219.984 110.29 220.317 110.29C220.657 110.29 220.967 110.21 221.247 110.05C221.534 109.883 221.761 109.647 221.927 109.34C222.094 109.027 222.177 108.66 222.177 108.24ZM224.775 104.63C224.602 104.63 224.455 104.57 224.335 104.45C224.215 104.33 224.155 104.183 224.155 104.01C224.155 103.837 224.215 103.69 224.335 103.57C224.455 103.45 224.602 103.39 224.775 103.39C224.942 103.39 225.082 103.45 225.195 103.57C225.315 103.69 225.375 103.837 225.375 104.01C225.375 104.183 225.315 104.33 225.195 104.45C225.082 104.57 224.942 104.63 224.775 104.63ZM225.215 105.52V111H224.305V105.52H225.215ZM229.436 105.42C230.103 105.42 230.643 105.623 231.056 106.03C231.469 106.43 231.676 107.01 231.676 107.77V111H230.776V107.9C230.776 107.353 230.639 106.937 230.366 106.65C230.093 106.357 229.719 106.21 229.246 106.21C228.766 106.21 228.383 106.36 228.096 106.66C227.816 106.96 227.676 107.397 227.676 107.97V111H226.766V105.52H227.676V106.3C227.856 106.02 228.099 105.803 228.406 105.65C228.719 105.497 229.063 105.42 229.436 105.42ZM235.423 105.43C235.896 105.43 236.309 105.533 236.663 105.74C237.023 105.947 237.289 106.207 237.463 106.52V105.52H238.383V111.12C238.383 111.62 238.276 112.063 238.063 112.45C237.849 112.843 237.543 113.15 237.143 113.37C236.749 113.59 236.289 113.7 235.763 113.7C235.043 113.7 234.443 113.53 233.963 113.19C233.483 112.85 233.199 112.387 233.113 111.8H234.013C234.113 112.133 234.319 112.4 234.633 112.6C234.946 112.807 235.323 112.91 235.763 112.91C236.263 112.91 236.669 112.753 236.983 112.44C237.303 112.127 237.463 111.687 237.463 111.12V109.97C237.283 110.29 237.016 110.557 236.663 110.77C236.309 110.983 235.896 111.09 235.423 111.09C234.936 111.09 234.493 110.97 234.093 110.73C233.699 110.49 233.389 110.153 233.163 109.72C232.936 109.287 232.823 108.793 232.823 108.24C232.823 107.68 232.936 107.19 233.163 106.77C233.389 106.343 233.699 106.013 234.093 105.78C234.493 105.547 234.936 105.43 235.423 105.43ZM237.463 108.25C237.463 107.837 237.379 107.477 237.213 107.17C237.046 106.863 236.819 106.63 236.533 106.47C236.253 106.303 235.943 106.22 235.603 106.22C235.263 106.22 234.953 106.3 234.673 106.46C234.393 106.62 234.169 106.853 234.003 107.16C233.836 107.467 233.753 107.827 233.753 108.24C233.753 108.66 233.836 109.027 234.003 109.34C234.169 109.647 234.393 109.883 234.673 110.05C234.953 110.21 235.263 110.29 235.603 110.29C235.943 110.29 236.253 110.21 236.533 110.05C236.819 109.883 237.046 109.647 237.213 109.34C237.379 109.027 237.463 108.663 237.463 108.25ZM45.49 120.52L42.19 128.58H41.25L42.33 125.94L40.12 120.52H41.13L42.85 124.96L44.55 120.52H45.49ZM48.7948 126.09C48.2814 126.09 47.8148 125.973 47.3948 125.74C46.9814 125.507 46.6548 125.177 46.4148 124.75C46.1814 124.317 46.0648 123.817 46.0648 123.25C46.0648 122.69 46.1848 122.197 46.4248 121.77C46.6714 121.337 47.0048 121.007 47.4248 120.78C47.8448 120.547 48.3148 120.43 48.8348 120.43C49.3548 120.43 49.8248 120.547 50.2448 120.78C50.6648 121.007 50.9948 121.333 51.2348 121.76C51.4814 122.187 51.6048 122.683 51.6048 123.25C51.6048 123.817 51.4781 124.317 51.2248 124.75C50.9781 125.177 50.6414 125.507 50.2148 125.74C49.7881 125.973 49.3148 126.09 48.7948 126.09ZM48.7948 125.29C49.1214 125.29 49.4281 125.213 49.7148 125.06C50.0014 124.907 50.2314 124.677 50.4048 124.37C50.5848 124.063 50.6748 123.69 50.6748 123.25C50.6748 122.81 50.5881 122.437 50.4148 122.13C50.2414 121.823 50.0148 121.597 49.7348 121.45C49.4548 121.297 49.1514 121.22 48.8248 121.22C48.4914 121.22 48.1848 121.297 47.9048 121.45C47.6314 121.597 47.4114 121.823 47.2448 122.13C47.0781 122.437 46.9948 122.81 46.9948 123.25C46.9948 123.697 47.0748 124.073 47.2348 124.38C47.4014 124.687 47.6214 124.917 47.8948 125.07C48.1681 125.217 48.4681 125.29 48.7948 125.29ZM57.6613 120.52V126H56.7513V125.19C56.5779 125.47 56.3346 125.69 56.0213 125.85C55.7146 126.003 55.3746 126.08 55.0013 126.08C54.5746 126.08 54.1913 125.993 53.8513 125.82C53.5113 125.64 53.2413 125.373 53.0413 125.02C52.8479 124.667 52.7513 124.237 52.7513 123.73V120.52H53.6513V123.61C53.6513 124.15 53.7879 124.567 54.0613 124.86C54.3346 125.147 54.7079 125.29 55.1813 125.29C55.6679 125.29 56.0513 125.14 56.3313 124.84C56.6113 124.54 56.7513 124.103 56.7513 123.53V120.52H57.6613ZM60.1077 121.41C60.2677 121.097 60.4944 120.853 60.7877 120.68C61.0877 120.507 61.4511 120.42 61.8777 120.42V121.36H61.6377C60.6177 121.36 60.1077 121.913 60.1077 123.02V126H59.1977V120.52H60.1077V121.41ZM66.5042 121.53C66.6842 121.217 66.9509 120.957 67.3042 120.75C67.6642 120.537 68.0809 120.43 68.5542 120.43C69.0409 120.43 69.4809 120.547 69.8742 120.78C70.2742 121.013 70.5876 121.343 70.8142 121.77C71.0409 122.19 71.1542 122.68 71.1542 123.24C71.1542 123.793 71.0409 124.287 70.8142 124.72C70.5876 125.153 70.2742 125.49 69.8742 125.73C69.4809 125.97 69.0409 126.09 68.5542 126.09C68.0876 126.09 67.6742 125.987 67.3142 125.78C66.9609 125.567 66.6909 125.303 66.5042 124.99V128.6H65.5942V120.52H66.5042V121.53ZM70.2242 123.24C70.2242 122.827 70.1409 122.467 69.9742 122.16C69.8076 121.853 69.5809 121.62 69.2942 121.46C69.0142 121.3 68.7042 121.22 68.3642 121.22C68.0309 121.22 67.7209 121.303 67.4342 121.47C67.1542 121.63 66.9276 121.867 66.7542 122.18C66.5876 122.487 66.5042 122.843 66.5042 123.25C66.5042 123.663 66.5876 124.027 66.7542 124.34C66.9276 124.647 67.1542 124.883 67.4342 125.05C67.7209 125.21 68.0309 125.29 68.3642 125.29C68.7042 125.29 69.0142 125.21 69.2942 125.05C69.5809 124.883 69.8076 124.647 69.9742 124.34C70.1409 124.027 70.2242 123.66 70.2242 123.24ZM77.352 123.05C77.352 123.223 77.342 123.407 77.322 123.6H72.942C72.9754 124.14 73.1587 124.563 73.492 124.87C73.832 125.17 74.242 125.32 74.722 125.32C75.1154 125.32 75.442 125.23 75.702 125.05C75.9687 124.863 76.1554 124.617 76.262 124.31H77.242C77.0954 124.837 76.802 125.267 76.362 125.6C75.922 125.927 75.3754 126.09 74.722 126.09C74.202 126.09 73.7354 125.973 73.322 125.74C72.9154 125.507 72.5954 125.177 72.362 124.75C72.1287 124.317 72.012 123.817 72.012 123.25C72.012 122.683 72.1254 122.187 72.352 121.76C72.5787 121.333 72.8954 121.007 73.302 120.78C73.7154 120.547 74.1887 120.43 74.722 120.43C75.242 120.43 75.702 120.543 76.102 120.77C76.502 120.997 76.8087 121.31 77.022 121.71C77.242 122.103 77.352 122.55 77.352 123.05ZM76.412 122.86C76.412 122.513 76.3354 122.217 76.182 121.97C76.0287 121.717 75.8187 121.527 75.552 121.4C75.292 121.267 75.002 121.2 74.682 121.2C74.222 121.2 73.8287 121.347 73.502 121.64C73.182 121.933 72.9987 122.34 72.952 122.86H76.412ZM79.4632 121.41C79.6232 121.097 79.8499 120.853 80.1432 120.68C80.4432 120.507 80.8065 120.42 81.2332 120.42V121.36H80.9932C79.9732 121.36 79.4632 121.913 79.4632 123.02V126H78.5532V120.52H79.4632V121.41ZM84.2237 126.09C83.8037 126.09 83.427 126.02 83.0937 125.88C82.7603 125.733 82.497 125.533 82.3037 125.28C82.1103 125.02 82.0037 124.723 81.9837 124.39H82.9237C82.9503 124.663 83.077 124.887 83.3037 125.06C83.537 125.233 83.8403 125.32 84.2137 125.32C84.5603 125.32 84.8337 125.243 85.0337 125.09C85.2337 124.937 85.3337 124.743 85.3337 124.51C85.3337 124.27 85.227 124.093 85.0137 123.98C84.8003 123.86 84.4703 123.743 84.0237 123.63C83.617 123.523 83.2837 123.417 83.0237 123.31C82.7703 123.197 82.5503 123.033 82.3637 122.82C82.1837 122.6 82.0937 122.313 82.0937 121.96C82.0937 121.68 82.177 121.423 82.3437 121.19C82.5103 120.957 82.747 120.773 83.0537 120.64C83.3603 120.5 83.7103 120.43 84.1037 120.43C84.7103 120.43 85.2003 120.583 85.5737 120.89C85.947 121.197 86.147 121.617 86.1737 122.15H85.2637C85.2437 121.863 85.127 121.633 84.9137 121.46C84.707 121.287 84.427 121.2 84.0737 121.2C83.747 121.2 83.487 121.27 83.2937 121.41C83.1003 121.55 83.0037 121.733 83.0037 121.96C83.0037 122.14 83.0603 122.29 83.1737 122.41C83.2937 122.523 83.4403 122.617 83.6137 122.69C83.7937 122.757 84.0403 122.833 84.3537 122.92C84.747 123.027 85.067 123.133 85.3137 123.24C85.5603 123.34 85.7703 123.493 85.9437 123.7C86.1237 123.907 86.217 124.177 86.2237 124.51C86.2237 124.81 86.1403 125.08 85.9737 125.32C85.807 125.56 85.5703 125.75 85.2637 125.89C84.9637 126.023 84.617 126.09 84.2237 126.09ZM89.8983 126.09C89.3849 126.09 88.9183 125.973 88.4983 125.74C88.0849 125.507 87.7583 125.177 87.5183 124.75C87.2849 124.317 87.1683 123.817 87.1683 123.25C87.1683 122.69 87.2883 122.197 87.5283 121.77C87.7749 121.337 88.1083 121.007 88.5283 120.78C88.9483 120.547 89.4183 120.43 89.9383 120.43C90.4583 120.43 90.9283 120.547 91.3483 120.78C91.7683 121.007 92.0983 121.333 92.3383 121.76C92.5849 122.187 92.7083 122.683 92.7083 123.25C92.7083 123.817 92.5816 124.317 92.3283 124.75C92.0816 125.177 91.7449 125.507 91.3183 125.74C90.8916 125.973 90.4183 126.09 89.8983 126.09ZM89.8983 125.29C90.2249 125.29 90.5316 125.213 90.8183 125.06C91.1049 124.907 91.3349 124.677 91.5083 124.37C91.6883 124.063 91.7783 123.69 91.7783 123.25C91.7783 122.81 91.6916 122.437 91.5183 122.13C91.3449 121.823 91.1183 121.597 90.8383 121.45C90.5583 121.297 90.2549 121.22 89.9283 121.22C89.5949 121.22 89.2883 121.297 89.0083 121.45C88.7349 121.597 88.5149 121.823 88.3483 122.13C88.1816 122.437 88.0983 122.81 88.0983 123.25C88.0983 123.697 88.1783 124.073 88.3383 124.38C88.5049 124.687 88.7249 124.917 88.9983 125.07C89.2716 125.217 89.5716 125.29 89.8983 125.29ZM96.5748 120.42C97.2414 120.42 97.7814 120.623 98.1948 121.03C98.6081 121.43 98.8148 122.01 98.8148 122.77V126H97.9148V122.9C97.9148 122.353 97.7781 121.937 97.5048 121.65C97.2314 121.357 96.8581 121.21 96.3848 121.21C95.9048 121.21 95.5214 121.36 95.2348 121.66C94.9548 121.96 94.8148 122.397 94.8148 122.97V126H93.9048V120.52H94.8148V121.3C94.9948 121.02 95.2381 120.803 95.5448 120.65C95.8581 120.497 96.2014 120.42 96.5748 120.42ZM99.9613 123.24C99.9613 122.68 100.075 122.19 100.301 121.77C100.528 121.343 100.838 121.013 101.231 120.78C101.631 120.547 102.075 120.43 102.561 120.43C103.041 120.43 103.458 120.533 103.811 120.74C104.165 120.947 104.428 121.207 104.601 121.52V120.52H105.521V126H104.601V124.98C104.421 125.3 104.151 125.567 103.791 125.78C103.438 125.987 103.025 126.09 102.551 126.09C102.065 126.09 101.625 125.97 101.231 125.73C100.838 125.49 100.528 125.153 100.301 124.72C100.075 124.287 99.9613 123.793 99.9613 123.24ZM104.601 123.25C104.601 122.837 104.518 122.477 104.351 122.17C104.185 121.863 103.958 121.63 103.671 121.47C103.391 121.303 103.081 121.22 102.741 121.22C102.401 121.22 102.091 121.3 101.811 121.46C101.531 121.62 101.308 121.853 101.141 122.16C100.975 122.467 100.891 122.827 100.891 123.24C100.891 123.66 100.975 124.027 101.141 124.34C101.308 124.647 101.531 124.883 101.811 125.05C102.091 125.21 102.401 125.29 102.741 125.29C103.081 125.29 103.391 125.21 103.671 125.05C103.958 124.883 104.185 124.647 104.351 124.34C104.518 124.027 104.601 123.663 104.601 123.25ZM107.969 118.6V126H107.059V118.6H107.969ZM112.656 119.63C112.483 119.63 112.336 119.57 112.216 119.45C112.096 119.33 112.036 119.183 112.036 119.01C112.036 118.837 112.096 118.69 112.216 118.57C112.336 118.45 112.483 118.39 112.656 118.39C112.823 118.39 112.963 118.45 113.076 118.57C113.196 118.69 113.256 118.837 113.256 119.01C113.256 119.183 113.196 119.33 113.076 119.45C112.963 119.57 112.823 119.63 112.656 119.63ZM113.096 120.52V126H112.186V120.52H113.096ZM117.317 120.42C117.984 120.42 118.524 120.623 118.937 121.03C119.35 121.43 119.557 122.01 119.557 122.77V126H118.657V122.9C118.657 122.353 118.52 121.937 118.247 121.65C117.974 121.357 117.6 121.21 117.127 121.21C116.647 121.21 116.264 121.36 115.977 121.66C115.697 121.96 115.557 122.397 115.557 122.97V126H114.647V120.52H115.557V121.3C115.737 121.02 115.98 120.803 116.287 120.65C116.6 120.497 116.944 120.42 117.317 120.42ZM123.273 121.27H122.123V126H121.213V121.27H120.503V120.52H121.213V120.13C121.213 119.517 121.37 119.07 121.683 118.79C122.003 118.503 122.513 118.36 123.213 118.36V119.12C122.813 119.12 122.53 119.2 122.363 119.36C122.203 119.513 122.123 119.77 122.123 120.13V120.52H123.273V121.27ZM126.724 126.09C126.211 126.09 125.744 125.973 125.324 125.74C124.911 125.507 124.584 125.177 124.344 124.75C124.111 124.317 123.994 123.817 123.994 123.25C123.994 122.69 124.114 122.197 124.354 121.77C124.601 121.337 124.934 121.007 125.354 120.78C125.774 120.547 126.244 120.43 126.764 120.43C127.284 120.43 127.754 120.547 128.174 120.78C128.594 121.007 128.924 121.333 129.164 121.76C129.411 122.187 129.534 122.683 129.534 123.25C129.534 123.817 129.408 124.317 129.154 124.75C128.908 125.177 128.571 125.507 128.144 125.74C127.718 125.973 127.244 126.09 126.724 126.09ZM126.724 125.29C127.051 125.29 127.358 125.213 127.644 125.06C127.931 124.907 128.161 124.677 128.334 124.37C128.514 124.063 128.604 123.69 128.604 123.25C128.604 122.81 128.518 122.437 128.344 122.13C128.171 121.823 127.944 121.597 127.664 121.45C127.384 121.297 127.081 121.22 126.754 121.22C126.421 121.22 126.114 121.297 125.834 121.45C125.561 121.597 125.341 121.823 125.174 122.13C125.008 122.437 124.924 122.81 124.924 123.25C124.924 123.697 125.004 124.073 125.164 124.38C125.331 124.687 125.551 124.917 125.824 125.07C126.098 125.217 126.398 125.29 126.724 125.29ZM131.641 121.41C131.801 121.097 132.028 120.853 132.321 120.68C132.621 120.507 132.984 120.42 133.411 120.42V121.36H133.171C132.151 121.36 131.641 121.913 131.641 123.02V126H130.731V120.52H131.641V121.41ZM141.051 120.42C141.478 120.42 141.858 120.51 142.191 120.69C142.525 120.863 142.788 121.127 142.981 121.48C143.175 121.833 143.271 122.263 143.271 122.77V126H142.371V122.9C142.371 122.353 142.235 121.937 141.961 121.65C141.695 121.357 141.331 121.21 140.871 121.21C140.398 121.21 140.021 121.363 139.741 121.67C139.461 121.97 139.321 122.407 139.321 122.98V126H138.421V122.9C138.421 122.353 138.285 121.937 138.011 121.65C137.745 121.357 137.381 121.21 136.921 121.21C136.448 121.21 136.071 121.363 135.791 121.67C135.511 121.97 135.371 122.407 135.371 122.98V126H134.461V120.52H135.371V121.31C135.551 121.023 135.791 120.803 136.091 120.65C136.398 120.497 136.735 120.42 137.101 120.42C137.561 120.42 137.968 120.523 138.321 120.73C138.675 120.937 138.938 121.24 139.111 121.64C139.265 121.253 139.518 120.953 139.871 120.74C140.225 120.527 140.618 120.42 141.051 120.42ZM144.424 123.24C144.424 122.68 144.537 122.19 144.764 121.77C144.991 121.343 145.301 121.013 145.694 120.78C146.094 120.547 146.537 120.43 147.024 120.43C147.504 120.43 147.921 120.533 148.274 120.74C148.627 120.947 148.891 121.207 149.064 121.52V120.52H149.984V126H149.064V124.98C148.884 125.3 148.614 125.567 148.254 125.78C147.901 125.987 147.487 126.09 147.014 126.09C146.527 126.09 146.087 125.97 145.694 125.73C145.301 125.49 144.991 125.153 144.764 124.72C144.537 124.287 144.424 123.793 144.424 123.24ZM149.064 123.25C149.064 122.837 148.981 122.477 148.814 122.17C148.647 121.863 148.421 121.63 148.134 121.47C147.854 121.303 147.544 121.22 147.204 121.22C146.864 121.22 146.554 121.3 146.274 121.46C145.994 121.62 145.771 121.853 145.604 122.16C145.437 122.467 145.354 122.827 145.354 123.24C145.354 123.66 145.437 124.027 145.604 124.34C145.771 124.647 145.994 124.883 146.274 125.05C146.554 125.21 146.864 125.29 147.204 125.29C147.544 125.29 147.854 125.21 148.134 125.05C148.421 124.883 148.647 124.647 148.814 124.34C148.981 124.027 149.064 123.663 149.064 123.25ZM152.632 121.27V124.5C152.632 124.767 152.689 124.957 152.802 125.07C152.915 125.177 153.112 125.23 153.392 125.23H154.062V126H153.242C152.735 126 152.355 125.883 152.102 125.65C151.849 125.417 151.722 125.033 151.722 124.5V121.27H151.012V120.52H151.722V119.14H152.632V120.52H154.062V121.27H152.632ZM155.635 119.63C155.461 119.63 155.315 119.57 155.195 119.45C155.075 119.33 155.015 119.183 155.015 119.01C155.015 118.837 155.075 118.69 155.195 118.57C155.315 118.45 155.461 118.39 155.635 118.39C155.801 118.39 155.941 118.45 156.055 118.57C156.175 118.69 156.235 118.837 156.235 119.01C156.235 119.183 156.175 119.33 156.055 119.45C155.941 119.57 155.801 119.63 155.635 119.63ZM156.075 120.52V126H155.165V120.52H156.075ZM160.015 126.09C159.502 126.09 159.035 125.973 158.615 125.74C158.202 125.507 157.875 125.177 157.635 124.75C157.402 124.317 157.285 123.817 157.285 123.25C157.285 122.69 157.405 122.197 157.645 121.77C157.892 121.337 158.225 121.007 158.645 120.78C159.065 120.547 159.535 120.43 160.055 120.43C160.575 120.43 161.045 120.547 161.465 120.78C161.885 121.007 162.215 121.333 162.455 121.76C162.702 122.187 162.825 122.683 162.825 123.25C162.825 123.817 162.699 124.317 162.445 124.75C162.199 125.177 161.862 125.507 161.435 125.74C161.009 125.973 160.535 126.09 160.015 126.09ZM160.015 125.29C160.342 125.29 160.649 125.213 160.935 125.06C161.222 124.907 161.452 124.677 161.625 124.37C161.805 124.063 161.895 123.69 161.895 123.25C161.895 122.81 161.809 122.437 161.635 122.13C161.462 121.823 161.235 121.597 160.955 121.45C160.675 121.297 160.372 121.22 160.045 121.22C159.712 121.22 159.405 121.297 159.125 121.45C158.852 121.597 158.632 121.823 158.465 122.13C158.299 122.437 158.215 122.81 158.215 123.25C158.215 123.697 158.295 124.073 158.455 124.38C158.622 124.687 158.842 124.917 159.115 125.07C159.389 125.217 159.689 125.29 160.015 125.29ZM166.692 120.42C167.359 120.42 167.899 120.623 168.312 121.03C168.725 121.43 168.932 122.01 168.932 122.77V126H168.032V122.9C168.032 122.353 167.895 121.937 167.622 121.65C167.349 121.357 166.975 121.21 166.502 121.21C166.022 121.21 165.639 121.36 165.352 121.66C165.072 121.96 164.932 122.397 164.932 122.97V126H164.022V120.52H164.932V121.3C165.112 121.02 165.355 120.803 165.662 120.65C165.975 120.497 166.319 120.42 166.692 120.42ZM173.994 121.53C174.174 121.217 174.441 120.957 174.794 120.75C175.154 120.537 175.571 120.43 176.044 120.43C176.531 120.43 176.971 120.547 177.364 120.78C177.764 121.013 178.078 121.343 178.304 121.77C178.531 122.19 178.644 122.68 178.644 123.24C178.644 123.793 178.531 124.287 178.304 124.72C178.078 125.153 177.764 125.49 177.364 125.73C176.971 125.97 176.531 126.09 176.044 126.09C175.578 126.09 175.164 125.987 174.804 125.78C174.451 125.567 174.181 125.303 173.994 124.99V128.6H173.084V120.52H173.994V121.53ZM177.714 123.24C177.714 122.827 177.631 122.467 177.464 122.16C177.298 121.853 177.071 121.62 176.784 121.46C176.504 121.3 176.194 121.22 175.854 121.22C175.521 121.22 175.211 121.303 174.924 121.47C174.644 121.63 174.418 121.867 174.244 122.18C174.078 122.487 173.994 122.843 173.994 123.25C173.994 123.663 174.078 124.027 174.244 124.34C174.418 124.647 174.644 124.883 174.924 125.05C175.211 125.21 175.521 125.29 175.854 125.29C176.194 125.29 176.504 125.21 176.784 125.05C177.071 124.883 177.298 124.647 177.464 124.34C177.631 124.027 177.714 123.66 177.714 123.24ZM180.752 121.41C180.912 121.097 181.139 120.853 181.432 120.68C181.732 120.507 182.096 120.42 182.522 120.42V121.36H182.282C181.262 121.36 180.752 121.913 180.752 123.02V126H179.842V120.52H180.752V121.41ZM185.963 126.09C185.449 126.09 184.983 125.973 184.563 125.74C184.149 125.507 183.823 125.177 183.583 124.75C183.349 124.317 183.233 123.817 183.233 123.25C183.233 122.69 183.353 122.197 183.593 121.77C183.839 121.337 184.173 121.007 184.593 120.78C185.013 120.547 185.483 120.43 186.003 120.43C186.523 120.43 186.993 120.547 187.413 120.78C187.833 121.007 188.163 121.333 188.403 121.76C188.649 122.187 188.773 122.683 188.773 123.25C188.773 123.817 188.646 124.317 188.393 124.75C188.146 125.177 187.809 125.507 187.383 125.74C186.956 125.973 186.483 126.09 185.963 126.09ZM185.963 125.29C186.289 125.29 186.596 125.213 186.883 125.06C187.169 124.907 187.399 124.677 187.573 124.37C187.753 124.063 187.843 123.69 187.843 123.25C187.843 122.81 187.756 122.437 187.583 122.13C187.409 121.823 187.183 121.597 186.903 121.45C186.623 121.297 186.319 121.22 185.993 121.22C185.659 121.22 185.353 121.297 185.073 121.45C184.799 121.597 184.579 121.823 184.413 122.13C184.246 122.437 184.163 122.81 184.163 123.25C184.163 123.697 184.243 124.073 184.403 124.38C184.569 124.687 184.789 124.917 185.063 125.07C185.336 125.217 185.636 125.29 185.963 125.29ZM191.079 121.27V124.5C191.079 124.767 191.136 124.957 191.249 125.07C191.363 125.177 191.559 125.23 191.839 125.23H192.509V126H191.689C191.183 126 190.803 125.883 190.549 125.65C190.296 125.417 190.169 125.033 190.169 124.5V121.27H189.459V120.52H190.169V119.14H191.079V120.52H192.509V121.27H191.079ZM198.612 123.05C198.612 123.223 198.602 123.407 198.582 123.6H194.202C194.235 124.14 194.418 124.563 194.752 124.87C195.092 125.17 195.502 125.32 195.982 125.32C196.375 125.32 196.702 125.23 196.962 125.05C197.228 124.863 197.415 124.617 197.522 124.31H198.502C198.355 124.837 198.062 125.267 197.622 125.6C197.182 125.927 196.635 126.09 195.982 126.09C195.462 126.09 194.995 125.973 194.582 125.74C194.175 125.507 193.855 125.177 193.622 124.75C193.388 124.317 193.272 123.817 193.272 123.25C193.272 122.683 193.385 122.187 193.612 121.76C193.838 121.333 194.155 121.007 194.562 120.78C194.975 120.547 195.448 120.43 195.982 120.43C196.502 120.43 196.962 120.543 197.362 120.77C197.762 120.997 198.068 121.31 198.282 121.71C198.502 122.103 198.612 122.55 198.612 123.05ZM197.672 122.86C197.672 122.513 197.595 122.217 197.442 121.97C197.288 121.717 197.078 121.527 196.812 121.4C196.552 121.267 196.262 121.2 195.942 121.2C195.482 121.2 195.088 121.347 194.762 121.64C194.442 121.933 194.258 122.34 194.212 122.86H197.672ZM199.473 123.25C199.473 122.683 199.586 122.19 199.813 121.77C200.04 121.343 200.353 121.013 200.753 120.78C201.16 120.547 201.623 120.43 202.143 120.43C202.816 120.43 203.37 120.593 203.803 120.92C204.243 121.247 204.533 121.7 204.673 122.28H203.693C203.6 121.947 203.416 121.683 203.143 121.49C202.876 121.297 202.543 121.2 202.143 121.2C201.623 121.2 201.203 121.38 200.883 121.74C200.563 122.093 200.403 122.597 200.403 123.25C200.403 123.91 200.563 124.42 200.883 124.78C201.203 125.14 201.623 125.32 202.143 125.32C202.543 125.32 202.876 125.227 203.143 125.04C203.41 124.853 203.593 124.587 203.693 124.24H204.673C204.526 124.8 204.233 125.25 203.793 125.59C203.353 125.923 202.803 126.09 202.143 126.09C201.623 126.09 201.16 125.973 200.753 125.74C200.353 125.507 200.04 125.177 199.813 124.75C199.586 124.323 199.473 123.823 199.473 123.25ZM206.997 121.27V124.5C206.997 124.767 207.054 124.957 207.167 125.07C207.281 125.177 207.477 125.23 207.757 125.23H208.427V126H207.607C207.101 126 206.721 125.883 206.467 125.65C206.214 125.417 206.087 125.033 206.087 124.5V121.27H205.377V120.52H206.087V119.14H206.997V120.52H208.427V121.27H206.997ZM214.53 123.05C214.53 123.223 214.52 123.407 214.5 123.6H210.12C210.153 124.14 210.336 124.563 210.67 124.87C211.01 125.17 211.42 125.32 211.9 125.32C212.293 125.32 212.62 125.23 212.88 125.05C213.146 124.863 213.333 124.617 213.44 124.31H214.42C214.273 124.837 213.98 125.267 213.54 125.6C213.1 125.927 212.553 126.09 211.9 126.09C211.38 126.09 210.913 125.973 210.5 125.74C210.093 125.507 209.773 125.177 209.54 124.75C209.306 124.317 209.19 123.817 209.19 123.25C209.19 122.683 209.303 122.187 209.53 121.76C209.756 121.333 210.073 121.007 210.48 120.78C210.893 120.547 211.366 120.43 211.9 120.43C212.42 120.43 212.88 120.543 213.28 120.77C213.68 120.997 213.986 121.31 214.2 121.71C214.42 122.103 214.53 122.55 214.53 123.05ZM213.59 122.86C213.59 122.513 213.513 122.217 213.36 121.97C213.206 121.717 212.996 121.527 212.73 121.4C212.47 121.267 212.18 121.2 211.86 121.2C211.4 121.2 211.006 121.347 210.68 121.64C210.36 121.933 210.176 122.34 210.13 122.86H213.59ZM215.391 123.24C215.391 122.68 215.504 122.19 215.731 121.77C215.958 121.343 216.268 121.013 216.661 120.78C217.061 120.547 217.508 120.43 218.001 120.43C218.428 120.43 218.824 120.53 219.191 120.73C219.558 120.923 219.838 121.18 220.031 121.5V118.6H220.951V126H220.031V124.97C219.851 125.297 219.584 125.567 219.231 125.78C218.878 125.987 218.464 126.09 217.991 126.09C217.504 126.09 217.061 125.97 216.661 125.73C216.268 125.49 215.958 125.153 215.731 124.72C215.504 124.287 215.391 123.793 215.391 123.24ZM220.031 123.25C220.031 122.837 219.948 122.477 219.781 122.17C219.614 121.863 219.388 121.63 219.101 121.47C218.821 121.303 218.511 121.22 218.171 121.22C217.831 121.22 217.521 121.3 217.241 121.46C216.961 121.62 216.738 121.853 216.571 122.16C216.404 122.467 216.321 122.827 216.321 123.24C216.321 123.66 216.404 124.027 216.571 124.34C216.738 124.647 216.961 124.883 217.241 125.05C217.521 125.21 217.831 125.29 218.171 125.29C218.511 125.29 218.821 125.21 219.101 125.05C219.388 124.883 219.614 124.647 219.781 124.34C219.948 124.027 220.031 123.663 220.031 123.25ZM222.779 126.06C222.605 126.06 222.459 126 222.339 125.88C222.219 125.76 222.159 125.613 222.159 125.44C222.159 125.267 222.219 125.12 222.339 125C222.459 124.88 222.605 124.82 222.779 124.82C222.945 124.82 223.085 124.88 223.199 125C223.319 125.12 223.379 125.267 223.379 125.44C223.379 125.613 223.319 125.76 223.199 125.88C223.085 126 222.945 126.06 222.779 126.06Z" fill="#D0E2FF" fill-opacity="0.7"/>
<path d="M394.143 180.142C415.051 159.234 415.051 125.336 394.143 104.428C373.235 83.5205 339.337 83.5205 318.429 104.428C297.522 125.336 297.522 159.234 318.429 180.142C339.337 201.05 373.235 201.05 394.143 180.142Z" fill="#023FE2"/>
<path d="M393.51 179.509C414.418 158.601 414.418 124.703 393.51 103.795C372.602 82.8877 338.704 82.8877 317.796 103.795C296.888 124.703 296.888 158.601 317.796 179.509C338.704 200.417 372.602 200.417 393.51 179.509Z" fill="#023FE2"/>
<path d="M392.877 178.874C413.785 157.967 413.785 124.068 392.877 103.161C371.969 82.2529 338.071 82.2529 317.163 103.161C296.255 124.068 296.255 157.967 317.163 178.874C338.071 199.782 371.969 199.782 392.877 178.874Z" fill="#023FE2"/>
<path d="M392.244 178.24C413.151 157.332 413.151 123.434 392.244 102.526C371.336 81.6181 337.438 81.6181 316.53 102.526C295.622 123.434 295.622 157.332 316.53 178.24C337.438 199.148 371.336 199.148 392.244 178.24Z" fill="#023FE2"/>
<path d="M391.61 177.609C412.518 156.701 412.518 122.803 391.61 101.895C370.702 80.9873 336.804 80.9873 315.896 101.895C294.989 122.803 294.989 156.701 315.896 177.609C336.804 198.517 370.702 198.517 391.61 177.609Z" fill="#023FE2"/>
<path d="M390.977 176.976C411.885 156.068 411.885 122.17 390.977 101.262C370.069 80.3545 336.171 80.3545 315.263 101.262C294.356 122.17 294.356 156.068 315.263 176.976C336.171 197.884 370.069 197.884 390.977 176.976Z" fill="#023FE2"/>
<path d="M390.344 176.343C411.252 155.435 411.252 121.537 390.344 100.629C369.436 79.7216 335.538 79.7216 314.63 100.629C293.722 121.537 293.722 155.435 314.63 176.343C335.538 197.251 369.436 197.251 390.344 176.343Z" fill="#023FE2"/>
<path d="M389.711 175.708C410.619 154.801 410.619 120.902 389.711 99.9947C368.803 79.0869 334.905 79.0869 313.997 99.9947C293.089 120.902 293.089 154.801 313.997 175.708C334.905 196.616 368.803 196.616 389.711 175.708Z" fill="#023FE2"/>
<path d="M389.078 175.076C409.985 154.168 409.985 120.27 389.078 99.3618C368.17 78.4541 334.272 78.4541 313.364 99.3619C292.456 120.27 292.456 154.168 313.364 175.076C334.272 195.983 368.17 195.983 389.078 175.076Z" fill="#023FE2"/>
<path d="M388.444 174.443C409.352 153.535 409.352 119.637 388.444 98.729C367.536 77.8213 333.638 77.8212 312.73 98.729C291.823 119.637 291.823 153.535 312.73 174.443C333.638 195.351 367.536 195.351 388.444 174.443Z" fill="#023FE2"/>
<path d="M387.811 173.81C408.719 152.902 408.719 119.004 387.811 98.0962C366.903 77.1884 333.005 77.1884 312.097 98.0962C291.189 119.004 291.189 152.902 312.097 173.81C333.005 194.718 366.903 194.718 387.811 173.81Z" fill="#023FE2"/>
<path d="M387.178 173.175C408.086 152.267 408.086 118.369 387.178 97.4615C366.27 76.5537 332.372 76.5537 311.464 97.4615C290.557 118.369 290.557 152.267 311.464 173.175C332.372 194.083 366.27 194.083 387.178 173.175Z" fill="#023FE2"/>
<path d="M386.545 172.542C407.453 151.635 407.453 117.736 386.545 96.8286C365.637 75.9209 331.739 75.9209 310.831 96.8286C289.923 117.736 289.923 151.635 310.831 172.542C331.739 193.45 365.637 193.45 386.545 172.542Z" fill="#023FE2"/>
<path d="M385.911 171.91C406.819 151.002 406.819 117.104 385.911 96.1958C365.003 75.288 331.105 75.288 310.197 96.1958C289.29 117.104 289.29 151.002 310.197 171.91C331.105 192.817 365.003 192.817 385.911 171.91Z" fill="#023FE2"/>
<path d="M385.278 171.277C406.186 150.369 406.186 116.471 385.278 95.563C364.37 74.6552 330.472 74.6552 309.564 95.563C288.657 116.471 288.657 150.369 309.564 171.277C330.472 192.185 364.37 192.185 385.278 171.277Z" fill="#023FE2"/>
<path d="M384.645 170.642C405.553 149.734 405.553 115.836 384.645 94.9283C363.738 74.0205 329.839 74.0205 308.932 94.9283C288.024 115.836 288.024 149.734 308.932 170.642C329.839 191.55 363.738 191.55 384.645 170.642Z" fill="#023FE2"/>
<path d="M384.012 170.009C404.92 149.101 404.92 115.203 384.012 94.2954C363.104 73.3877 329.206 73.3877 308.298 94.2954C287.39 115.203 287.39 149.101 308.298 170.009C329.206 190.917 363.104 190.917 384.012 170.009Z" fill="#023FE2"/>
<path d="M383.379 169.376C404.286 148.469 404.286 114.57 383.379 93.6626C362.471 72.7548 328.573 72.7548 307.665 93.6626C286.757 114.57 286.757 148.469 307.665 169.376C328.573 190.284 362.471 190.284 383.379 169.376Z" fill="#023FE2"/>
<path d="M382.746 168.744C403.653 147.836 403.653 113.938 382.746 93.0298C361.838 72.122 327.939 72.122 307.032 93.0298C286.124 113.938 286.124 147.836 307.032 168.744C327.939 189.651 361.838 189.651 382.746 168.744Z" fill="#023FE2"/>
<path d="M382.112 168.109C403.02 147.201 403.02 113.303 382.112 92.395C361.204 71.4873 327.306 71.4873 306.398 92.395C285.491 113.303 285.491 147.201 306.398 168.109C327.306 189.017 361.204 189.017 382.112 168.109Z" fill="#023FE2"/>
<path d="M381.479 167.476C402.387 146.568 402.387 112.67 381.479 91.7622C360.571 70.8545 326.673 70.8545 305.765 91.7622C284.857 112.67 284.857 146.568 305.765 167.476C326.673 188.384 360.571 188.384 381.479 167.476Z" fill="#023FE2"/>
<path d="M380.846 166.843C401.754 145.935 401.754 112.037 380.846 91.1294C359.938 70.2216 326.04 70.2216 305.132 91.1294C284.225 112.037 284.225 145.935 305.132 166.843C326.04 187.751 359.938 187.751 380.846 166.843Z" fill="#023FE2"/>
<path d="M380.213 166.21C401.121 145.303 401.121 111.404 380.213 90.4966C359.305 69.5888 325.407 69.5888 304.499 90.4966C283.591 111.404 283.591 145.303 304.499 166.21C325.407 187.118 359.305 187.118 380.213 166.21Z" fill="#023FE2"/>
<path d="M379.579 165.576C400.487 144.668 400.487 110.77 379.579 89.8618C358.672 68.9541 324.773 68.9541 303.866 89.8619C282.958 110.77 282.958 144.668 303.866 165.576C324.773 186.483 358.672 186.483 379.579 165.576Z" fill="#023FE2"/>
<path d="M341.091 180.625C370.659 180.625 394.629 156.655 394.629 127.087C394.629 97.5187 370.659 73.5488 341.091 73.5488C311.523 73.5488 287.553 97.5187 287.553 127.087C287.553 156.655 311.523 180.625 341.091 180.625Z" fill="#023FE2"/>
<path d="M378.313 164.31C399.221 143.402 399.221 109.504 378.313 88.5962C357.405 67.6884 323.507 67.6884 302.599 88.5962C281.691 109.504 281.691 143.402 302.599 164.31C323.507 185.218 357.405 185.218 378.313 164.31Z" fill="#023FE2"/>
<path d="M377.68 163.677C398.588 142.769 398.588 108.871 377.68 87.9634C356.772 67.0556 322.874 67.0556 301.966 87.9634C281.058 108.871 281.058 142.769 301.966 163.677C322.874 184.585 356.772 184.585 377.68 163.677Z" fill="#023FE2"/>
<path d="M377.047 163.044C397.954 142.137 397.954 108.238 377.047 87.3306C356.139 66.4228 322.241 66.4228 301.333 87.3306C280.425 108.238 280.425 142.137 301.333 163.044C322.241 183.952 356.139 183.952 377.047 163.044Z" fill="#023FE2"/>
<path d="M376.413 162.41C397.321 141.502 397.321 107.604 376.413 86.6958C355.506 65.788 321.607 65.7881 300.7 86.6958C279.792 107.604 279.792 141.502 300.7 162.41C321.607 183.317 355.506 183.317 376.413 162.41Z" fill="#023FE2"/>
<path d="M375.781 161.777C396.688 140.869 396.688 106.971 375.781 86.063C354.873 65.1552 320.975 65.1552 300.067 86.063C279.159 106.971 279.159 140.869 300.067 161.777C320.975 182.685 354.873 182.685 375.781 161.777Z" fill="#023FE2"/>
<path d="M375.147 161.144C396.055 140.236 396.055 106.338 375.147 85.4302C354.24 64.5224 320.341 64.5224 299.434 85.4302C278.526 106.338 278.526 140.236 299.434 161.144C320.341 182.052 354.24 182.052 375.147 161.144Z" fill="#023FE2"/>
<path d="M374.514 160.511C395.422 139.603 395.422 105.705 374.514 84.7974C353.606 63.8896 319.708 63.8896 298.8 84.7974C277.892 105.705 277.892 139.603 298.8 160.511C319.708 181.419 353.606 181.419 374.514 160.511Z" fill="#023FE2"/>
<path d="M373.881 159.876C394.789 138.969 394.789 105.07 373.881 84.1626C352.973 63.2548 319.075 63.2548 298.167 84.1626C277.259 105.07 277.259 138.969 298.167 159.876C319.075 180.784 352.973 180.784 373.881 159.876Z" fill="#023FE2"/>
<path d="M373.247 159.244C394.155 138.336 394.155 104.438 373.247 83.5298C352.34 62.622 318.441 62.622 297.534 83.5298C276.626 104.438 276.626 138.336 297.534 159.244C318.441 180.151 352.34 180.151 373.247 159.244Z" fill="#023FE2"/>
<path d="M372.614 158.611C393.522 137.703 393.522 103.805 372.614 82.897C351.706 61.9892 317.808 61.9892 296.9 82.897C275.993 103.805 275.993 137.703 296.9 158.611C317.808 179.519 351.706 179.519 372.614 158.611Z" fill="#023FE2"/>
<path d="M371.981 157.978C392.889 137.07 392.889 103.172 371.981 82.2642C351.073 61.3564 317.175 61.3564 296.267 82.2642C275.359 103.172 275.359 137.07 296.267 157.978C317.175 178.886 351.073 178.886 371.981 157.978Z" fill="#023FE2"/>
<path d="M371.348 157.343C392.256 136.435 392.256 102.537 371.348 81.6294C350.44 60.7216 316.542 60.7216 295.634 81.6294C274.726 102.537 274.726 136.435 295.634 157.343C316.542 178.251 350.44 178.251 371.348 157.343Z" fill="#023FE2"/>
<path d="M370.715 156.71C391.623 135.803 391.623 101.904 370.715 80.9966C349.807 60.0888 315.909 60.0888 295.001 80.9966C274.093 101.904 274.093 135.803 295.001 156.71C315.909 177.618 349.807 177.618 370.715 156.71Z" fill="#023FE2"/>
<path d="M370.081 156.078C390.989 135.17 390.989 101.272 370.081 80.3638C349.174 59.456 315.275 59.456 294.368 80.3638C273.46 101.272 273.46 135.17 294.368 156.078C315.275 176.985 349.174 176.985 370.081 156.078Z" fill="#023FE2"/>
<path d="M369.449 155.445C390.356 134.537 390.356 100.639 369.449 79.731C348.541 58.8232 314.643 58.8232 293.735 79.731C272.827 100.639 272.827 134.537 293.735 155.445C314.643 176.353 348.541 176.353 369.449 155.445Z" fill="#023FE2"/>
<path d="M368.815 154.81C389.723 133.902 389.723 100.004 368.815 79.0962C347.907 58.1884 314.009 58.1884 293.101 79.0962C272.193 100.004 272.193 133.902 293.101 154.81C314.009 175.718 347.907 175.718 368.815 154.81Z" fill="#023FE2"/>
<path d="M368.182 154.177C389.089 133.269 389.089 99.3712 368.182 78.4634C347.274 57.5556 313.376 57.5556 292.468 78.4634C271.56 99.3712 271.56 133.269 292.468 154.177C313.376 175.085 347.274 175.085 368.182 154.177Z" fill="#023FE2"/>
<path d="M367.549 153.544C388.457 132.637 388.457 98.7384 367.549 77.8306C346.641 56.9228 312.743 56.9228 291.835 77.8306C270.927 98.7384 270.927 132.637 291.835 153.544C312.743 174.452 346.641 174.452 367.549 153.544Z" fill="#023FE2"/>
<path d="M366.915 152.914C387.823 132.006 387.823 98.1075 366.915 77.1997C346.008 56.292 312.109 56.292 291.202 77.1997C270.294 98.1075 270.294 132.006 291.202 152.914C312.109 173.821 346.008 173.821 366.915 152.914Z" fill="#023FE2"/>
<path d="M366.282 152.281C387.19 131.373 387.19 97.4747 366.282 76.5669C345.374 55.6591 311.476 55.6591 290.568 76.5669C269.661 97.4747 269.661 131.373 290.568 152.281C311.476 173.189 345.374 173.189 366.282 152.281Z" fill="#023FE2"/>
<path d="M365.649 151.648C386.557 130.74 386.557 96.8419 365.649 75.9341C344.741 55.0263 310.843 55.0263 289.935 75.9341C269.027 96.8419 269.027 130.74 289.935 151.648C310.843 172.556 344.741 172.556 365.649 151.648Z" fill="#023FE2"/>
<path d="M365.016 151.011C385.924 130.103 385.924 96.2052 365.016 75.2974C344.108 54.3896 310.21 54.3896 289.302 75.2974C268.394 96.2052 268.394 130.103 289.302 151.011C310.21 171.919 344.108 171.919 365.016 151.011Z" fill="#023FE2"/>
<path d="M364.382 150.38C385.29 129.473 385.29 95.5743 364.382 74.6665C343.475 53.7587 309.576 53.7588 288.669 74.6665C267.761 95.5743 267.761 129.473 288.669 150.38C309.576 171.288 343.475 171.288 364.382 150.38Z" fill="#023FE2"/>
<path d="M363.749 149.748C384.657 128.84 384.657 94.9415 363.749 74.0337C342.842 53.1259 308.943 53.1259 288.036 74.0337C267.128 94.9415 267.128 128.84 288.036 149.748C308.943 170.655 342.842 170.655 363.749 149.748Z" fill="#023FE2"/>
<path d="M363.116 149.115C384.024 128.207 384.024 94.3087 363.116 73.4009C342.208 52.4931 308.31 52.4931 287.402 73.4009C266.495 94.3087 266.495 128.207 287.402 149.115C308.31 170.022 342.208 170.022 363.116 149.115Z" fill="#023FE2"/>
<path d="M362.483 148.482C383.391 127.574 383.391 93.6759 362.483 72.7681C341.576 51.8603 307.677 51.8603 286.77 72.7681C265.862 93.6759 265.862 127.574 286.77 148.482C307.677 169.39 341.576 169.39 362.483 148.482Z" fill="#023FE2"/>
<path d="M361.85 147.847C382.758 126.939 382.758 93.0411 361.85 72.1333C340.942 51.2255 307.044 51.2255 286.136 72.1333C265.228 93.0411 265.228 126.939 286.136 147.847C307.044 168.755 340.942 168.755 361.85 147.847Z" fill="#023FE2"/>
<path d="M361.217 147.214C382.124 126.307 382.124 92.4083 361.217 71.5005C340.309 50.5927 306.411 50.5927 285.503 71.5005C264.595 92.4083 264.595 126.307 285.503 147.214C306.411 168.122 340.309 168.122 361.217 147.214Z" fill="#023FE2"/>
<path d="M360.583 146.582C381.491 125.674 381.491 91.7755 360.583 70.8677C339.676 49.9599 305.777 49.9599 284.87 70.8677C263.962 91.7755 263.962 125.674 284.87 146.582C305.777 167.489 339.676 167.489 360.583 146.582Z" fill="#023FE2"/>
<path d="M359.95 145.949C380.858 125.041 380.858 91.1427 359.95 70.2349C339.042 49.3271 305.144 49.3271 284.236 70.2349C263.329 91.1427 263.329 125.041 284.236 145.949C305.144 166.856 339.042 166.856 359.95 145.949Z" fill="#023FE2"/>
<path d="M321.461 160.996C351.029 160.996 374.999 137.027 374.999 107.458C374.999 77.8898 351.029 53.9199 321.461 53.9199C291.893 53.9199 267.923 77.8898 267.923 107.458C267.923 137.027 291.893 160.996 321.461 160.996Z" fill="#023FE2"/>
<path d="M358.683 144.681C379.591 123.773 379.591 89.8751 358.683 68.9673C337.776 48.0595 303.877 48.0595 282.97 68.9673C262.062 89.8751 262.062 123.773 282.97 144.681C303.877 165.589 337.776 165.589 358.683 144.681Z" fill="#023FE2"/>
<path d="M358.051 144.048C378.958 123.141 378.958 89.2423 358.051 68.3345C337.143 47.4267 303.245 47.4267 282.337 68.3345C261.429 89.2423 261.429 123.141 282.337 144.048C303.245 164.956 337.143 164.956 358.051 144.048Z" fill="#023FE2"/>
<path d="M357.417 143.415C378.325 122.508 378.325 88.6095 357.417 67.7017C336.51 46.7939 302.611 46.7939 281.704 67.7017C260.796 88.6095 260.796 122.508 281.704 143.415C302.611 164.323 336.51 164.323 357.417 143.415Z" fill="#023FE2"/>
<path d="M356.784 142.781C377.692 121.873 377.692 87.9747 356.784 67.0669C335.876 46.1591 301.978 46.1591 281.07 67.0669C260.162 87.9747 260.162 121.873 281.07 142.781C301.978 163.689 335.876 163.689 356.784 142.781Z" fill="#023FE2"/>
<path d="M356.151 142.148C377.059 121.24 377.059 87.3419 356.151 66.4341C335.243 45.5263 301.345 45.5263 280.437 66.4341C259.53 87.3419 259.53 121.24 280.437 142.148C301.345 163.056 335.243 163.056 356.151 142.148Z" fill="#023FE2"/>
<path d="M355.517 141.515C376.425 120.607 376.425 86.7091 355.517 65.8013C334.61 44.8935 300.711 44.8935 279.804 65.8013C258.896 86.7091 258.896 120.607 279.804 141.515C300.711 162.423 334.61 162.423 355.517 141.515Z" fill="#023FE2"/>
<path d="M354.885 140.882C375.792 119.974 375.792 86.0763 354.885 65.1685C333.977 44.2607 300.079 44.2607 279.171 65.1685C258.263 86.0763 258.263 119.975 279.171 140.882C300.079 161.79 333.977 161.79 354.885 140.882Z" fill="#023FE2"/>
<path d="M354.251 140.248C375.159 119.34 375.159 85.4415 354.251 64.5337C333.344 43.6259 299.445 43.6259 278.538 64.5337C257.63 85.4415 257.63 119.34 278.538 140.248C299.445 161.155 333.344 161.155 354.251 140.248Z" fill="#023FE2"/>
<path d="M353.619 139.615C374.526 118.707 374.526 84.8087 353.619 63.9009C332.711 42.9931 298.813 42.9931 277.905 63.9009C256.997 84.8087 256.997 118.707 277.905 139.615C298.813 160.522 332.711 160.523 353.619 139.615Z" fill="#023FE2"/>
<path d="M352.985 138.982C373.893 118.074 373.893 84.1759 352.985 63.2681C332.077 42.3603 298.179 42.3603 277.271 63.2681C256.363 84.1759 256.363 118.074 277.271 138.982C298.179 159.89 332.077 159.89 352.985 138.982Z" fill="#023FE2"/>
<path d="M352.351 138.349C373.259 117.441 373.259 83.5431 352.351 62.6353C331.444 41.7275 297.545 41.7275 276.638 62.6353C255.73 83.5431 255.73 117.441 276.638 138.349C297.545 159.257 331.444 159.257 352.351 138.349Z" fill="#023FE2"/>
<path d="M351.719 137.716C372.626 116.808 372.626 82.9103 351.719 62.0025C330.811 41.0947 296.913 41.0947 276.005 62.0025C255.097 82.9103 255.097 116.808 276.005 137.716C296.913 158.624 330.811 158.624 351.719 137.716Z" fill="#023FE2"/>
<path d="M351.085 137.082C371.993 116.174 371.993 82.2755 351.085 61.3677C330.178 40.4599 296.279 40.4599 275.372 61.3677C254.464 82.2755 254.464 116.174 275.372 137.082C296.279 157.989 330.178 157.989 351.085 137.082Z" fill="#023FE2"/>
<path d="M350.452 136.449C371.36 115.541 371.36 81.6427 350.452 60.7349C329.544 39.8271 295.646 39.8271 274.738 60.7349C253.83 81.6427 253.83 115.541 274.738 136.449C295.646 157.356 329.544 157.356 350.452 136.449Z" fill="#023FE2"/>
<path d="M349.819 135.816C370.727 114.908 370.727 81.0099 349.819 60.1021C328.911 39.1943 295.013 39.1943 274.105 60.1021C253.197 81.0099 253.197 114.908 274.105 135.816C295.013 156.724 328.911 156.724 349.819 135.816Z" fill="#023FE2"/>
<path d="M349.186 135.183C370.094 114.275 370.094 80.3771 349.186 59.4693C328.278 38.5615 294.38 38.5615 273.472 59.4693C252.564 80.3771 252.564 114.275 273.472 135.183C294.38 156.091 328.278 156.091 349.186 135.183Z" fill="#023FE2"/>
<path d="M348.553 134.548C369.46 113.641 369.46 79.7423 348.553 58.8345C327.645 37.9267 293.747 37.9267 272.839 58.8345C251.931 79.7423 251.931 113.641 272.839 134.548C293.747 155.456 327.645 155.456 348.553 134.548Z" fill="#023FE2"/>
<path d="M347.919 133.915C368.827 113.008 368.827 79.1095 347.919 58.2017C327.012 37.2939 293.113 37.2939 272.206 58.2017C251.298 79.1095 251.298 113.008 272.206 133.915C293.113 154.823 327.012 154.823 347.919 133.915Z" fill="#023FE2"/>
<path d="M347.286 133.283C368.194 112.375 368.194 78.4767 347.286 57.5689C326.378 36.6611 292.48 36.6611 271.572 57.5689C250.664 78.4767 250.664 112.375 271.572 133.283C292.48 154.19 326.378 154.19 347.286 133.283Z" fill="#023FE2"/>
<path d="M346.653 132.65C367.561 111.742 367.561 77.8439 346.653 56.9361C325.745 36.0283 291.847 36.0283 270.939 56.9361C250.031 77.8439 250.031 111.742 270.939 132.65C291.847 153.558 325.745 153.558 346.653 132.65Z" fill="#023FE2"/>
<path d="M346.02 132.015C366.928 111.107 366.928 77.2091 346.02 56.3013C325.112 35.3935 291.214 35.3935 270.306 56.3013C249.398 77.2091 249.398 111.107 270.306 132.015C291.214 152.923 325.112 152.923 346.02 132.015Z" fill="#023FE2"/>
<path d="M345.387 131.382C366.294 110.475 366.294 76.5763 345.387 55.6685C324.479 34.7607 290.581 34.7607 269.673 55.6685C248.765 76.5763 248.765 110.475 269.673 131.382C290.581 152.29 324.479 152.29 345.387 131.382Z" fill="#023FE2"/>
<path d="M344.753 130.749C365.661 109.842 365.661 75.9435 344.753 55.0357C323.846 34.1279 289.947 34.1279 269.04 55.0357C248.132 75.9435 248.132 109.842 269.04 130.749C289.947 151.657 323.846 151.657 344.753 130.749Z" fill="#023FE2"/>
<path d="M344.12 130.117C365.028 109.209 365.028 75.3107 344.12 54.4029C323.212 33.4951 289.314 33.4951 268.406 54.4029C247.498 75.3107 247.498 109.209 268.406 130.117C289.314 151.024 323.212 151.024 344.12 130.117Z" fill="#023FE2"/>
<path d="M343.487 129.482C364.395 108.574 364.395 74.6759 343.487 53.7681C322.579 32.8603 288.681 32.8603 267.773 53.7681C246.865 74.6759 246.865 108.574 267.773 129.482C288.681 150.39 322.579 150.39 343.487 129.482Z" fill="#023FE2"/>
<path d="M342.854 128.849C363.762 107.941 363.762 74.0431 342.854 53.1353C321.946 32.2275 288.048 32.2275 267.14 53.1353C246.232 74.0431 246.232 107.941 267.14 128.849C288.048 149.757 321.946 149.757 342.854 128.849Z" fill="#023FE2"/>
<path d="M342.221 128.216C363.129 107.308 363.129 73.4103 342.221 52.5025C321.313 31.5947 287.415 31.5947 266.507 52.5025C245.599 73.4103 245.599 107.308 266.507 128.216C287.415 149.124 321.313 149.124 342.221 128.216Z" fill="#023FE2"/>
<path d="M341.587 127.583C362.495 106.676 362.495 72.7775 341.587 51.8697C320.68 30.9619 286.781 30.9619 265.874 51.8697C244.966 72.7774 244.966 106.676 265.874 127.583C286.781 148.491 320.68 148.491 341.587 127.583Z" fill="#023FE2"/>
<path d="M340.954 126.953C361.862 106.045 361.862 72.1466 340.954 51.2388C320.046 30.331 286.148 30.331 265.24 51.2388C244.332 72.1466 244.332 106.045 265.24 126.953C286.148 147.86 320.046 147.86 340.954 126.953Z" fill="#023FE2"/>
<path d="M340.321 126.316C361.229 105.408 361.229 71.5099 340.321 50.6021C319.413 29.6943 285.515 29.6943 264.607 50.6021C243.7 71.5099 243.7 105.408 264.607 126.316C285.515 147.224 319.413 147.224 340.321 126.316Z" fill="#023FE2"/>
<path d="M301.832 141.366C331.4 141.366 355.37 117.396 355.37 87.8273C355.37 58.259 331.4 34.2891 301.832 34.2891C272.263 34.2891 248.293 58.259 248.293 87.8273C248.293 117.396 272.263 141.366 301.832 141.366Z" fill="#023FE2"/>
<path d="M339.054 125.05C359.962 104.142 359.962 70.2442 339.054 49.3365C318.146 28.4287 284.248 28.4287 263.34 49.3365C242.433 70.2443 242.433 104.142 263.34 125.05C284.248 145.958 318.146 145.958 339.054 125.05Z" fill="#023FE2"/>
<path d="M338.421 124.417C359.329 103.51 359.329 69.6114 338.421 48.7036C317.513 27.7959 283.615 27.7959 262.707 48.7036C241.8 69.6114 241.8 103.51 262.707 124.417C283.615 145.325 317.514 145.325 338.421 124.417Z" fill="#023FE2"/>
<path d="M337.788 123.787C358.696 102.879 358.696 68.9806 337.788 48.0728C316.881 27.165 282.982 27.165 262.075 48.0728C241.167 68.9806 241.167 102.879 262.075 123.787C282.982 144.694 316.881 144.694 337.788 123.787Z" fill="#023FE2"/>
<path d="M337.155 123.154C358.063 102.246 358.063 68.3478 337.155 47.44C316.247 26.5322 282.349 26.5322 261.441 47.44C240.534 68.3478 240.534 102.246 261.441 123.154C282.349 144.062 316.247 144.062 337.155 123.154Z" fill="#023FE2"/>
<path d="M336.522 122.519C357.43 101.611 357.43 67.713 336.522 46.8052C315.614 25.8974 281.716 25.8974 260.808 46.8052C239.9 67.713 239.9 101.611 260.808 122.519C281.716 143.427 315.614 143.427 336.522 122.519Z" fill="#023FE2"/>
<path d="M335.889 121.884C356.796 100.976 356.796 67.0782 335.889 46.1705C314.981 25.2627 281.083 25.2627 260.175 46.1704C239.267 67.0782 239.267 100.976 260.175 121.884C281.083 142.792 314.981 142.792 335.889 121.884Z" fill="#023FE2"/>
<path d="M335.255 121.253C356.163 100.346 356.163 66.4474 335.255 45.5396C314.347 24.6318 280.449 24.6318 259.541 45.5396C238.634 66.4474 238.634 100.346 259.541 121.253C280.449 142.161 314.347 142.161 335.255 121.253Z" fill="#023FE2"/>
<path d="M334.622 120.621C355.53 99.7128 355.53 65.8146 334.622 44.9068C313.714 23.999 279.816 23.999 258.908 44.9068C238 65.8146 238 99.7128 258.908 120.621C279.816 141.528 313.714 141.528 334.622 120.621Z" fill="#023FE2"/>
<path d="M333.989 119.986C354.897 99.078 354.897 65.1798 333.989 44.272C313.081 23.3642 279.183 23.3642 258.275 44.272C237.368 65.1798 237.368 99.078 258.275 119.986C279.183 140.894 313.081 140.894 333.989 119.986Z" fill="#023FE2"/>
<path d="M333.356 119.353C354.264 98.4452 354.264 64.547 333.356 43.6392C312.448 22.7314 278.55 22.7314 257.642 43.6392C236.734 64.547 236.734 98.4452 257.642 119.353C278.55 140.261 312.448 140.261 333.356 119.353Z" fill="#023FE2"/>
<path d="M332.723 118.72C353.63 97.8124 353.63 63.9142 332.723 43.0064C311.815 22.0986 277.917 22.0986 257.009 43.0064C236.101 63.9142 236.101 97.8124 257.009 118.72C277.917 139.628 311.815 139.628 332.723 118.72Z" fill="#023FE2"/>
<path d="M332.089 118.087C352.997 97.1796 352.997 63.2814 332.089 42.3736C311.181 21.4658 277.283 21.4658 256.375 42.3736C235.468 63.2814 235.468 97.1796 256.375 118.087C277.283 138.995 311.181 138.995 332.089 118.087Z" fill="#023FE2"/>
<path d="M331.456 117.453C352.364 96.5448 352.364 62.6466 331.456 41.7388C310.549 20.831 276.65 20.831 255.743 41.7388C234.835 62.6466 234.835 96.5448 255.743 117.453C276.65 138.36 310.549 138.36 331.456 117.453Z" fill="#023FE2"/>
<path d="M330.823 116.82C351.73 95.912 351.73 62.0138 330.823 41.106C309.915 20.1982 276.017 20.1982 255.109 41.106C234.201 62.0138 234.201 95.912 255.109 116.82C276.017 137.728 309.915 137.728 330.823 116.82Z" fill="#023FE2"/>
<path d="M330.189 116.187C351.097 95.2792 351.097 61.381 330.189 40.4732C309.282 19.5654 275.383 19.5654 254.476 40.4732C233.568 61.381 233.568 95.2792 254.476 116.187C275.383 137.095 309.282 137.095 330.189 116.187Z" fill="#023FE2"/>
<path d="M329.557 115.554C350.464 94.6464 350.464 60.7482 329.557 39.8404C308.649 18.9326 274.751 18.9326 253.843 39.8404C232.935 60.7482 232.935 94.6464 253.843 115.554C274.751 136.462 308.649 136.462 329.557 115.554Z" fill="#023FE2"/>
<path d="M328.923 114.919C349.831 94.0116 349.831 60.1134 328.923 39.2056C308.016 18.2978 274.117 18.2978 253.21 39.2056C232.302 60.1134 232.302 94.0116 253.21 114.919C274.117 135.827 308.016 135.827 328.923 114.919Z" fill="#023FE2"/>
<path d="M328.29 114.287C349.198 93.3788 349.198 59.4806 328.29 38.5728C307.383 17.665 273.484 17.665 252.577 38.5728C231.669 59.4806 231.669 93.3788 252.577 114.287C273.484 135.194 307.383 135.194 328.29 114.287Z" fill="#023FE2"/>
<path d="M327.657 113.654C348.564 92.746 348.564 58.8478 327.657 37.94C306.749 17.0322 272.851 17.0322 251.943 37.94C231.035 58.8478 231.035 92.746 251.943 113.654C272.851 134.562 306.749 134.562 327.657 113.654Z" fill="#023FE2"/>
<path d="M327.024 113.021C347.932 92.1132 347.932 58.215 327.024 37.3072C306.116 16.3994 272.218 16.3994 251.31 37.3072C230.402 58.2149 230.402 92.1132 251.31 113.021C272.218 133.929 306.116 133.929 327.024 113.021Z" fill="#023FE2"/>
<path d="M326.391 112.386C347.298 91.4784 347.298 57.5802 326.391 36.6724C305.483 15.7646 271.585 15.7646 250.677 36.6724C229.769 57.5802 229.769 91.4784 250.677 112.386C271.585 133.294 305.483 133.294 326.391 112.386Z" fill="#023FE2"/>
<path d="M325.757 111.753C346.665 90.8456 346.665 56.9474 325.757 36.0396C304.849 15.1318 270.951 15.1318 250.043 36.0396C229.136 56.9474 229.136 90.8456 250.043 111.753C270.951 132.661 304.849 132.661 325.757 111.753Z" fill="#023FE2"/>
<path d="M325.124 111.121C346.032 90.2128 346.032 56.3146 325.124 35.4068C304.216 14.499 270.318 14.499 249.41 35.4068C228.502 56.3146 228.502 90.2128 249.41 111.121C270.318 132.028 304.216 132.028 325.124 111.121Z" fill="#023FE2"/>
<path opacity="0.6" d="M325.901 111.901C347.237 90.5644 347.237 55.9707 325.901 34.634C304.564 13.2973 269.97 13.2973 248.634 34.634C227.297 55.9707 227.297 90.5644 248.634 111.901C269.97 133.238 304.564 133.238 325.901 111.901Z" fill="#5D5D5D"/>
<path d="M287.268 126.803C316.837 126.803 340.806 102.833 340.806 73.2648C340.806 43.6965 316.837 19.7266 287.268 19.7266C257.7 19.7266 233.73 43.6965 233.73 73.2648C233.73 102.833 257.7 126.803 287.268 126.803Z" fill="url(#paint0_linear_1603_4074)"/>
<path d="M287.268 125.53C316.133 125.53 339.532 102.13 339.532 73.2659C339.532 44.4013 316.133 21.002 287.268 21.002C258.404 21.002 235.004 44.4013 235.004 73.2659C235.004 102.13 258.404 125.53 287.268 125.53Z" fill="url(#paint1_linear_1603_4074)"/>
<path d="M309.267 95.267C321.416 83.117 321.416 63.4181 309.267 51.2682C297.117 39.1182 277.418 39.1182 265.268 51.2682C253.118 63.4181 253.118 83.117 265.268 95.267C277.418 107.417 297.117 107.417 309.267 95.267Z" fill="#161717"/>
<path opacity="0.5" d="M301.993 49.8419C288.771 42.205 271.861 46.7329 264.224 59.9555C256.587 73.178 261.115 90.0882 274.337 97.7251C277.757 99.7001 299.126 115.546 309.747 121.68C340.687 107.165 340.753 75.8054 340.753 75.8054C332.847 70.3832 305.414 51.8173 301.993 49.8419Z" fill="#0F1010"/>
<path d="M307.991 93.9895C319.437 82.544 319.437 63.9872 307.991 52.5417C296.546 41.0962 277.989 41.0962 266.543 52.5417C255.098 63.9872 255.098 82.544 266.543 93.9896C277.989 105.435 296.546 105.435 307.991 93.9895Z" fill="#4B7EE7"/>
<path d="M270.849 48.9907C257.441 58.0586 253.923 76.2791 262.991 89.687C272.059 103.095 290.279 106.613 303.687 97.5456C317.095 88.4777 320.613 70.2572 311.546 56.8493C302.478 43.4414 284.257 39.9228 270.849 48.9907ZM303.538 97.3251C290.449 106.177 272.663 102.743 263.811 89.6536C254.959 76.565 258.393 58.7781 271.482 49.9264C284.571 41.0743 302.358 44.509 311.21 57.598C320.061 70.6866 316.627 88.4734 303.538 97.3251Z" fill="#1863CC"/>
<path d="M302.856 96.3152C289.881 105.09 272.303 101.823 263.328 89.0653C263.421 89.207 263.512 89.3491 263.607 89.4899C272.483 102.614 290.318 106.058 303.442 97.182C316.567 88.3059 320.01 70.4711 311.135 57.347C311.039 57.2062 310.942 57.0684 310.845 56.9297C319.343 70.0093 315.831 87.5402 302.856 96.3152Z" fill="#90B9FF"/>
<path d="M287.268 100.488C302.302 100.488 314.489 88.3012 314.489 73.2676C314.489 58.234 302.302 46.0469 287.268 46.0469C272.234 46.0469 260.047 58.234 260.047 73.2676C260.047 88.3012 272.234 100.488 287.268 100.488Z" fill="url(#paint2_linear_1603_4074)"/>
<path d="M299.049 92.0774C309.437 85.5729 312.586 71.8783 306.081 61.4896C299.577 51.101 285.882 47.9523 275.494 54.4569C265.105 60.9614 261.956 74.656 268.461 85.0446C274.965 95.4333 288.66 98.582 299.049 92.0774Z" fill="#3C3C3C"/>
<path d="M299.049 92.0774C309.437 85.5729 312.586 71.8783 306.081 61.4896C299.577 51.101 285.882 47.9523 275.494 54.4569C265.105 60.9614 261.956 74.656 268.461 85.0446C274.965 95.4333 288.66 98.582 299.049 92.0774Z" fill="#3C3C3C"/>
<path d="M299.701 91.6496C289.622 98.4655 275.957 95.8865 269.041 85.9176C269.09 85.9925 269.135 86.0691 269.186 86.1436C276.052 96.2961 289.848 98.9603 300.001 92.0939C310.154 85.2275 312.818 71.4314 305.951 61.2789C305.901 61.2044 305.847 61.1342 305.796 61.0605C312.473 71.1908 309.779 84.8337 299.701 91.6496Z" fill="#B7B8BC"/>
<path opacity="0.4" d="M266.848 78.7271C264.02 67.4021 270.908 55.929 282.233 53.1008C293.558 50.2727 305.031 57.1609 307.859 68.4859C308.553 71.2627 308.659 74.0476 308.262 76.7122C308.78 73.8259 308.715 70.788 307.959 67.7582C305.094 56.2868 293.473 49.3096 282.002 52.1741C270.53 55.0386 263.553 66.6598 266.418 78.1312C267.174 81.1605 268.546 83.8723 270.36 86.1765C268.757 84.0114 267.541 81.5038 266.848 78.7271Z" fill="white"/>
<path opacity="0.9" d="M265.337 88.9235C257.081 76.7155 260.477 59.9598 272.685 51.7035C284.893 43.4472 301.482 46.6508 309.739 58.8588C312.794 63.3769 313.649 66.536 313.649 66.536C312.894 63.5756 311.626 60.693 309.816 58.0169C301.394 45.564 284.471 42.2962 272.019 50.7181C259.566 59.1401 256.298 76.0627 264.72 88.5156C266.536 91.2008 268.748 93.4566 271.224 95.2622C268.533 93.0192 267.015 91.4045 265.337 88.9235Z" fill="white"/>
<path opacity="0.4" d="M302.078 95.1659C292.223 101.83 279.574 101.169 270.55 94.4347C269.9 94.026 269.263 93.5911 268.645 93.1266C277.713 101.647 291.777 103.08 302.518 95.8161C313.258 88.5524 317.164 74.9661 312.633 63.377C312.834 64.1243 313.001 64.8768 313.138 65.6324C316.028 76.5156 311.932 88.5015 302.078 95.1659Z" fill="#303030"/>
<path d="M277.105 72.9354L275.936 56.5098L290.746 63.7105L277.105 72.9354Z" fill="#4B7EE7"/>
<path d="M276.744 57.7015L289.975 63.681L290.056 63.6257L276.192 56.8848L277.286 72.2621L277.368 72.2069L276.744 57.7015Z" fill="#90B9FF"/>
<path d="M277.385 72.2121L277.105 72.936L290.746 63.711L289.97 63.7012L277.385 72.2121Z" fill="#2C6CD3"/>
<path d="M251.243 89.9841C242.786 72.3526 248.28 51.5736 263.308 40.2075C263.125 40.0042 262.942 39.8013 262.761 39.5963C262.463 39.5753 262.159 39.4383 261.899 39.1387C260.68 37.7342 259.467 36.287 258.518 34.6809C257.921 34.1373 257.29 33.6258 256.618 33.1387C238.636 47.3569 232.189 72.6556 242.509 94.173C245.57 100.554 249.821 105.983 254.859 110.344C255.687 109.371 256.577 108.477 257.431 107.515C258.406 106.417 259.339 105.28 260.319 104.19C260.538 103.882 260.762 103.58 260.974 103.267C261.04 103.17 261.113 103.091 261.188 103.023C257.13 99.507 253.709 95.1263 251.243 89.9841Z" fill="#EDA11A"/>
<path d="M312.212 104.702C310.074 106.327 307.75 107.768 305.236 108.973C289.906 116.326 272.196 113.13 260.363 102.293L253.79 109.384C253.786 109.388 253.781 109.391 253.777 109.394C268.442 122.852 290.41 126.827 309.425 117.706C312.478 116.241 315.311 114.503 317.917 112.539C317.866 112.462 317.818 112.384 317.767 112.307C316.929 111.117 312.212 104.702 312.212 104.702Z" fill="#820D0D"/>
<path d="M266.042 27.2586C262.572 28.9233 259.381 30.9381 256.49 33.2397C257.782 34.9032 262.289 40.8527 262.399 40.9216C264.765 39.0223 267.38 37.3589 270.231 35.9917C284.908 28.9519 301.765 31.5815 313.559 41.3282L320.42 34.4456C305.777 21.8981 284.516 18.3979 266.042 27.2586Z" fill="#317F1D"/>
<path d="M313.091 105.242L318.033 111.889L316.965 112.683L312.022 106.036L313.091 105.242Z" fill="white"/>
<path d="M290.343 115.886L290.373 114.7L294.127 114.305L294.783 120.543L293.307 120.698L292.774 115.63L290.343 115.886Z" fill="white"/>
<path d="M284.368 117.803C284.403 115.748 285.483 114.527 287.257 114.557C289.022 114.587 290.06 115.809 290.024 117.9C289.989 119.945 288.909 121.167 287.144 121.137C285.371 121.106 284.332 119.894 284.368 117.803ZM288.468 117.873C288.495 116.28 288.053 115.657 287.238 115.643C286.388 115.629 285.952 116.237 285.924 117.83C285.897 119.413 286.321 120.036 287.163 120.05C287.995 120.065 288.441 119.457 288.468 117.873Z" fill="white"/>
<path d="M279.893 113.949L279.836 118.798L281.471 114.225L283.325 114.548L283.262 120.904L281.8 120.648L282.071 115.469L280.33 120.391L278.796 120.123L278.88 114.911L277.272 119.857L275.881 119.614L277.994 113.617L279.893 113.949Z" fill="white"/>
<path d="M260.544 103.409L254.95 109.515L253.969 108.616L259.563 102.51L260.544 103.409Z" fill="white"/>
<path d="M246.731 81.9854L244.394 82.737C243.559 83.0123 242.691 83.2687 241.928 83.43L246.383 83.2156L246.752 84.5687L242.826 86.7124C243.7 86.408 244.45 86.2025 245.306 86.0061L247.683 85.468L248.066 86.8647L241.892 88.0663L241.398 86.2591L245.252 84.2288L240.917 84.504L240.421 82.6887L246.346 80.5801L246.731 81.9854Z" fill="white"/>
<path d="M240.933 79.0321L242.423 78.8364L242.172 76.9248L243.204 76.7895L243.455 78.7012L245.044 78.4931L244.736 76.15L245.796 76.0117L246.296 79.8261L240.076 80.642L239.576 76.8272L240.646 76.8417L240.933 79.0321Z" fill="white"/>
<path d="M239.437 73.5822C239.421 71.9072 239.923 70.3183 242.513 70.2952C245.038 70.2721 245.695 71.7869 245.709 73.3887L245.726 75.2717L239.452 75.3287L239.437 73.5822ZM244.635 73.7979L244.631 73.3082C244.622 72.4119 244.192 71.8186 242.526 71.834C240.842 71.8486 240.504 72.4949 240.511 73.3639L240.516 73.8347L244.635 73.7979Z" fill="white"/>
<path d="M245.802 69.5355L239.552 68.9867L239.682 67.5078L245.932 68.0566L245.802 69.5355Z" fill="white"/>
<path d="M244.831 61.9122C246.076 62.1451 246.879 63.1232 246.578 64.7335C246.277 66.3443 245.23 66.9684 243.931 66.7257L239.811 65.9565L240.084 64.4968L244.141 65.2545C244.933 65.403 245.369 65.1894 245.492 64.531C245.617 63.8633 245.287 63.5071 244.495 63.3599L240.438 62.6018L240.711 61.1426L244.831 61.9122Z" fill="white"/>
<path d="M248.601 56.981L246.246 56.2846C245.401 56.041 244.539 55.7632 243.818 55.467L247.619 57.8016L247.162 59.1281L242.709 58.6851C243.602 58.9265 244.339 59.1799 245.157 59.5001L247.424 60.396L246.952 61.7658L241.174 59.2771L241.784 57.5049L246.114 58.0011L242.377 55.7846L242.991 54.0039L249.076 55.6027L248.601 56.981Z" fill="white"/>
<path d="M261.563 40.6845L256.468 34.1528L257.517 33.334L262.613 39.8661L261.563 40.6845Z" fill="white"/>
<path d="M279.15 28.413L279.616 31.0618L278.153 31.3191L277.066 25.1384L278.529 24.8807L278.949 27.2714L280.804 26.9448L280.384 24.5541L281.846 24.2969L282.934 30.4784L281.471 30.7356L281.005 28.0864L279.15 28.413Z" fill="white"/>
<path d="M283.973 30.4333L283.505 24.1773L284.986 24.0664L285.453 30.3233L283.973 30.4333Z" fill="white"/>
<path d="M291.403 24.6646L290.617 25.4535C290.216 25.1008 289.876 24.939 289.369 24.9283C288.491 24.9094 287.826 25.5468 287.792 27.1036C287.756 28.7508 288.178 29.3218 289.047 29.3406C289.355 29.3471 289.637 29.2901 289.903 29.1506L289.934 27.7303L289.119 27.7123L288.997 26.6593L291.395 26.7111L291.328 29.8158C290.676 30.2182 289.856 30.445 289.032 30.427C287.141 30.3855 286.206 29.2161 286.253 27.0707C286.299 24.9437 287.655 23.8145 289.321 23.8504C290.225 23.8693 290.897 24.2006 291.403 24.6646Z" fill="white"/>
<path d="M293.988 27.9736L293.571 30.6301L292.104 30.3994L293.078 24.2012L294.545 24.4323L294.168 26.8294L296.029 27.1218L296.406 24.7251L297.873 24.9554L296.898 31.1536L295.431 30.9229L295.849 28.2664L293.988 27.9736Z" fill="white"/>
<path d="M314.193 40.6055L319.563 34.2969L320.576 35.1594L315.206 41.468L314.193 40.6055Z" fill="white"/>
<path d="M278.421 77.1166L281.247 81.2948L280.038 82.112L277.213 77.9338L275.893 78.8258L275.265 77.8969L279.171 75.2559L279.681 76.2639L278.421 77.1166Z" fill="white"/>
<path d="M282.999 77.2622L284.32 79.2154L283.112 80.0325L279.658 74.9254L281.331 73.7941C282.716 72.8575 283.765 72.8678 284.482 73.9285C284.937 74.5988 284.893 75.2191 284.434 75.9699L287.201 77.2665L285.838 78.1881L283.471 76.9428L282.999 77.2622ZM282.945 76.0863C283.476 75.7272 283.601 75.309 283.237 74.7713C282.904 74.2778 282.471 74.2581 281.874 74.6618L281.439 74.9558L282.436 76.43L282.945 76.0863Z" fill="white"/>
<path d="M290.425 72.6171C291.124 73.6491 290.994 74.8858 289.66 75.7877C288.326 76.6896 287.167 76.3887 286.439 75.313L284.132 71.9009L285.34 71.0838L287.613 74.4444C288.056 75.1002 288.506 75.2577 289.051 74.8888C289.604 74.5151 289.625 74.0391 289.182 73.3829L286.909 70.0222L288.118 69.2051L290.425 72.6171Z" fill="white"/>
<path d="M292.774 66.8295L292.651 67.8692C292.11 67.8161 291.661 67.915 291.249 68.1945C290.829 68.4783 290.683 68.8349 290.903 69.1594C291.122 69.4838 291.403 69.4868 292.368 69.1987C293.543 68.8554 294.365 68.8794 295.002 69.8228C295.645 70.7735 295.343 71.9451 294.068 72.8077C293.183 73.4056 292.33 73.5101 291.636 73.3881L291.796 72.2919C292.376 72.3715 292.914 72.2769 293.422 71.9327C293.923 71.5941 294.073 71.1485 293.809 70.7586C293.555 70.3823 293.249 70.3425 292.35 70.6177C290.969 71.0368 290.23 70.8493 289.717 70.0904C289.109 69.191 289.501 68.0879 290.562 67.3701C291.343 66.8419 292.036 66.7062 292.774 66.8295Z" fill="white"/>
<path d="M295.888 65.3022L298.714 69.4804L297.506 70.298L294.68 66.1197L293.361 67.0118L292.733 66.0829L296.638 63.4414L297.148 64.4499L295.888 65.3022Z" fill="white"/>
</g>
<defs>
<linearGradient id="paint0_linear_1603_4074" x1="287.268" y1="16.3797" x2="287.268" y2="123.185" gradientUnits="userSpaceOnUse">
<stop stop-color="white"/>
<stop offset="0.3165" stop-color="#A6A6A6"/>
<stop offset="0.6508" stop-color="#4D4D4D"/>
<stop offset="0.8866" stop-color="#161616"/>
<stop offset="1"/>
</linearGradient>
<linearGradient id="paint1_linear_1603_4074" x1="262.338" y1="25.3525" x2="304.317" y2="106.033" gradientUnits="userSpaceOnUse">
<stop offset="0.35" stop-color="#9B9EA4"/>
<stop offset="0.572" stop-color="#6B6E72"/>
<stop offset="0.8616" stop-color="#323436"/>
<stop offset="1" stop-color="#1C1D1E"/>
</linearGradient>
<linearGradient id="paint2_linear_1603_4074" x1="263.842" y1="59.7385" x2="310.595" y2="86.7397" gradientUnits="userSpaceOnUse">
<stop stop-color="white"/>
<stop offset="0.2016" stop-color="#9B9EA4"/>
<stop offset="0.2767" stop-color="#E2E2E4"/>
<stop offset="0.3399" stop-color="#92959C"/>
<stop offset="0.4466" stop-color="#ABAEB3"/>
<stop offset="0.5257" stop-color="#CCCED1"/>
<stop offset="0.6047" stop-color="#7A7B7E"/>
<stop offset="0.6877" stop-color="#D8D9DB"/>
<stop offset="0.7391" stop-color="#A0A3A9"/>
<stop offset="0.8458" stop-color="#A0A3A9"/>
<stop offset="0.8972" stop-color="#E6E6E8"/>
<stop offset="0.9565" stop-color="#A6A9AE"/>
<stop offset="0.996" stop-color="#747578"/>
</linearGradient>
<clipPath id="clip0_1603_4074">
<rect width="361" height="145" rx="12" fill="white"/>
</clipPath>
</defs>
</svg>
