<svg width="361" height="145" viewBox="0 0 361 145" fill="none" xmlns="http://www.w3.org/2000/svg">
<g clip-path="url(#clip0_1603_3993)">
<rect width="361" height="145" rx="12" fill="#7B0000"/>
<g opacity="0.16">
<path fill-rule="evenodd" clip-rule="evenodd" d="M5.20947 124.664C5.20947 116.747 11.6278 110.329 19.5452 110.329C25.6849 110.329 30.9222 114.189 32.965 119.614L23.854 121.194C23.6528 120.76 23.0101 120.085 22.6224 119.739C21.0046 118.292 18.5182 117.756 16.4019 118.43C11.8814 119.872 10.4702 125.278 13.1998 128.69C13.9274 129.6 14.9076 130.422 16.4019 130.899C17.8949 131.375 19.6144 131.241 20.9571 130.644C21.7326 130.3 22.5801 129.718 23.1224 129.098C23.3685 128.816 23.6882 128.491 23.8531 128.139L32.9635 129.718C30.9197 135.142 25.6834 139 19.5452 139C11.6278 139 5.20947 132.582 5.20947 124.664Z" fill="white"/>
<path d="M20.8313 101.92H31V105.552H21.1371C15.3647 105.552 11.5036 101.691 11.5036 95.7271C11.5036 89.9547 15.3647 86.0936 21.1371 86.0936H31V89.7635H20.8313C17.2761 89.7635 14.9059 92.2101 14.9059 95.8801C14.9059 99.4353 17.3143 101.92 20.8313 101.92ZM31 72.2228C31 79.9449 27.7506 83.0031 20.4872 83.0031H7.91017V79.3714H12.1153V72.2228H15.3647V79.3714H21.0224C25.7245 79.3714 27.5212 77.6129 27.5212 72.2228H31ZM5.96053 69.2649C4.699 69.2649 3.85798 68.3856 3.85798 67.0859C3.85798 65.7479 4.699 64.8686 5.96053 64.8686C7.22206 64.8686 8.06308 65.7479 8.06308 67.0859C8.06308 68.3856 7.22206 69.2649 5.96053 69.2649ZM31 68.8826H11.8859V65.2509H31V68.8826ZM31 61.7238H11.8859V58.0921H27.4448C27.4448 56.3336 27.6741 48.2292 16.7791 48.2292H11.8859V44.5593H16.4351C25.801 44.5593 31 49.7201 31 57.5569V61.7238ZM21.8635 22.0999V38.194C25.4951 38.1175 28.0564 35.5945 28.0564 31.6952C28.0564 28.5987 26.3744 26.4962 23.7749 25.8081V22.0999C28.5534 22.941 31.3823 26.4962 31.3823 31.7717C31.3823 37.8117 27.4065 41.8257 21.443 41.8257C15.4794 41.8257 11.5036 37.8117 11.5036 31.7717C11.5036 25.9992 15.0206 22.0617 20.7931 22.0999H21.8635ZM19.0728 37.9264V25.8845C16.2821 26.4579 14.6001 28.5987 14.6001 31.7334C14.6001 34.8681 16.4733 37.1618 19.0728 37.9264ZM21.1754 15.3093H31V18.941H21.6341C15.4411 18.941 11.5801 15.0035 11.5801 8.92524H15.0971C15.0971 12.7481 17.429 15.3093 21.1754 15.3093Z" fill="white"/>
</g>
<path d="M55.28 27.96L50.42 37.36V42H47V37.36L42.14 27.96H46.02L48.74 33.84L51.44 27.96H55.28ZM61.738 42.16C60.6446 42.16 59.658 41.9267 58.778 41.46C57.9113 40.9933 57.2246 40.3267 56.718 39.46C56.2246 38.5933 55.978 37.58 55.978 36.42C55.978 35.2733 56.2313 34.2667 56.738 33.4C57.2446 32.52 57.938 31.8467 58.818 31.38C59.698 30.9133 60.6846 30.68 61.778 30.68C62.8713 30.68 63.858 30.9133 64.738 31.38C65.618 31.8467 66.3113 32.52 66.818 33.4C67.3246 34.2667 67.578 35.2733 67.578 36.42C67.578 37.5667 67.318 38.58 66.798 39.46C66.2913 40.3267 65.5913 40.9933 64.698 41.46C63.818 41.9267 62.8313 42.16 61.738 42.16ZM61.738 39.2C62.3913 39.2 62.9446 38.96 63.398 38.48C63.8646 38 64.098 37.3133 64.098 36.42C64.098 35.5267 63.8713 34.84 63.418 34.36C62.978 33.88 62.4313 33.64 61.778 33.64C61.1113 33.64 60.558 33.88 60.118 34.36C59.678 34.8267 59.458 35.5133 59.458 36.42C59.458 37.3133 59.6713 38 60.098 38.48C60.538 38.96 61.0846 39.2 61.738 39.2ZM80.4123 30.84V42H76.9923V40.48C76.6457 40.9733 76.1723 41.3733 75.5723 41.68C74.9857 41.9733 74.3323 42.12 73.6123 42.12C72.759 42.12 72.0057 41.9333 71.3523 41.56C70.699 41.1733 70.1923 40.62 69.8323 39.9C69.4723 39.18 69.2923 38.3333 69.2923 37.36V30.84H72.6923V36.9C72.6923 37.6467 72.8857 38.2267 73.2723 38.64C73.659 39.0533 74.179 39.26 74.8323 39.26C75.499 39.26 76.0257 39.0533 76.4123 38.64C76.799 38.2267 76.9923 37.6467 76.9923 36.9V30.84H80.4123ZM86.2889 32.7C86.6889 32.0867 87.1889 31.6067 87.7889 31.26C88.3889 30.9 89.0556 30.72 89.7889 30.72V34.34H88.8489C87.9956 34.34 87.3556 34.5267 86.9289 34.9C86.5022 35.26 86.2889 35.9 86.2889 36.82V42H82.8689V30.84H86.2889V32.7ZM108.842 27.96L103.862 42H99.5819L94.6019 27.96H98.2419L101.722 38.56L105.222 27.96H108.842ZM120.791 36.24C120.791 36.56 120.771 36.8933 120.731 37.24H112.991C113.045 37.9333 113.265 38.4667 113.651 38.84C114.051 39.2 114.538 39.38 115.111 39.38C115.965 39.38 116.558 39.02 116.891 38.3H120.531C120.345 39.0333 120.005 39.6933 119.511 40.28C119.031 40.8667 118.425 41.3267 117.691 41.66C116.958 41.9933 116.138 42.16 115.231 42.16C114.138 42.16 113.165 41.9267 112.311 41.46C111.458 40.9933 110.791 40.3267 110.311 39.46C109.831 38.5933 109.591 37.58 109.591 36.42C109.591 35.26 109.825 34.2467 110.291 33.38C110.771 32.5133 111.438 31.8467 112.291 31.38C113.145 30.9133 114.125 30.68 115.231 30.68C116.311 30.68 117.271 30.9067 118.111 31.36C118.951 31.8133 119.605 32.46 120.071 33.3C120.551 34.14 120.791 35.12 120.791 36.24ZM117.291 35.34C117.291 34.7533 117.091 34.2867 116.691 33.94C116.291 33.5933 115.791 33.42 115.191 33.42C114.618 33.42 114.131 33.5867 113.731 33.92C113.345 34.2533 113.105 34.7267 113.011 35.34H117.291ZM126.015 32.7C126.415 32.0867 126.915 31.6067 127.515 31.26C128.115 30.9 128.782 30.72 129.515 30.72V34.34H128.575C127.722 34.34 127.082 34.5267 126.655 34.9C126.229 35.26 126.015 35.9 126.015 36.82V42H122.595V30.84H126.015V32.7ZM132.87 29.68C132.27 29.68 131.777 29.5067 131.39 29.16C131.017 28.8 130.83 28.36 130.83 27.84C130.83 27.3067 131.017 26.8667 131.39 26.52C131.777 26.16 132.27 25.98 132.87 25.98C133.457 25.98 133.937 26.16 134.31 26.52C134.697 26.8667 134.89 27.3067 134.89 27.84C134.89 28.36 134.697 28.8 134.31 29.16C133.937 29.5067 133.457 29.68 132.87 29.68ZM134.57 30.84V42H131.15V30.84H134.57ZM142.649 33.68H140.809V42H137.389V33.68H136.149V30.84H137.389V30.52C137.389 29.1467 137.782 28.1067 138.569 27.4C139.355 26.68 140.509 26.32 142.029 26.32C142.282 26.32 142.469 26.3267 142.589 26.34V29.24C141.935 29.2 141.475 29.2933 141.209 29.52C140.942 29.7467 140.809 30.1533 140.809 30.74V30.84H142.649V33.68ZM145.976 29.68C145.376 29.68 144.882 29.5067 144.496 29.16C144.122 28.8 143.936 28.36 143.936 27.84C143.936 27.3067 144.122 26.8667 144.496 26.52C144.882 26.16 145.376 25.98 145.976 25.98C146.562 25.98 147.042 26.16 147.416 26.52C147.802 26.8667 147.996 27.3067 147.996 27.84C147.996 28.36 147.802 28.8 147.416 29.16C147.042 29.5067 146.562 29.68 145.976 29.68ZM147.676 30.84V42H144.256V30.84H147.676ZM160.674 36.24C160.674 36.56 160.654 36.8933 160.614 37.24H152.874C152.927 37.9333 153.147 38.4667 153.534 38.84C153.934 39.2 154.421 39.38 154.994 39.38C155.847 39.38 156.441 39.02 156.774 38.3H160.414C160.227 39.0333 159.887 39.6933 159.394 40.28C158.914 40.8667 158.307 41.3267 157.574 41.66C156.841 41.9933 156.021 42.16 155.114 42.16C154.021 42.16 153.047 41.9267 152.194 41.46C151.341 40.9933 150.674 40.3267 150.194 39.46C149.714 38.5933 149.474 37.58 149.474 36.42C149.474 35.26 149.707 34.2467 150.174 33.38C150.654 32.5133 151.321 31.8467 152.174 31.38C153.027 30.9133 154.007 30.68 155.114 30.68C156.194 30.68 157.154 30.9067 157.994 31.36C158.834 31.8133 159.487 32.46 159.954 33.3C160.434 34.14 160.674 35.12 160.674 36.24ZM157.174 35.34C157.174 34.7533 156.974 34.2867 156.574 33.94C156.174 33.5933 155.674 33.42 155.074 33.42C154.501 33.42 154.014 33.5867 153.614 33.92C153.227 34.2533 152.987 34.7267 152.894 35.34H157.174ZM161.798 36.4C161.798 35.2533 162.012 34.2467 162.438 33.38C162.878 32.5133 163.472 31.8467 164.218 31.38C164.965 30.9133 165.798 30.68 166.718 30.68C167.452 30.68 168.118 30.8333 168.718 31.14C169.332 31.4467 169.812 31.86 170.158 32.38V27.2H173.578V42H170.158V40.4C169.838 40.9333 169.378 41.36 168.778 41.68C168.192 42 167.505 42.16 166.718 42.16C165.798 42.16 164.965 41.9267 164.218 41.46C163.472 40.98 162.878 40.3067 162.438 39.44C162.012 38.56 161.798 37.5467 161.798 36.4ZM170.158 36.42C170.158 35.5667 169.918 34.8933 169.438 34.4C168.972 33.9067 168.398 33.66 167.718 33.66C167.038 33.66 166.458 33.9067 165.978 34.4C165.512 34.88 165.278 35.5467 165.278 36.4C165.278 37.2533 165.512 37.9333 165.978 38.44C166.458 38.9333 167.038 39.18 167.718 39.18C168.398 39.18 168.972 38.9333 169.438 38.44C169.918 37.9467 170.158 37.2733 170.158 36.42ZM46.66 57.96V72H43.24V57.96H46.66ZM48.4584 66.4C48.4584 65.2533 48.6718 64.2467 49.0984 63.38C49.5384 62.5133 50.1318 61.8467 50.8784 61.38C51.6251 60.9133 52.4584 60.68 53.3784 60.68C54.1118 60.68 54.7784 60.8333 55.3784 61.14C55.9918 61.4467 56.4718 61.86 56.8184 62.38V57.2H60.2384V72H56.8184V70.4C56.4984 70.9333 56.0384 71.36 55.4384 71.68C54.8518 72 54.1651 72.16 53.3784 72.16C52.4584 72.16 51.6251 71.9267 50.8784 71.46C50.1318 70.98 49.5384 70.3067 49.0984 69.44C48.6718 68.56 48.4584 67.5467 48.4584 66.4ZM56.8184 66.42C56.8184 65.5667 56.5784 64.8933 56.0984 64.4C55.6318 63.9067 55.0584 63.66 54.3784 63.66C53.6984 63.66 53.1184 63.9067 52.6384 64.4C52.1718 64.88 51.9384 65.5467 51.9384 66.4C51.9384 67.2533 52.1718 67.9333 52.6384 68.44C53.1184 68.9333 53.6984 69.18 54.3784 69.18C55.0584 69.18 55.6318 68.9333 56.0984 68.44C56.5784 67.9467 56.8184 67.2733 56.8184 66.42ZM73.2327 66.24C73.2327 66.56 73.2127 66.8933 73.1727 67.24H65.4327C65.486 67.9333 65.706 68.4667 66.0927 68.84C66.4927 69.2 66.9793 69.38 67.5527 69.38C68.406 69.38 68.9993 69.02 69.3327 68.3H72.9727C72.786 69.0333 72.446 69.6933 71.9527 70.28C71.4727 70.8667 70.866 71.3267 70.1327 71.66C69.3993 71.9933 68.5793 72.16 67.6727 72.16C66.5793 72.16 65.606 71.9267 64.7527 71.46C63.8993 70.9933 63.2327 70.3267 62.7527 69.46C62.2727 68.5933 62.0327 67.58 62.0327 66.42C62.0327 65.26 62.266 64.2467 62.7327 63.38C63.2127 62.5133 63.8793 61.8467 64.7327 61.38C65.586 60.9133 66.566 60.68 67.6727 60.68C68.7527 60.68 69.7127 60.9067 70.5527 61.36C71.3927 61.8133 72.046 62.46 72.5127 63.3C72.9927 64.14 73.2327 65.12 73.2327 66.24ZM69.7327 65.34C69.7327 64.7533 69.5327 64.2867 69.1327 63.94C68.7327 63.5933 68.2327 63.42 67.6327 63.42C67.0593 63.42 66.5727 63.5867 66.1727 63.92C65.786 64.2533 65.546 64.7267 65.4527 65.34H69.7327ZM81.8369 60.72C83.1435 60.72 84.1835 61.1467 84.9569 62C85.7435 62.84 86.1369 64 86.1369 65.48V72H82.7369V65.94C82.7369 65.1933 82.5435 64.6133 82.1569 64.2C81.7702 63.7867 81.2502 63.58 80.5969 63.58C79.9435 63.58 79.4235 63.7867 79.0369 64.2C78.6502 64.6133 78.4569 65.1933 78.4569 65.94V72H75.0369V60.84H78.4569V62.32C78.8035 61.8267 79.2702 61.44 79.8569 61.16C80.4435 60.8667 81.1035 60.72 81.8369 60.72ZM94.7334 69.1V72H92.9934C91.7534 72 90.7868 71.7 90.0934 71.1C89.4001 70.4867 89.0534 69.4933 89.0534 68.12V63.68H87.6934V60.84H89.0534V58.12H92.4734V60.84H94.7134V63.68H92.4734V68.16C92.4734 68.4933 92.5534 68.7333 92.7134 68.88C92.8734 69.0267 93.1401 69.1 93.5134 69.1H94.7334ZM98.3584 59.68C97.7584 59.68 97.2651 59.5067 96.8784 59.16C96.5051 58.8 96.3184 58.36 96.3184 57.84C96.3184 57.3067 96.5051 56.8667 96.8784 56.52C97.2651 56.16 97.7584 55.98 98.3584 55.98C98.9451 55.98 99.4251 56.16 99.7984 56.52C100.185 56.8667 100.378 57.3067 100.378 57.84C100.378 58.36 100.185 58.8 99.7984 59.16C99.4251 59.5067 98.9451 59.68 98.3584 59.68ZM100.058 60.84V72H96.6384V60.84H100.058ZM108.757 69.1V72H107.017C105.777 72 104.81 71.7 104.117 71.1C103.424 70.4867 103.077 69.4933 103.077 68.12V63.68H101.717V60.84H103.077V58.12H106.497V60.84H108.737V63.68H106.497V68.16C106.497 68.4933 106.577 68.7333 106.737 68.88C106.897 69.0267 107.164 69.1 107.537 69.1H108.757ZM122.062 60.84L115.062 77.3H111.382L113.942 71.62L109.402 60.84H113.222L115.802 67.82L118.362 60.84H122.062ZM124.899 72.16C124.299 72.16 123.805 71.9867 123.419 71.64C123.045 71.28 122.859 70.84 122.859 70.32C122.859 69.7867 123.045 69.34 123.419 68.98C123.805 68.62 124.299 68.44 124.899 68.44C125.485 68.44 125.965 68.62 126.339 68.98C126.725 69.34 126.919 69.7867 126.919 70.32C126.919 70.84 126.725 71.28 126.339 71.64C125.965 71.9867 125.485 72.16 124.899 72.16Z" fill="white"/>
<path d="M40.43 107.51C40.43 106.83 40.5833 106.22 40.89 105.68C41.1967 105.133 41.6133 104.707 42.14 104.4C42.6733 104.093 43.2633 103.94 43.91 103.94C44.67 103.94 45.3333 104.123 45.9 104.49C46.4667 104.857 46.88 105.377 47.14 106.05H46.05C45.8567 105.63 45.5767 105.307 45.21 105.08C44.85 104.853 44.4167 104.74 43.91 104.74C43.4233 104.74 42.9867 104.853 42.6 105.08C42.2133 105.307 41.91 105.63 41.69 106.05C41.47 106.463 41.36 106.95 41.36 107.51C41.36 108.063 41.47 108.55 41.69 108.97C41.91 109.383 42.2133 109.703 42.6 109.93C42.9867 110.157 43.4233 110.27 43.91 110.27C44.4167 110.27 44.85 110.16 45.21 109.94C45.5767 109.713 45.8567 109.39 46.05 108.97H47.14C46.88 109.637 46.4667 110.153 45.9 110.52C45.3333 110.88 44.67 111.06 43.91 111.06C43.2633 111.06 42.6733 110.91 42.14 110.61C41.6133 110.303 41.1967 109.88 40.89 109.34C40.5833 108.8 40.43 108.19 40.43 107.51ZM49.4046 106.41C49.5646 106.097 49.7913 105.853 50.0846 105.68C50.3846 105.507 50.7479 105.42 51.1746 105.42V106.36H50.9346C49.9146 106.36 49.4046 106.913 49.4046 108.02V111H48.4946V105.52H49.4046V106.41ZM57.2251 108.05C57.2251 108.223 57.2151 108.407 57.1951 108.6H52.8151C52.8484 109.14 53.0317 109.563 53.3651 109.87C53.7051 110.17 54.1151 110.32 54.5951 110.32C54.9884 110.32 55.3151 110.23 55.5751 110.05C55.8417 109.863 56.0284 109.617 56.1351 109.31H57.1151C56.9684 109.837 56.6751 110.267 56.2351 110.6C55.7951 110.927 55.2484 111.09 54.5951 111.09C54.0751 111.09 53.6084 110.973 53.1951 110.74C52.7884 110.507 52.4684 110.177 52.2351 109.75C52.0017 109.317 51.8851 108.817 51.8851 108.25C51.8851 107.683 51.9984 107.187 52.2251 106.76C52.4517 106.333 52.7684 106.007 53.1751 105.78C53.5884 105.547 54.0617 105.43 54.5951 105.43C55.1151 105.43 55.5751 105.543 55.9751 105.77C56.3751 105.997 56.6817 106.31 56.8951 106.71C57.1151 107.103 57.2251 107.55 57.2251 108.05ZM56.2851 107.86C56.2851 107.513 56.2084 107.217 56.0551 106.97C55.9017 106.717 55.6917 106.527 55.4251 106.4C55.1651 106.267 54.8751 106.2 54.5551 106.2C54.0951 106.2 53.7017 106.347 53.3751 106.64C53.0551 106.933 52.8717 107.34 52.8251 107.86H56.2851ZM58.0863 108.24C58.0863 107.68 58.1996 107.19 58.4263 106.77C58.6529 106.343 58.9629 106.013 59.3563 105.78C59.7563 105.547 60.1996 105.43 60.6863 105.43C61.1663 105.43 61.5829 105.533 61.9363 105.74C62.2896 105.947 62.5529 106.207 62.7263 106.52V105.52H63.6463V111H62.7263V109.98C62.5463 110.3 62.2763 110.567 61.9163 110.78C61.5629 110.987 61.1496 111.09 60.6763 111.09C60.1896 111.09 59.7496 110.97 59.3563 110.73C58.9629 110.49 58.6529 110.153 58.4263 109.72C58.1996 109.287 58.0863 108.793 58.0863 108.24ZM62.7263 108.25C62.7263 107.837 62.6429 107.477 62.4763 107.17C62.3096 106.863 62.0829 106.63 61.7963 106.47C61.5163 106.303 61.2063 106.22 60.8663 106.22C60.5263 106.22 60.2163 106.3 59.9363 106.46C59.6563 106.62 59.4329 106.853 59.2663 107.16C59.0996 107.467 59.0163 107.827 59.0163 108.24C59.0163 108.66 59.0996 109.027 59.2663 109.34C59.4329 109.647 59.6563 109.883 59.9363 110.05C60.2163 110.21 60.5263 110.29 60.8663 110.29C61.2063 110.29 61.5163 110.21 61.7963 110.05C62.0829 109.883 62.3096 109.647 62.4763 109.34C62.6429 109.027 62.7263 108.663 62.7263 108.25ZM66.2941 106.27V109.5C66.2941 109.767 66.3507 109.957 66.4641 110.07C66.5774 110.177 66.7741 110.23 67.0541 110.23H67.7241V111H66.9041C66.3974 111 66.0174 110.883 65.7641 110.65C65.5107 110.417 65.3841 110.033 65.3841 109.5V106.27H64.6741V105.52H65.3841V104.14H66.2941V105.52H67.7241V106.27H66.2941ZM73.8266 108.05C73.8266 108.223 73.8166 108.407 73.7966 108.6H69.4166C69.45 109.14 69.6333 109.563 69.9666 109.87C70.3066 110.17 70.7166 110.32 71.1966 110.32C71.59 110.32 71.9166 110.23 72.1766 110.05C72.4433 109.863 72.63 109.617 72.7366 109.31H73.7166C73.57 109.837 73.2766 110.267 72.8366 110.6C72.3966 110.927 71.85 111.09 71.1966 111.09C70.6766 111.09 70.21 110.973 69.7966 110.74C69.39 110.507 69.07 110.177 68.8366 109.75C68.6033 109.317 68.4866 108.817 68.4866 108.25C68.4866 107.683 68.6 107.187 68.8266 106.76C69.0533 106.333 69.37 106.007 69.7766 105.78C70.19 105.547 70.6633 105.43 71.1966 105.43C71.7166 105.43 72.1766 105.543 72.5766 105.77C72.9766 105.997 73.2833 106.31 73.4966 106.71C73.7166 107.103 73.8266 107.55 73.8266 108.05ZM72.8866 107.86C72.8866 107.513 72.81 107.217 72.6566 106.97C72.5033 106.717 72.2933 106.527 72.0266 106.4C71.7666 106.267 71.4766 106.2 71.1566 106.2C70.6966 106.2 70.3033 106.347 69.9766 106.64C69.6566 106.933 69.4733 107.34 69.4266 107.86H72.8866ZM80.0838 111.09C79.5705 111.09 79.1038 110.973 78.6838 110.74C78.2705 110.507 77.9438 110.177 77.7038 109.75C77.4705 109.317 77.3538 108.817 77.3538 108.25C77.3538 107.69 77.4738 107.197 77.7138 106.77C77.9605 106.337 78.2938 106.007 78.7138 105.78C79.1338 105.547 79.6038 105.43 80.1238 105.43C80.6438 105.43 81.1138 105.547 81.5338 105.78C81.9538 106.007 82.2838 106.333 82.5238 106.76C82.7705 107.187 82.8938 107.683 82.8938 108.25C82.8938 108.817 82.7672 109.317 82.5138 109.75C82.2672 110.177 81.9305 110.507 81.5038 110.74C81.0772 110.973 80.6038 111.09 80.0838 111.09ZM80.0838 110.29C80.4105 110.29 80.7172 110.213 81.0038 110.06C81.2905 109.907 81.5205 109.677 81.6938 109.37C81.8738 109.063 81.9638 108.69 81.9638 108.25C81.9638 107.81 81.8772 107.437 81.7038 107.13C81.5305 106.823 81.3038 106.597 81.0238 106.45C80.7438 106.297 80.4405 106.22 80.1138 106.22C79.7805 106.22 79.4738 106.297 79.1938 106.45C78.9205 106.597 78.7005 106.823 78.5338 107.13C78.3672 107.437 78.2838 107.81 78.2838 108.25C78.2838 108.697 78.3638 109.073 78.5238 109.38C78.6905 109.687 78.9105 109.917 79.1838 110.07C79.4572 110.217 79.7572 110.29 80.0838 110.29ZM86.7603 105.42C87.427 105.42 87.967 105.623 88.3803 106.03C88.7936 106.43 89.0003 107.01 89.0003 107.77V111H88.1003V107.9C88.1003 107.353 87.9636 106.937 87.6903 106.65C87.417 106.357 87.0436 106.21 86.5703 106.21C86.0903 106.21 85.707 106.36 85.4203 106.66C85.1403 106.96 85.0003 107.397 85.0003 107.97V111H84.0903V105.52H85.0003V106.3C85.1803 106.02 85.4236 105.803 85.7303 105.65C86.0436 105.497 86.387 105.42 86.7603 105.42ZM95.4868 108.05C95.4868 108.223 95.4768 108.407 95.4568 108.6H91.0768C91.1101 109.14 91.2935 109.563 91.6268 109.87C91.9668 110.17 92.3768 110.32 92.8568 110.32C93.2501 110.32 93.5768 110.23 93.8368 110.05C94.1035 109.863 94.2901 109.617 94.3968 109.31H95.3768C95.2301 109.837 94.9368 110.267 94.4968 110.6C94.0568 110.927 93.5101 111.09 92.8568 111.09C92.3368 111.09 91.8701 110.973 91.4568 110.74C91.0501 110.507 90.7301 110.177 90.4968 109.75C90.2635 109.317 90.1468 108.817 90.1468 108.25C90.1468 107.683 90.2601 107.187 90.4868 106.76C90.7135 106.333 91.0301 106.007 91.4368 105.78C91.8501 105.547 92.3235 105.43 92.8568 105.43C93.3768 105.43 93.8368 105.543 94.2368 105.77C94.6368 105.997 94.9435 106.31 95.1568 106.71C95.3768 107.103 95.4868 107.55 95.4868 108.05ZM94.5468 107.86C94.5468 107.513 94.4701 107.217 94.3168 106.97C94.1635 106.717 93.9535 106.527 93.6868 106.4C93.4268 106.267 93.1368 106.2 92.8168 106.2C92.3568 106.2 91.9635 106.347 91.6368 106.64C91.3168 106.933 91.1335 107.34 91.0868 107.86H94.5468ZM101.294 111.09C100.874 111.09 100.497 111.02 100.164 110.88C99.8307 110.733 99.5673 110.533 99.374 110.28C99.1807 110.02 99.074 109.723 99.054 109.39H99.994C100.021 109.663 100.147 109.887 100.374 110.06C100.607 110.233 100.911 110.32 101.284 110.32C101.631 110.32 101.904 110.243 102.104 110.09C102.304 109.937 102.404 109.743 102.404 109.51C102.404 109.27 102.297 109.093 102.084 108.98C101.871 108.86 101.541 108.743 101.094 108.63C100.687 108.523 100.354 108.417 100.094 108.31C99.8407 108.197 99.6207 108.033 99.434 107.82C99.254 107.6 99.164 107.313 99.164 106.96C99.164 106.68 99.2473 106.423 99.414 106.19C99.5807 105.957 99.8173 105.773 100.124 105.64C100.431 105.5 100.781 105.43 101.174 105.43C101.781 105.43 102.271 105.583 102.644 105.89C103.017 106.197 103.217 106.617 103.244 107.15H102.334C102.314 106.863 102.197 106.633 101.984 106.46C101.777 106.287 101.497 106.2 101.144 106.2C100.817 106.2 100.557 106.27 100.364 106.41C100.171 106.55 100.074 106.733 100.074 106.96C100.074 107.14 100.131 107.29 100.244 107.41C100.364 107.523 100.511 107.617 100.684 107.69C100.864 107.757 101.111 107.833 101.424 107.92C101.817 108.027 102.137 108.133 102.384 108.24C102.631 108.34 102.841 108.493 103.014 108.7C103.194 108.907 103.287 109.177 103.294 109.51C103.294 109.81 103.211 110.08 103.044 110.32C102.877 110.56 102.641 110.75 102.334 110.89C102.034 111.023 101.687 111.09 101.294 111.09ZM109.579 108.05C109.579 108.223 109.569 108.407 109.549 108.6H105.169C105.202 109.14 105.385 109.563 105.719 109.87C106.059 110.17 106.469 110.32 106.949 110.32C107.342 110.32 107.669 110.23 107.929 110.05C108.195 109.863 108.382 109.617 108.489 109.31H109.469C109.322 109.837 109.029 110.267 108.589 110.6C108.149 110.927 107.602 111.09 106.949 111.09C106.429 111.09 105.962 110.973 105.549 110.74C105.142 110.507 104.822 110.177 104.589 109.75C104.355 109.317 104.239 108.817 104.239 108.25C104.239 107.683 104.352 107.187 104.579 106.76C104.805 106.333 105.122 106.007 105.529 105.78C105.942 105.547 106.415 105.43 106.949 105.43C107.469 105.43 107.929 105.543 108.329 105.77C108.729 105.997 109.035 106.31 109.249 106.71C109.469 107.103 109.579 107.55 109.579 108.05ZM108.639 107.86C108.639 107.513 108.562 107.217 108.409 106.97C108.255 106.717 108.045 106.527 107.779 106.4C107.519 106.267 107.229 106.2 106.909 106.2C106.449 106.2 106.055 106.347 105.729 106.64C105.409 106.933 105.225 107.34 105.179 107.86H108.639ZM110.44 108.25C110.44 107.683 110.553 107.19 110.78 106.77C111.006 106.343 111.32 106.013 111.72 105.78C112.126 105.547 112.59 105.43 113.11 105.43C113.783 105.43 114.336 105.593 114.77 105.92C115.21 106.247 115.5 106.7 115.64 107.28H114.66C114.566 106.947 114.383 106.683 114.11 106.49C113.843 106.297 113.51 106.2 113.11 106.2C112.59 106.2 112.17 106.38 111.85 106.74C111.53 107.093 111.37 107.597 111.37 108.25C111.37 108.91 111.53 109.42 111.85 109.78C112.17 110.14 112.59 110.32 113.11 110.32C113.51 110.32 113.843 110.227 114.11 110.04C114.376 109.853 114.56 109.587 114.66 109.24H115.64C115.493 109.8 115.2 110.25 114.76 110.59C114.32 110.923 113.77 111.09 113.11 111.09C112.59 111.09 112.126 110.973 111.72 110.74C111.32 110.507 111.006 110.177 110.78 109.75C110.553 109.323 110.44 108.823 110.44 108.25ZM121.714 105.52V111H120.804V110.19C120.631 110.47 120.387 110.69 120.074 110.85C119.767 111.003 119.427 111.08 119.054 111.08C118.627 111.08 118.244 110.993 117.904 110.82C117.564 110.64 117.294 110.373 117.094 110.02C116.901 109.667 116.804 109.237 116.804 108.73V105.52H117.704V108.61C117.704 109.15 117.841 109.567 118.114 109.86C118.387 110.147 118.761 110.29 119.234 110.29C119.721 110.29 120.104 110.14 120.384 109.84C120.664 109.54 120.804 109.103 120.804 108.53V105.52H121.714ZM124.16 106.41C124.32 106.097 124.547 105.853 124.84 105.68C125.14 105.507 125.504 105.42 125.93 105.42V106.36H125.69C124.67 106.36 124.16 106.913 124.16 108.02V111H123.25V105.52H124.16V106.41ZM131.981 108.05C131.981 108.223 131.971 108.407 131.951 108.6H127.571C127.604 109.14 127.788 109.563 128.121 109.87C128.461 110.17 128.871 110.32 129.351 110.32C129.744 110.32 130.071 110.23 130.331 110.05C130.598 109.863 130.784 109.617 130.891 109.31H131.871C131.724 109.837 131.431 110.267 130.991 110.6C130.551 110.927 130.004 111.09 129.351 111.09C128.831 111.09 128.364 110.973 127.951 110.74C127.544 110.507 127.224 110.177 126.991 109.75C126.758 109.317 126.641 108.817 126.641 108.25C126.641 107.683 126.754 107.187 126.981 106.76C127.208 106.333 127.524 106.007 127.931 105.78C128.344 105.547 128.818 105.43 129.351 105.43C129.871 105.43 130.331 105.543 130.731 105.77C131.131 105.997 131.438 106.31 131.651 106.71C131.871 107.103 131.981 107.55 131.981 108.05ZM131.041 107.86C131.041 107.513 130.964 107.217 130.811 106.97C130.658 106.717 130.448 106.527 130.181 106.4C129.921 106.267 129.631 106.2 129.311 106.2C128.851 106.2 128.458 106.347 128.131 106.64C127.811 106.933 127.628 107.34 127.581 107.86H131.041ZM136.318 104.63C136.145 104.63 135.998 104.57 135.878 104.45C135.758 104.33 135.698 104.183 135.698 104.01C135.698 103.837 135.758 103.69 135.878 103.57C135.998 103.45 136.145 103.39 136.318 103.39C136.485 103.39 136.625 103.45 136.738 103.57C136.858 103.69 136.918 103.837 136.918 104.01C136.918 104.183 136.858 104.33 136.738 104.45C136.625 104.57 136.485 104.63 136.318 104.63ZM136.758 105.52V111H135.848V105.52H136.758ZM137.969 108.24C137.969 107.68 138.082 107.19 138.309 106.77C138.536 106.343 138.846 106.013 139.239 105.78C139.639 105.547 140.086 105.43 140.579 105.43C141.006 105.43 141.402 105.53 141.769 105.73C142.136 105.923 142.416 106.18 142.609 106.5V103.6H143.529V111H142.609V109.97C142.429 110.297 142.162 110.567 141.809 110.78C141.456 110.987 141.042 111.09 140.569 111.09C140.082 111.09 139.639 110.97 139.239 110.73C138.846 110.49 138.536 110.153 138.309 109.72C138.082 109.287 137.969 108.793 137.969 108.24ZM142.609 108.25C142.609 107.837 142.526 107.477 142.359 107.17C142.192 106.863 141.966 106.63 141.679 106.47C141.399 106.303 141.089 106.22 140.749 106.22C140.409 106.22 140.099 106.3 139.819 106.46C139.539 106.62 139.316 106.853 139.149 107.16C138.982 107.467 138.899 107.827 138.899 108.24C138.899 108.66 138.982 109.027 139.149 109.34C139.316 109.647 139.539 109.883 139.819 110.05C140.099 110.21 140.409 110.29 140.749 110.29C141.089 110.29 141.399 110.21 141.679 110.05C141.966 109.883 142.192 109.647 142.359 109.34C142.526 109.027 142.609 108.663 142.609 108.25ZM150.067 108.05C150.067 108.223 150.057 108.407 150.037 108.6H145.657C145.69 109.14 145.874 109.563 146.207 109.87C146.547 110.17 146.957 110.32 147.437 110.32C147.83 110.32 148.157 110.23 148.417 110.05C148.684 109.863 148.87 109.617 148.977 109.31H149.957C149.81 109.837 149.517 110.267 149.077 110.6C148.637 110.927 148.09 111.09 147.437 111.09C146.917 111.09 146.45 110.973 146.037 110.74C145.63 110.507 145.31 110.177 145.077 109.75C144.844 109.317 144.727 108.817 144.727 108.25C144.727 107.683 144.84 107.187 145.067 106.76C145.294 106.333 145.61 106.007 146.017 105.78C146.43 105.547 146.904 105.43 147.437 105.43C147.957 105.43 148.417 105.543 148.817 105.77C149.217 105.997 149.524 106.31 149.737 106.71C149.957 107.103 150.067 107.55 150.067 108.05ZM149.127 107.86C149.127 107.513 149.05 107.217 148.897 106.97C148.744 106.717 148.534 106.527 148.267 106.4C148.007 106.267 147.717 106.2 147.397 106.2C146.937 106.2 146.544 106.347 146.217 106.64C145.897 106.933 145.714 107.34 145.667 107.86H149.127ZM153.938 105.42C154.605 105.42 155.145 105.623 155.558 106.03C155.971 106.43 156.178 107.01 156.178 107.77V111H155.278V107.9C155.278 107.353 155.141 106.937 154.868 106.65C154.595 106.357 154.221 106.21 153.748 106.21C153.268 106.21 152.885 106.36 152.598 106.66C152.318 106.96 152.178 107.397 152.178 107.97V111H151.268V105.52H152.178V106.3C152.358 106.02 152.601 105.803 152.908 105.65C153.221 105.497 153.565 105.42 153.938 105.42ZM158.775 106.27V109.5C158.775 109.767 158.831 109.957 158.945 110.07C159.058 110.177 159.255 110.23 159.535 110.23H160.205V111H159.385C158.878 111 158.498 110.883 158.245 110.65C157.991 110.417 157.865 110.033 157.865 109.5V106.27H157.155V105.52H157.865V104.14H158.775V105.52H160.205V106.27H158.775ZM161.777 104.63C161.604 104.63 161.457 104.57 161.337 104.45C161.217 104.33 161.157 104.183 161.157 104.01C161.157 103.837 161.217 103.69 161.337 103.57C161.457 103.45 161.604 103.39 161.777 103.39C161.944 103.39 162.084 103.45 162.197 103.57C162.317 103.69 162.377 103.837 162.377 104.01C162.377 104.183 162.317 104.33 162.197 104.45C162.084 104.57 161.944 104.63 161.777 104.63ZM162.217 105.52V111H161.307V105.52H162.217ZM164.878 106.27V109.5C164.878 109.767 164.935 109.957 165.048 110.07C165.161 110.177 165.358 110.23 165.638 110.23H166.308V111H165.488C164.981 111 164.601 110.883 164.348 110.65C164.095 110.417 163.968 110.033 163.968 109.5V106.27H163.258V105.52H163.968V104.14H164.878V105.52H166.308V106.27H164.878ZM172.131 105.52L168.831 113.58H167.891L168.971 110.94L166.761 105.52H167.771L169.491 109.96L171.191 105.52H172.131ZM176.621 106.53C176.801 106.217 177.068 105.957 177.421 105.75C177.781 105.537 178.198 105.43 178.671 105.43C179.158 105.43 179.598 105.547 179.991 105.78C180.391 106.013 180.705 106.343 180.931 106.77C181.158 107.19 181.271 107.68 181.271 108.24C181.271 108.793 181.158 109.287 180.931 109.72C180.705 110.153 180.391 110.49 179.991 110.73C179.598 110.97 179.158 111.09 178.671 111.09C178.205 111.09 177.791 110.987 177.431 110.78C177.078 110.567 176.808 110.303 176.621 109.99V113.6H175.711V105.52H176.621V106.53ZM180.341 108.24C180.341 107.827 180.258 107.467 180.091 107.16C179.925 106.853 179.698 106.62 179.411 106.46C179.131 106.3 178.821 106.22 178.481 106.22C178.148 106.22 177.838 106.303 177.551 106.47C177.271 106.63 177.045 106.867 176.871 107.18C176.705 107.487 176.621 107.843 176.621 108.25C176.621 108.663 176.705 109.027 176.871 109.34C177.045 109.647 177.271 109.883 177.551 110.05C177.838 110.21 178.148 110.29 178.481 110.29C178.821 110.29 179.131 110.21 179.411 110.05C179.698 109.883 179.925 109.647 180.091 109.34C180.258 109.027 180.341 108.66 180.341 108.24ZM183.379 106.41C183.539 106.097 183.766 105.853 184.059 105.68C184.359 105.507 184.723 105.42 185.149 105.42V106.36H184.909C183.889 106.36 183.379 106.913 183.379 108.02V111H182.469V105.52H183.379V106.41ZM188.59 111.09C188.076 111.09 187.61 110.973 187.19 110.74C186.776 110.507 186.45 110.177 186.21 109.75C185.976 109.317 185.86 108.817 185.86 108.25C185.86 107.69 185.98 107.197 186.22 106.77C186.466 106.337 186.8 106.007 187.22 105.78C187.64 105.547 188.11 105.43 188.63 105.43C189.15 105.43 189.62 105.547 190.04 105.78C190.46 106.007 190.79 106.333 191.03 106.76C191.276 107.187 191.4 107.683 191.4 108.25C191.4 108.817 191.273 109.317 191.02 109.75C190.773 110.177 190.436 110.507 190.01 110.74C189.583 110.973 189.11 111.09 188.59 111.09ZM188.59 110.29C188.916 110.29 189.223 110.213 189.51 110.06C189.796 109.907 190.026 109.677 190.2 109.37C190.38 109.063 190.47 108.69 190.47 108.25C190.47 107.81 190.383 107.437 190.21 107.13C190.036 106.823 189.81 106.597 189.53 106.45C189.25 106.297 188.946 106.22 188.62 106.22C188.286 106.22 187.98 106.297 187.7 106.45C187.426 106.597 187.206 106.823 187.04 107.13C186.873 107.437 186.79 107.81 186.79 108.25C186.79 108.697 186.87 109.073 187.03 109.38C187.196 109.687 187.416 109.917 187.69 110.07C187.963 110.217 188.263 110.29 188.59 110.29ZM194.826 106.27H193.676V111H192.766V106.27H192.056V105.52H192.766V105.13C192.766 104.517 192.923 104.07 193.236 103.79C193.556 103.503 194.066 103.36 194.766 103.36V104.12C194.366 104.12 194.083 104.2 193.916 104.36C193.756 104.513 193.676 104.77 193.676 105.13V105.52H194.826V106.27ZM196.357 104.63C196.184 104.63 196.037 104.57 195.917 104.45C195.797 104.33 195.737 104.183 195.737 104.01C195.737 103.837 195.797 103.69 195.917 103.57C196.037 103.45 196.184 103.39 196.357 103.39C196.524 103.39 196.664 103.45 196.777 103.57C196.897 103.69 196.957 103.837 196.957 104.01C196.957 104.183 196.897 104.33 196.777 104.45C196.664 104.57 196.524 104.63 196.357 104.63ZM196.797 105.52V111H195.887V105.52H196.797ZM199.258 103.6V111H198.348V103.6H199.258ZM205.809 108.05C205.809 108.223 205.799 108.407 205.779 108.6H201.399C201.432 109.14 201.616 109.563 201.949 109.87C202.289 110.17 202.699 110.32 203.179 110.32C203.572 110.32 203.899 110.23 204.159 110.05C204.426 109.863 204.612 109.617 204.719 109.31H205.699C205.552 109.837 205.259 110.267 204.819 110.6C204.379 110.927 203.832 111.09 203.179 111.09C202.659 111.09 202.192 110.973 201.779 110.74C201.372 110.507 201.052 110.177 200.819 109.75C200.586 109.317 200.469 108.817 200.469 108.25C200.469 107.683 200.582 107.187 200.809 106.76C201.036 106.333 201.352 106.007 201.759 105.78C202.172 105.547 202.646 105.43 203.179 105.43C203.699 105.43 204.159 105.543 204.559 105.77C204.959 105.997 205.266 106.31 205.479 106.71C205.699 107.103 205.809 107.55 205.809 108.05ZM204.869 107.86C204.869 107.513 204.792 107.217 204.639 106.97C204.486 106.717 204.276 106.527 204.009 106.4C203.749 106.267 203.459 106.2 203.139 106.2C202.679 106.2 202.286 106.347 201.959 106.64C201.639 106.933 201.456 107.34 201.409 107.86H204.869ZM209.336 108.24C209.336 107.68 209.45 107.19 209.676 106.77C209.903 106.343 210.213 106.013 210.606 105.78C211.006 105.547 211.45 105.43 211.936 105.43C212.416 105.43 212.833 105.533 213.186 105.74C213.54 105.947 213.803 106.207 213.976 106.52V105.52H214.896V111H213.976V109.98C213.796 110.3 213.526 110.567 213.166 110.78C212.813 110.987 212.4 111.09 211.926 111.09C211.44 111.09 211 110.97 210.606 110.73C210.213 110.49 209.903 110.153 209.676 109.72C209.45 109.287 209.336 108.793 209.336 108.24ZM213.976 108.25C213.976 107.837 213.893 107.477 213.726 107.17C213.56 106.863 213.333 106.63 213.046 106.47C212.766 106.303 212.456 106.22 212.116 106.22C211.776 106.22 211.466 106.3 211.186 106.46C210.906 106.62 210.683 106.853 210.516 107.16C210.35 107.467 210.266 107.827 210.266 108.24C210.266 108.66 210.35 109.027 210.516 109.34C210.683 109.647 210.906 109.883 211.186 110.05C211.466 110.21 211.776 110.29 212.116 110.29C212.456 110.29 212.766 110.21 213.046 110.05C213.333 109.883 213.56 109.647 213.726 109.34C213.893 109.027 213.976 108.663 213.976 108.25ZM219.104 105.42C219.771 105.42 220.311 105.623 220.724 106.03C221.137 106.43 221.344 107.01 221.344 107.77V111H220.444V107.9C220.444 107.353 220.307 106.937 220.034 106.65C219.761 106.357 219.387 106.21 218.914 106.21C218.434 106.21 218.051 106.36 217.764 106.66C217.484 106.96 217.344 107.397 217.344 107.97V111H216.434V105.52H217.344V106.3C217.524 106.02 217.767 105.803 218.074 105.65C218.387 105.497 218.731 105.42 219.104 105.42ZM222.491 108.24C222.491 107.68 222.604 107.19 222.831 106.77C223.057 106.343 223.367 106.013 223.761 105.78C224.161 105.547 224.607 105.43 225.101 105.43C225.527 105.43 225.924 105.53 226.291 105.73C226.657 105.923 226.937 106.18 227.131 106.5V103.6H228.051V111H227.131V109.97C226.951 110.297 226.684 110.567 226.331 110.78C225.977 110.987 225.564 111.09 225.091 111.09C224.604 111.09 224.161 110.97 223.761 110.73C223.367 110.49 223.057 110.153 222.831 109.72C222.604 109.287 222.491 108.793 222.491 108.24ZM227.131 108.25C227.131 107.837 227.047 107.477 226.881 107.17C226.714 106.863 226.487 106.63 226.201 106.47C225.921 106.303 225.611 106.22 225.271 106.22C224.931 106.22 224.621 106.3 224.341 106.46C224.061 106.62 223.837 106.853 223.671 107.16C223.504 107.467 223.421 107.827 223.421 108.24C223.421 108.66 223.504 109.027 223.671 109.34C223.837 109.647 224.061 109.883 224.341 110.05C224.621 110.21 224.931 110.29 225.271 110.29C225.611 110.29 225.921 110.21 226.201 110.05C226.487 109.883 226.714 109.647 226.881 109.34C227.047 109.027 227.131 108.663 227.131 108.25ZM42.81 125.16L44.51 120.52H45.48L43.33 126H42.27L40.12 120.52H41.1L42.81 125.16ZM51.3755 123.05C51.3755 123.223 51.3655 123.407 51.3455 123.6H46.9655C46.9988 124.14 47.1821 124.563 47.5155 124.87C47.8555 125.17 48.2655 125.32 48.7455 125.32C49.1388 125.32 49.4655 125.23 49.7255 125.05C49.9921 124.863 50.1788 124.617 50.2855 124.31H51.2655C51.1188 124.837 50.8255 125.267 50.3855 125.6C49.9455 125.927 49.3988 126.09 48.7455 126.09C48.2255 126.09 47.7588 125.973 47.3455 125.74C46.9388 125.507 46.6188 125.177 46.3855 124.75C46.1521 124.317 46.0355 123.817 46.0355 123.25C46.0355 122.683 46.1488 122.187 46.3755 121.76C46.6021 121.333 46.9188 121.007 47.3255 120.78C47.7388 120.547 48.2121 120.43 48.7455 120.43C49.2655 120.43 49.7255 120.543 50.1255 120.77C50.5255 120.997 50.8321 121.31 51.0455 121.71C51.2655 122.103 51.3755 122.55 51.3755 123.05ZM50.4355 122.86C50.4355 122.513 50.3588 122.217 50.2055 121.97C50.0521 121.717 49.8421 121.527 49.5755 121.4C49.3155 121.267 49.0255 121.2 48.7055 121.2C48.2455 121.2 47.8521 121.347 47.5255 121.64C47.2055 121.933 47.0221 122.34 46.9755 122.86H50.4355ZM53.4866 121.41C53.6466 121.097 53.8733 120.853 54.1666 120.68C54.4666 120.507 54.83 120.42 55.2566 120.42V121.36H55.0166C53.9966 121.36 53.4866 121.913 53.4866 123.02V126H52.5766V120.52H53.4866V121.41ZM56.7771 119.63C56.6038 119.63 56.4571 119.57 56.3371 119.45C56.2171 119.33 56.1571 119.183 56.1571 119.01C56.1571 118.837 56.2171 118.69 56.3371 118.57C56.4571 118.45 56.6038 118.39 56.7771 118.39C56.9438 118.39 57.0838 118.45 57.1971 118.57C57.3171 118.69 57.3771 118.837 57.3771 119.01C57.3771 119.183 57.3171 119.33 57.1971 119.45C57.0838 119.57 56.9438 119.63 56.7771 119.63ZM57.2171 120.52V126H56.3071V120.52H57.2171ZM60.998 121.27H59.848V126H58.938V121.27H58.228V120.52H58.938V120.13C58.938 119.517 59.0947 119.07 59.408 118.79C59.728 118.503 60.238 118.36 60.938 118.36V119.12C60.538 119.12 60.2547 119.2 60.088 119.36C59.928 119.513 59.848 119.77 59.848 120.13V120.52H60.998V121.27ZM66.7791 120.52L63.4791 128.58H62.5391L63.6191 125.94L61.4091 120.52H62.4191L64.1391 124.96L65.8391 120.52H66.7791ZM72.5898 121.27H71.4398V126H70.5298V121.27H69.8198V120.52H70.5298V120.13C70.5298 119.517 70.6865 119.07 70.9998 118.79C71.3198 118.503 71.8298 118.36 72.5298 118.36V119.12C72.1298 119.12 71.8465 119.2 71.6798 119.36C71.5198 119.513 71.4398 119.77 71.4398 120.13V120.52H72.5898V121.27ZM73.3109 123.24C73.3109 122.68 73.4242 122.19 73.6509 121.77C73.8775 121.343 74.1875 121.013 74.5809 120.78C74.9809 120.547 75.4242 120.43 75.9109 120.43C76.3909 120.43 76.8075 120.533 77.1609 120.74C77.5142 120.947 77.7775 121.207 77.9509 121.52V120.52H78.8709V126H77.9509V124.98C77.7709 125.3 77.5009 125.567 77.1409 125.78C76.7875 125.987 76.3742 126.09 75.9009 126.09C75.4142 126.09 74.9742 125.97 74.5809 125.73C74.1875 125.49 73.8775 125.153 73.6509 124.72C73.4242 124.287 73.3109 123.793 73.3109 123.24ZM77.9509 123.25C77.9509 122.837 77.8675 122.477 77.7009 122.17C77.5342 121.863 77.3075 121.63 77.0209 121.47C76.7409 121.303 76.4309 121.22 76.0909 121.22C75.7509 121.22 75.4409 121.3 75.1609 121.46C74.8809 121.62 74.6575 121.853 74.4909 122.16C74.3242 122.467 74.2409 122.827 74.2409 123.24C74.2409 123.66 74.3242 124.027 74.4909 124.34C74.6575 124.647 74.8809 124.883 75.1609 125.05C75.4409 125.21 75.7509 125.29 76.0909 125.29C76.4309 125.29 76.7409 125.21 77.0209 125.05C77.3075 124.883 77.5342 124.647 77.7009 124.34C77.8675 124.027 77.9509 123.663 77.9509 123.25ZM82.3487 126.09C81.9287 126.09 81.552 126.02 81.2187 125.88C80.8853 125.733 80.622 125.533 80.4287 125.28C80.2353 125.02 80.1287 124.723 80.1087 124.39H81.0487C81.0753 124.663 81.202 124.887 81.4287 125.06C81.662 125.233 81.9653 125.32 82.3387 125.32C82.6853 125.32 82.9587 125.243 83.1587 125.09C83.3587 124.937 83.4587 124.743 83.4587 124.51C83.4587 124.27 83.352 124.093 83.1387 123.98C82.9253 123.86 82.5953 123.743 82.1487 123.63C81.742 123.523 81.4087 123.417 81.1487 123.31C80.8953 123.197 80.6753 123.033 80.4887 122.82C80.3087 122.6 80.2187 122.313 80.2187 121.96C80.2187 121.68 80.302 121.423 80.4687 121.19C80.6353 120.957 80.872 120.773 81.1787 120.64C81.4853 120.5 81.8353 120.43 82.2287 120.43C82.8353 120.43 83.3253 120.583 83.6987 120.89C84.072 121.197 84.272 121.617 84.2987 122.15H83.3887C83.3687 121.863 83.252 121.633 83.0387 121.46C82.832 121.287 82.552 121.2 82.1987 121.2C81.872 121.2 81.612 121.27 81.4187 121.41C81.2253 121.55 81.1287 121.733 81.1287 121.96C81.1287 122.14 81.1853 122.29 81.2987 122.41C81.4187 122.523 81.5653 122.617 81.7387 122.69C81.9187 122.757 82.1653 122.833 82.4787 122.92C82.872 123.027 83.192 123.133 83.4387 123.24C83.6853 123.34 83.8953 123.493 84.0687 123.7C84.2487 123.907 84.342 124.177 84.3487 124.51C84.3487 124.81 84.2653 125.08 84.0987 125.32C83.932 125.56 83.6953 125.75 83.3887 125.89C83.0887 126.023 82.742 126.09 82.3487 126.09ZM86.7433 121.27V124.5C86.7433 124.767 86.7999 124.957 86.9133 125.07C87.0266 125.177 87.2233 125.23 87.5033 125.23H88.1733V126H87.3533C86.8466 126 86.4666 125.883 86.2133 125.65C85.9599 125.417 85.8333 125.033 85.8333 124.5V121.27H85.1233V120.52H85.8333V119.14H86.7433V120.52H88.1733V121.27H86.7433ZM94.2759 123.05C94.2759 123.223 94.2659 123.407 94.2459 123.6H89.8659C89.8992 124.14 90.0825 124.563 90.4159 124.87C90.7559 125.17 91.1659 125.32 91.6459 125.32C92.0392 125.32 92.3659 125.23 92.6259 125.05C92.8925 124.863 93.0792 124.617 93.1859 124.31H94.1659C94.0192 124.837 93.7259 125.267 93.2859 125.6C92.8459 125.927 92.2992 126.09 91.6459 126.09C91.1259 126.09 90.6592 125.973 90.2459 125.74C89.8392 125.507 89.5192 125.177 89.2859 124.75C89.0525 124.317 88.9359 123.817 88.9359 123.25C88.9359 122.683 89.0492 122.187 89.2759 121.76C89.5025 121.333 89.8192 121.007 90.2259 120.78C90.6392 120.547 91.1125 120.43 91.6459 120.43C92.1659 120.43 92.6259 120.543 93.0259 120.77C93.4259 120.997 93.7325 121.31 93.9459 121.71C94.1659 122.103 94.2759 122.55 94.2759 123.05ZM93.3359 122.86C93.3359 122.513 93.2592 122.217 93.1059 121.97C92.9525 121.717 92.7425 121.527 92.4759 121.4C92.2159 121.267 91.9259 121.2 91.6059 121.2C91.1459 121.2 90.7525 121.347 90.4259 121.64C90.1059 121.933 89.9225 122.34 89.8759 122.86H93.3359ZM96.387 121.41C96.547 121.097 96.7737 120.853 97.067 120.68C97.367 120.507 97.7304 120.42 98.157 120.42V121.36H97.917C96.897 121.36 96.387 121.913 96.387 123.02V126H95.477V120.52H96.387V121.41ZM101.534 123.24C101.534 122.68 101.647 122.19 101.874 121.77C102.1 121.343 102.41 121.013 102.804 120.78C103.204 120.547 103.647 120.43 104.134 120.43C104.614 120.43 105.03 120.533 105.384 120.74C105.737 120.947 106 121.207 106.174 121.52V120.52H107.094V126H106.174V124.98C105.994 125.3 105.724 125.567 105.364 125.78C105.01 125.987 104.597 126.09 104.124 126.09C103.637 126.09 103.197 125.97 102.804 125.73C102.41 125.49 102.1 125.153 101.874 124.72C101.647 124.287 101.534 123.793 101.534 123.24ZM106.174 123.25C106.174 122.837 106.09 122.477 105.924 122.17C105.757 121.863 105.53 121.63 105.244 121.47C104.964 121.303 104.654 121.22 104.314 121.22C103.974 121.22 103.664 121.3 103.384 121.46C103.104 121.62 102.88 121.853 102.714 122.16C102.547 122.467 102.464 122.827 102.464 123.24C102.464 123.66 102.547 124.027 102.714 124.34C102.88 124.647 103.104 124.883 103.384 125.05C103.664 125.21 103.974 125.29 104.314 125.29C104.654 125.29 104.964 125.21 105.244 125.05C105.53 124.883 105.757 124.647 105.924 124.34C106.09 124.027 106.174 123.663 106.174 123.25ZM108.291 123.25C108.291 122.683 108.405 122.19 108.631 121.77C108.858 121.343 109.171 121.013 109.571 120.78C109.978 120.547 110.441 120.43 110.961 120.43C111.635 120.43 112.188 120.593 112.621 120.92C113.061 121.247 113.351 121.7 113.491 122.28H112.511C112.418 121.947 112.235 121.683 111.961 121.49C111.695 121.297 111.361 121.2 110.961 121.2C110.441 121.2 110.021 121.38 109.701 121.74C109.381 122.093 109.221 122.597 109.221 123.25C109.221 123.91 109.381 124.42 109.701 124.78C110.021 125.14 110.441 125.32 110.961 125.32C111.361 125.32 111.695 125.227 111.961 125.04C112.228 124.853 112.411 124.587 112.511 124.24H113.491C113.345 124.8 113.051 125.25 112.611 125.59C112.171 125.923 111.621 126.09 110.961 126.09C110.441 126.09 109.978 125.973 109.571 125.74C109.171 125.507 108.858 125.177 108.631 124.75C108.405 124.323 108.291 123.823 108.291 123.25ZM115.616 121.41C115.776 121.097 116.002 120.853 116.296 120.68C116.596 120.507 116.959 120.42 117.386 120.42V121.36H117.146C116.126 121.36 115.616 121.913 115.616 123.02V126H114.706V120.52H115.616V121.41ZM120.826 126.09C120.313 126.09 119.846 125.973 119.426 125.74C119.013 125.507 118.686 125.177 118.446 124.75C118.213 124.317 118.096 123.817 118.096 123.25C118.096 122.69 118.216 122.197 118.456 121.77C118.703 121.337 119.036 121.007 119.456 120.78C119.876 120.547 120.346 120.43 120.866 120.43C121.386 120.43 121.856 120.547 122.276 120.78C122.696 121.007 123.026 121.333 123.266 121.76C123.513 122.187 123.636 122.683 123.636 123.25C123.636 123.817 123.509 124.317 123.256 124.75C123.009 125.177 122.673 125.507 122.246 125.74C121.819 125.973 121.346 126.09 120.826 126.09ZM120.826 125.29C121.153 125.29 121.459 125.213 121.746 125.06C122.033 124.907 122.263 124.677 122.436 124.37C122.616 124.063 122.706 123.69 122.706 123.25C122.706 122.81 122.619 122.437 122.446 122.13C122.273 121.823 122.046 121.597 121.766 121.45C121.486 121.297 121.183 121.22 120.856 121.22C120.523 121.22 120.216 121.297 119.936 121.45C119.663 121.597 119.443 121.823 119.276 122.13C119.109 122.437 119.026 122.81 119.026 123.25C119.026 123.697 119.106 124.073 119.266 124.38C119.433 124.687 119.653 124.917 119.926 125.07C120.199 125.217 120.499 125.29 120.826 125.29ZM126.773 126.09C126.353 126.09 125.976 126.02 125.643 125.88C125.309 125.733 125.046 125.533 124.853 125.28C124.659 125.02 124.553 124.723 124.533 124.39H125.473C125.499 124.663 125.626 124.887 125.853 125.06C126.086 125.233 126.389 125.32 126.763 125.32C127.109 125.32 127.383 125.243 127.583 125.09C127.783 124.937 127.883 124.743 127.883 124.51C127.883 124.27 127.776 124.093 127.563 123.98C127.349 123.86 127.019 123.743 126.573 123.63C126.166 123.523 125.833 123.417 125.573 123.31C125.319 123.197 125.099 123.033 124.913 122.82C124.733 122.6 124.643 122.313 124.643 121.96C124.643 121.68 124.726 121.423 124.893 121.19C125.059 120.957 125.296 120.773 125.603 120.64C125.909 120.5 126.259 120.43 126.653 120.43C127.259 120.43 127.749 120.583 128.123 120.89C128.496 121.197 128.696 121.617 128.723 122.15H127.813C127.793 121.863 127.676 121.633 127.463 121.46C127.256 121.287 126.976 121.2 126.623 121.2C126.296 121.2 126.036 121.27 125.843 121.41C125.649 121.55 125.553 121.733 125.553 121.96C125.553 122.14 125.609 122.29 125.723 122.41C125.843 122.523 125.989 122.617 126.163 122.69C126.343 122.757 126.589 122.833 126.903 122.92C127.296 123.027 127.616 123.133 127.863 123.24C128.109 123.34 128.319 123.493 128.493 123.7C128.673 123.907 128.766 124.177 128.773 124.51C128.773 124.81 128.689 125.08 128.523 125.32C128.356 125.56 128.119 125.75 127.813 125.89C127.513 126.023 127.166 126.09 126.773 126.09ZM131.997 126.09C131.577 126.09 131.2 126.02 130.867 125.88C130.534 125.733 130.27 125.533 130.077 125.28C129.884 125.02 129.777 124.723 129.757 124.39H130.697C130.724 124.663 130.85 124.887 131.077 125.06C131.31 125.233 131.614 125.32 131.987 125.32C132.334 125.32 132.607 125.243 132.807 125.09C133.007 124.937 133.107 124.743 133.107 124.51C133.107 124.27 133 124.093 132.787 123.98C132.574 123.86 132.244 123.743 131.797 123.63C131.39 123.523 131.057 123.417 130.797 123.31C130.544 123.197 130.324 123.033 130.137 122.82C129.957 122.6 129.867 122.313 129.867 121.96C129.867 121.68 129.95 121.423 130.117 121.19C130.284 120.957 130.52 120.773 130.827 120.64C131.134 120.5 131.484 120.43 131.877 120.43C132.484 120.43 132.974 120.583 133.347 120.89C133.72 121.197 133.92 121.617 133.947 122.15H133.037C133.017 121.863 132.9 121.633 132.687 121.46C132.48 121.287 132.2 121.2 131.847 121.2C131.52 121.2 131.26 121.27 131.067 121.41C130.874 121.55 130.777 121.733 130.777 121.96C130.777 122.14 130.834 122.29 130.947 122.41C131.067 122.523 131.214 122.617 131.387 122.69C131.567 122.757 131.814 122.833 132.127 122.92C132.52 123.027 132.84 123.133 133.087 123.24C133.334 123.34 133.544 123.493 133.717 123.7C133.897 123.907 133.99 124.177 133.997 124.51C133.997 124.81 133.914 125.08 133.747 125.32C133.58 125.56 133.344 125.75 133.037 125.89C132.737 126.023 132.39 126.09 131.997 126.09ZM139.888 126.09C139.468 126.09 139.091 126.02 138.758 125.88C138.424 125.733 138.161 125.533 137.968 125.28C137.774 125.02 137.668 124.723 137.648 124.39H138.588C138.614 124.663 138.741 124.887 138.968 125.06C139.201 125.233 139.504 125.32 139.878 125.32C140.224 125.32 140.498 125.243 140.698 125.09C140.898 124.937 140.998 124.743 140.998 124.51C140.998 124.27 140.891 124.093 140.678 123.98C140.464 123.86 140.134 123.743 139.688 123.63C139.281 123.523 138.948 123.417 138.688 123.31C138.434 123.197 138.214 123.033 138.028 122.82C137.848 122.6 137.758 122.313 137.758 121.96C137.758 121.68 137.841 121.423 138.008 121.19C138.174 120.957 138.411 120.773 138.718 120.64C139.024 120.5 139.374 120.43 139.768 120.43C140.374 120.43 140.864 120.583 141.238 120.89C141.611 121.197 141.811 121.617 141.838 122.15H140.928C140.908 121.863 140.791 121.633 140.578 121.46C140.371 121.287 140.091 121.2 139.738 121.2C139.411 121.2 139.151 121.27 138.958 121.41C138.764 121.55 138.668 121.733 138.668 121.96C138.668 122.14 138.724 122.29 138.838 122.41C138.958 122.523 139.104 122.617 139.278 122.69C139.458 122.757 139.704 122.833 140.018 122.92C140.411 123.027 140.731 123.133 140.978 123.24C141.224 123.34 141.434 123.493 141.608 123.7C141.788 123.907 141.881 124.177 141.888 124.51C141.888 124.81 141.804 125.08 141.638 125.32C141.471 125.56 141.234 125.75 140.928 125.89C140.628 126.023 140.281 126.09 139.888 126.09ZM148.032 120.52V126H147.122V125.19C146.949 125.47 146.706 125.69 146.392 125.85C146.086 126.003 145.746 126.08 145.372 126.08C144.946 126.08 144.562 125.993 144.222 125.82C143.882 125.64 143.612 125.373 143.412 125.02C143.219 124.667 143.122 124.237 143.122 123.73V120.52H144.022V123.61C144.022 124.15 144.159 124.567 144.432 124.86C144.706 125.147 145.079 125.29 145.552 125.29C146.039 125.29 146.422 125.14 146.702 124.84C146.982 124.54 147.122 124.103 147.122 123.53V120.52H148.032ZM150.479 121.53C150.659 121.217 150.925 120.957 151.279 120.75C151.639 120.537 152.055 120.43 152.529 120.43C153.015 120.43 153.455 120.547 153.849 120.78C154.249 121.013 154.562 121.343 154.789 121.77C155.015 122.19 155.129 122.68 155.129 123.24C155.129 123.793 155.015 124.287 154.789 124.72C154.562 125.153 154.249 125.49 153.849 125.73C153.455 125.97 153.015 126.09 152.529 126.09C152.062 126.09 151.649 125.987 151.289 125.78C150.935 125.567 150.665 125.303 150.479 124.99V128.6H149.569V120.52H150.479V121.53ZM154.199 123.24C154.199 122.827 154.115 122.467 153.949 122.16C153.782 121.853 153.555 121.62 153.269 121.46C152.989 121.3 152.679 121.22 152.339 121.22C152.005 121.22 151.695 121.303 151.409 121.47C151.129 121.63 150.902 121.867 150.729 122.18C150.562 122.487 150.479 122.843 150.479 123.25C150.479 123.663 150.562 124.027 150.729 124.34C150.902 124.647 151.129 124.883 151.409 125.05C151.695 125.21 152.005 125.29 152.339 125.29C152.679 125.29 152.989 125.21 153.269 125.05C153.555 124.883 153.782 124.647 153.949 124.34C154.115 124.027 154.199 123.66 154.199 123.24ZM157.237 121.53C157.417 121.217 157.683 120.957 158.037 120.75C158.397 120.537 158.813 120.43 159.287 120.43C159.773 120.43 160.213 120.547 160.607 120.78C161.007 121.013 161.32 121.343 161.547 121.77C161.773 122.19 161.887 122.68 161.887 123.24C161.887 123.793 161.773 124.287 161.547 124.72C161.32 125.153 161.007 125.49 160.607 125.73C160.213 125.97 159.773 126.09 159.287 126.09C158.82 126.09 158.407 125.987 158.047 125.78C157.693 125.567 157.423 125.303 157.237 124.99V128.6H156.327V120.52H157.237V121.53ZM160.957 123.24C160.957 122.827 160.873 122.467 160.707 122.16C160.54 121.853 160.313 121.62 160.027 121.46C159.747 121.3 159.437 121.22 159.097 121.22C158.763 121.22 158.453 121.303 158.167 121.47C157.887 121.63 157.66 121.867 157.487 122.18C157.32 122.487 157.237 122.843 157.237 123.25C157.237 123.663 157.32 124.027 157.487 124.34C157.66 124.647 157.887 124.883 158.167 125.05C158.453 125.21 158.763 125.29 159.097 125.29C159.437 125.29 159.747 125.21 160.027 125.05C160.313 124.883 160.54 124.647 160.707 124.34C160.873 124.027 160.957 123.66 160.957 123.24ZM165.474 126.09C164.961 126.09 164.494 125.973 164.074 125.74C163.661 125.507 163.334 125.177 163.094 124.75C162.861 124.317 162.744 123.817 162.744 123.25C162.744 122.69 162.864 122.197 163.104 121.77C163.351 121.337 163.684 121.007 164.104 120.78C164.524 120.547 164.994 120.43 165.514 120.43C166.034 120.43 166.504 120.547 166.924 120.78C167.344 121.007 167.674 121.333 167.914 121.76C168.161 122.187 168.284 122.683 168.284 123.25C168.284 123.817 168.158 124.317 167.904 124.75C167.658 125.177 167.321 125.507 166.894 125.74C166.468 125.973 165.994 126.09 165.474 126.09ZM165.474 125.29C165.801 125.29 166.108 125.213 166.394 125.06C166.681 124.907 166.911 124.677 167.084 124.37C167.264 124.063 167.354 123.69 167.354 123.25C167.354 122.81 167.268 122.437 167.094 122.13C166.921 121.823 166.694 121.597 166.414 121.45C166.134 121.297 165.831 121.22 165.504 121.22C165.171 121.22 164.864 121.297 164.584 121.45C164.311 121.597 164.091 121.823 163.924 122.13C163.758 122.437 163.674 122.81 163.674 123.25C163.674 123.697 163.754 124.073 163.914 124.38C164.081 124.687 164.301 124.917 164.574 125.07C164.848 125.217 165.148 125.29 165.474 125.29ZM170.391 121.41C170.551 121.097 170.778 120.853 171.071 120.68C171.371 120.507 171.734 120.42 172.161 120.42V121.36H171.921C170.901 121.36 170.391 121.913 170.391 123.02V126H169.481V120.52H170.391V121.41ZM174.321 121.27V124.5C174.321 124.767 174.378 124.957 174.491 125.07C174.605 125.177 174.801 125.23 175.081 125.23H175.751V126H174.931C174.425 126 174.045 125.883 173.791 125.65C173.538 125.417 173.411 125.033 173.411 124.5V121.27H172.701V120.52H173.411V119.14H174.321V120.52H175.751V121.27H174.321ZM181.854 123.05C181.854 123.223 181.844 123.407 181.824 123.6H177.444C177.477 124.14 177.661 124.563 177.994 124.87C178.334 125.17 178.744 125.32 179.224 125.32C179.617 125.32 179.944 125.23 180.204 125.05C180.471 124.863 180.657 124.617 180.764 124.31H181.744C181.597 124.837 181.304 125.267 180.864 125.6C180.424 125.927 179.877 126.09 179.224 126.09C178.704 126.09 178.237 125.973 177.824 125.74C177.417 125.507 177.097 125.177 176.864 124.75C176.631 124.317 176.514 123.817 176.514 123.25C176.514 122.683 176.627 122.187 176.854 121.76C177.081 121.333 177.397 121.007 177.804 120.78C178.217 120.547 178.691 120.43 179.224 120.43C179.744 120.43 180.204 120.543 180.604 120.77C181.004 120.997 181.311 121.31 181.524 121.71C181.744 122.103 181.854 122.55 181.854 123.05ZM180.914 122.86C180.914 122.513 180.837 122.217 180.684 121.97C180.531 121.717 180.321 121.527 180.054 121.4C179.794 121.267 179.504 121.2 179.184 121.2C178.724 121.2 178.331 121.347 178.004 121.64C177.684 121.933 177.501 122.34 177.454 122.86H180.914ZM182.715 123.24C182.715 122.68 182.828 122.19 183.055 121.77C183.282 121.343 183.592 121.013 183.985 120.78C184.385 120.547 184.832 120.43 185.325 120.43C185.752 120.43 186.148 120.53 186.515 120.73C186.882 120.923 187.162 121.18 187.355 121.5V118.6H188.275V126H187.355V124.97C187.175 125.297 186.908 125.567 186.555 125.78C186.202 125.987 185.788 126.09 185.315 126.09C184.828 126.09 184.385 125.97 183.985 125.73C183.592 125.49 183.282 125.153 183.055 124.72C182.828 124.287 182.715 123.793 182.715 123.24ZM187.355 123.25C187.355 122.837 187.272 122.477 187.105 122.17C186.938 121.863 186.712 121.63 186.425 121.47C186.145 121.303 185.835 121.22 185.495 121.22C185.155 121.22 184.845 121.3 184.565 121.46C184.285 121.62 184.062 121.853 183.895 122.16C183.728 122.467 183.645 122.827 183.645 123.24C183.645 123.66 183.728 124.027 183.895 124.34C184.062 124.647 184.285 124.883 184.565 125.05C184.845 125.21 185.155 125.29 185.495 125.29C185.835 125.29 186.145 125.21 186.425 125.05C186.712 124.883 186.938 124.647 187.105 124.34C187.272 124.027 187.355 123.663 187.355 123.25ZM193.389 121.53C193.569 121.217 193.836 120.957 194.189 120.75C194.549 120.537 194.966 120.43 195.439 120.43C195.926 120.43 196.366 120.547 196.759 120.78C197.159 121.013 197.472 121.343 197.699 121.77C197.926 122.19 198.039 122.68 198.039 123.24C198.039 123.793 197.926 124.287 197.699 124.72C197.472 125.153 197.159 125.49 196.759 125.73C196.366 125.97 195.926 126.09 195.439 126.09C194.972 126.09 194.559 125.987 194.199 125.78C193.846 125.567 193.576 125.303 193.389 124.99V128.6H192.479V120.52H193.389V121.53ZM197.109 123.24C197.109 122.827 197.026 122.467 196.859 122.16C196.692 121.853 196.466 121.62 196.179 121.46C195.899 121.3 195.589 121.22 195.249 121.22C194.916 121.22 194.606 121.303 194.319 121.47C194.039 121.63 193.812 121.867 193.639 122.18C193.472 122.487 193.389 122.843 193.389 123.25C193.389 123.663 193.472 124.027 193.639 124.34C193.812 124.647 194.039 124.883 194.319 125.05C194.606 125.21 194.916 125.29 195.249 125.29C195.589 125.29 195.899 125.21 196.179 125.05C196.466 124.883 196.692 124.647 196.859 124.34C197.026 124.027 197.109 123.66 197.109 123.24ZM200.147 118.6V126H199.237V118.6H200.147ZM201.358 123.24C201.358 122.68 201.471 122.19 201.698 121.77C201.924 121.343 202.234 121.013 202.628 120.78C203.028 120.547 203.471 120.43 203.958 120.43C204.438 120.43 204.854 120.533 205.208 120.74C205.561 120.947 205.824 121.207 205.998 121.52V120.52H206.918V126H205.998V124.98C205.818 125.3 205.548 125.567 205.188 125.78C204.834 125.987 204.421 126.09 203.948 126.09C203.461 126.09 203.021 125.97 202.628 125.73C202.234 125.49 201.924 125.153 201.698 124.72C201.471 124.287 201.358 123.793 201.358 123.24ZM205.998 123.25C205.998 122.837 205.914 122.477 205.748 122.17C205.581 121.863 205.354 121.63 205.068 121.47C204.788 121.303 204.478 121.22 204.138 121.22C203.798 121.22 203.488 121.3 203.208 121.46C202.928 121.62 202.704 121.853 202.538 122.16C202.371 122.467 202.288 122.827 202.288 123.24C202.288 123.66 202.371 124.027 202.538 124.34C202.704 124.647 202.928 124.883 203.208 125.05C203.488 125.21 203.798 125.29 204.138 125.29C204.478 125.29 204.788 125.21 205.068 125.05C205.354 124.883 205.581 124.647 205.748 124.34C205.914 124.027 205.998 123.663 205.998 123.25ZM209.566 121.27V124.5C209.566 124.767 209.622 124.957 209.736 125.07C209.849 125.177 210.046 125.23 210.326 125.23H210.996V126H210.176C209.669 126 209.289 125.883 209.036 125.65C208.782 125.417 208.656 125.033 208.656 124.5V121.27H207.946V120.52H208.656V119.14H209.566V120.52H210.996V121.27H209.566ZM214.328 121.27H213.178V126H212.268V121.27H211.558V120.52H212.268V120.13C212.268 119.517 212.425 119.07 212.738 118.79C213.058 118.503 213.568 118.36 214.268 118.36V119.12C213.868 119.12 213.585 119.2 213.418 119.36C213.258 119.513 213.178 119.77 213.178 120.13V120.52H214.328V121.27ZM217.779 126.09C217.266 126.09 216.799 125.973 216.379 125.74C215.966 125.507 215.639 125.177 215.399 124.75C215.166 124.317 215.049 123.817 215.049 123.25C215.049 122.69 215.169 122.197 215.409 121.77C215.656 121.337 215.989 121.007 216.409 120.78C216.829 120.547 217.299 120.43 217.819 120.43C218.339 120.43 218.809 120.547 219.229 120.78C219.649 121.007 219.979 121.333 220.219 121.76C220.466 122.187 220.589 122.683 220.589 123.25C220.589 123.817 220.462 124.317 220.209 124.75C219.962 125.177 219.626 125.507 219.199 125.74C218.772 125.973 218.299 126.09 217.779 126.09ZM217.779 125.29C218.106 125.29 218.412 125.213 218.699 125.06C218.986 124.907 219.216 124.677 219.389 124.37C219.569 124.063 219.659 123.69 219.659 123.25C219.659 122.81 219.572 122.437 219.399 122.13C219.226 121.823 218.999 121.597 218.719 121.45C218.439 121.297 218.136 121.22 217.809 121.22C217.476 121.22 217.169 121.297 216.889 121.45C216.616 121.597 216.396 121.823 216.229 122.13C216.062 122.437 215.979 122.81 215.979 123.25C215.979 123.697 216.059 124.073 216.219 124.38C216.386 124.687 216.606 124.917 216.879 125.07C217.152 125.217 217.452 125.29 217.779 125.29ZM222.696 121.41C222.856 121.097 223.082 120.853 223.376 120.68C223.676 120.507 224.039 120.42 224.466 120.42V121.36H224.226C223.206 121.36 222.696 121.913 222.696 123.02V126H221.786V120.52H222.696V121.41ZM232.106 120.42C232.533 120.42 232.913 120.51 233.246 120.69C233.579 120.863 233.843 121.127 234.036 121.48C234.229 121.833 234.326 122.263 234.326 122.77V126H233.426V122.9C233.426 122.353 233.289 121.937 233.016 121.65C232.749 121.357 232.386 121.21 231.926 121.21C231.453 121.21 231.076 121.363 230.796 121.67C230.516 121.97 230.376 122.407 230.376 122.98V126H229.476V122.9C229.476 122.353 229.339 121.937 229.066 121.65C228.799 121.357 228.436 121.21 227.976 121.21C227.503 121.21 227.126 121.363 226.846 121.67C226.566 121.97 226.426 122.407 226.426 122.98V126H225.516V120.52H226.426V121.31C226.606 121.023 226.846 120.803 227.146 120.65C227.453 120.497 227.789 120.42 228.156 120.42C228.616 120.42 229.023 120.523 229.376 120.73C229.729 120.937 229.993 121.24 230.166 121.64C230.319 121.253 230.573 120.953 230.926 120.74C231.279 120.527 231.673 120.42 232.106 120.42ZM237.759 126.09C237.339 126.09 236.962 126.02 236.629 125.88C236.295 125.733 236.032 125.533 235.839 125.28C235.645 125.02 235.539 124.723 235.519 124.39H236.459C236.485 124.663 236.612 124.887 236.839 125.06C237.072 125.233 237.375 125.32 237.749 125.32C238.095 125.32 238.369 125.243 238.569 125.09C238.769 124.937 238.869 124.743 238.869 124.51C238.869 124.27 238.762 124.093 238.549 123.98C238.335 123.86 238.005 123.743 237.559 123.63C237.152 123.523 236.819 123.417 236.559 123.31C236.305 123.197 236.085 123.033 235.899 122.82C235.719 122.6 235.629 122.313 235.629 121.96C235.629 121.68 235.712 121.423 235.879 121.19C236.045 120.957 236.282 120.773 236.589 120.64C236.895 120.5 237.245 120.43 237.639 120.43C238.245 120.43 238.735 120.583 239.109 120.89C239.482 121.197 239.682 121.617 239.709 122.15H238.799C238.779 121.863 238.662 121.633 238.449 121.46C238.242 121.287 237.962 121.2 237.609 121.2C237.282 121.2 237.022 121.27 236.829 121.41C236.635 121.55 236.539 121.733 236.539 121.96C236.539 122.14 236.595 122.29 236.709 122.41C236.829 122.523 236.975 122.617 237.149 122.69C237.329 122.757 237.575 122.833 237.889 122.92C238.282 123.027 238.602 123.133 238.849 123.24C239.095 123.34 239.305 123.493 239.479 123.7C239.659 123.907 239.752 124.177 239.759 124.51C239.759 124.81 239.675 125.08 239.509 125.32C239.342 125.56 239.105 125.75 238.799 125.89C238.499 126.023 238.152 126.09 237.759 126.09ZM241.333 126.06C241.16 126.06 241.013 126 240.893 125.88C240.773 125.76 240.713 125.613 240.713 125.44C240.713 125.267 240.773 125.12 240.893 125C241.013 124.88 241.16 124.82 241.333 124.82C241.5 124.82 241.64 124.88 241.753 125C241.873 125.12 241.933 125.267 241.933 125.44C241.933 125.613 241.873 125.76 241.753 125.88C241.64 126 241.5 126.06 241.333 126.06Z" fill="white" fill-opacity="0.7"/>
<g opacity="0.19" filter="url(#filter0_f_1603_3993)">
<path d="M310.053 78.5269C330.453 84.5269 348.22 72.3603 354.553 65.5269C355.887 63.6936 359.653 65.6269 364.053 88.0269C369.553 116.027 367.553 108.027 376.553 126.027C385.553 144.027 361.553 146.527 358.553 176.027C355.553 205.527 282.053 183.527 259.553 176.027C237.053 168.527 245.553 165.027 249.053 146.527C252.553 128.027 238.553 135.527 236.553 130.027C234.553 124.527 237.553 107.527 252.553 108.027C267.553 108.527 258.553 98.0269 273.053 78.5269C287.553 59.0269 284.553 71.0269 310.053 78.5269Z" fill="black"/>
</g>
<g filter="url(#filter1_f_1603_3993)">
<path d="M334.285 13.2346C334.285 19.2384 339.123 24.4289 345.109 24.829C351.116 25.2306 356 20.6599 356 14.6189C356 8.57797 351.116 3.38453 345.109 3.02021C339.123 2.6571 334.285 7.23075 334.285 13.2346Z" fill="#00291B"/>
<path d="M333 13.6194C333 19.6232 337.838 24.8136 343.824 25.2138C349.831 25.6153 354.715 21.0447 354.715 15.0037C354.715 8.9627 349.831 3.76929 343.824 3.40497C337.838 3.04189 333 7.61551 333 13.6194Z" fill="#640000"/>
<path d="M344.206 20.2117C344.677 20.2425 345.115 20.0235 345.359 19.6322L349.452 13.0597C349.836 12.4438 349.629 11.6002 348.991 11.1756C348.353 10.7512 347.525 10.9062 347.142 11.5219L344.303 16.0842L340.558 8.45621C340.222 7.77165 339.414 7.4576 338.755 7.75453C338.095 8.05135 337.833 8.84644 338.169 9.53057L343.009 19.3961C343.23 19.8478 343.671 20.1587 344.159 20.2077C344.175 20.2093 344.191 20.2107 344.206 20.2117Z" fill="white"/>
</g>
<path d="M278.153 13.2795L264.704 125.069C264.502 126.745 265.657 128.247 267.275 128.408L323.294 134.558C326.726 134.771 328.605 133.018 328.816 131.236L342.937 12.3853C343.147 10.6129 341.464 9.00781 338.017 9.00781L281.489 10.1984C279.853 10.2258 278.354 11.6122 278.153 13.2795Z" fill="url(#paint0_linear_1603_3993)"/>
<path d="M275.632 13.0882L262.108 125.436C261.906 127.121 263.065 128.631 264.689 128.793L322.765 134.575C324.585 134.756 326.254 133.439 326.467 131.648L340.667 12.183C340.878 10.4015 339.541 8.96948 337.7 9.00049L278.981 9.99124C277.339 10.019 275.833 11.4125 275.632 13.0882Z" fill="#05150E"/>
<path d="M276.734 19.2852L264.199 123.454C264.01 125.028 265.096 126.436 266.616 126.584L321.234 131.894C322.927 132.058 324.478 130.829 324.676 129.161L337.799 18.8034C337.996 17.1445 336.754 15.8022 335.045 15.8205L279.866 16.4081C278.33 16.4244 276.922 17.719 276.734 19.2852Z" fill="url(#paint1_linear_1603_3993)"/>
<path d="M306.023 13.009C305.951 13.6071 306.381 14.0859 306.982 14.0783C307.585 14.0708 308.132 13.5787 308.203 12.9794C308.275 12.3801 307.844 11.9014 307.242 11.9103C306.64 11.9191 306.094 12.411 306.023 13.009Z" fill="white"/>
<path d="M286.177 89.21C297.358 68.5369 314.062 62.349 319.091 41.0431C321.809 29.5264 319.957 18.5034 316.838 9.35251L337.7 9.00049C339.541 8.96948 340.878 10.4015 340.667 12.183L326.467 131.648C326.254 133.439 324.586 134.756 322.765 134.575L277.112 130.03C276.774 111.506 281.193 98.4251 286.177 89.21Z" fill="url(#paint2_linear_1603_3993)"/>
<path d="M327.366 25.9883L327.639 27.4615H327.639L322.02 27.4748L273.261 27.5904C272.007 27.5933 270.853 28.6301 270.681 29.9063L259.042 107.697C258.869 108.985 260.873 110.95 262.12 111.046L283.751 112.709V112.682L316.109 115.165C316.109 115.165 316.11 115.165 316.11 115.165L316.189 115.198C317.571 115.304 318.838 114.302 319.017 112.942C319.017 112.941 319.017 112.948 319.018 112.947L329.918 29.892C330.095 28.5442 328.755 25.9846 327.366 25.9883Z" fill="#00291B"/>
<path d="M317.914 111.323C317.736 112.684 316.469 113.7 315.087 113.594L260.963 109.438C259.716 109.343 258.849 108.221 259.022 106.934L269.603 28.3156C269.775 27.0397 270.928 26.0027 272.182 25.9993L326.611 25.8496C328 25.8458 328.986 26.9348 328.809 28.2822L317.914 111.323Z" fill="white"/>
<path opacity="0.4" d="M328.809 28.2819L317.914 111.323C317.736 112.683 316.388 113.694 315.007 113.588L282.499 111.092C280.955 109.511 279.683 107.613 278.776 105.337C278.33 104.22 278.004 103.015 277.787 101.749C277.184 98.2422 277.417 94.2565 278.298 90.3438C278.975 87.3321 280.035 84.3586 281.394 81.6758C282.48 79.5309 283.758 77.5697 285.185 75.9217C286.212 74.7355 287.323 73.5828 288.495 72.4525C289.909 71.0886 291.411 69.7568 292.96 68.4377C296.57 65.3617 300.436 62.3541 304.016 59.178C312.274 51.8514 318.975 43.665 317.363 31.9842C317.311 31.6164 316.808 28.7988 316.165 25.8781L326.531 25.8496C327.919 25.8458 328.986 26.9351 328.809 28.2819Z" fill="white"/>
<path d="M309.106 136.283C309.12 136.286 309.135 136.288 309.15 136.29C311.544 136.673 314.546 136.405 316.485 134.812C317.507 133.972 318.199 132.865 318.411 131.553C318.538 130.775 318.606 129.954 318.484 129.171C318.357 128.352 318.04 127.56 317.632 126.842C317.404 126.441 317.144 126.053 316.869 125.683C316.079 124.623 314.213 123.135 315.078 121.632C315.601 120.724 316.807 120.165 317.603 119.528C319.305 118.167 320.528 116.204 320.545 113.963C320.559 112.203 319.455 110.46 318.209 109.276C313.141 104.459 316.875 96.1746 309.697 96.8252C302.519 97.4758 300.962 104.639 303.65 111.327C304.55 113.567 305.646 115.856 306.257 118.196C306.738 120.038 306.058 121.312 304.558 122.401C303.751 122.986 302.571 123.386 301.87 124.076C300.304 125.617 299.049 127.778 299.423 130.039C299.794 132.282 301.706 133.93 303.721 134.782C305.463 135.519 307.242 135.985 309.106 136.283Z" fill="url(#paint3_linear_1603_3993)"/>
<g opacity="0.8">
<path d="M309.951 134.359C309.968 134.359 309.985 134.356 310.001 134.35C310.078 134.322 310.117 134.237 310.089 134.161C310.059 134.078 307.085 125.774 309.689 119.119C312.335 112.355 309.375 105.114 309.345 105.042C309.313 104.967 309.227 104.931 309.152 104.963C309.076 104.994 309.041 105.08 309.072 105.155C309.102 105.227 312.016 112.361 309.414 119.011C306.769 125.771 309.781 134.178 309.812 134.262C309.834 134.322 309.891 134.359 309.951 134.359Z" fill="white"/>
</g>
<path d="M307.592 123.811C308.193 122.859 308.881 121.965 309.598 121.155C312.024 118.421 313.726 115.518 314.815 112.015C315.674 109.256 315.655 106.102 316.188 103.253C316.573 101.189 317.272 99.1916 317.999 97.2262C319.545 93.0415 321.866 88.1865 325.762 85.6735C327.566 84.51 330.241 84.3952 332.23 85.2287C334.808 86.3085 337.086 88.4123 337.252 91.3377C337.479 95.3604 333.965 99.8699 336.871 103.569C341.321 109.233 339.241 115.526 333.124 118.606C331.13 119.61 328.794 120.54 327.128 122.082C325.458 123.628 326.454 126.266 326.639 128.224C326.813 130.062 327.005 132.197 325.834 133.769C323.858 136.42 319.087 137.575 315.985 137.837C312.984 138.09 309.574 137.759 307.472 135.356C304.305 131.736 305.339 127.377 307.592 123.811Z" fill="url(#paint4_linear_1603_3993)"/>
<g opacity="0.8">
<path d="M312.476 135.341C312.536 135.341 312.592 135.305 312.614 135.246C312.711 134.989 322.415 109.379 327.953 99.059C327.991 98.9872 327.964 98.8978 327.892 98.8593C327.82 98.8209 327.731 98.8478 327.693 98.9196C322.146 109.257 312.435 134.884 312.338 135.142C312.309 135.218 312.348 135.303 312.424 135.332C312.441 135.338 312.459 135.341 312.476 135.341Z" fill="white"/>
</g>
<path d="M316.67 138.965C316.025 138.874 315.381 138.768 314.74 138.665C312.948 138.378 310.728 137.819 310.165 135.82C310.004 135.251 310.281 134.234 310.347 133.642C310.415 133.04 310.501 132.437 310.641 131.846C310.835 131.03 311.145 130.263 311.548 129.528C312.246 128.255 313.044 127.298 314.529 127.009C315.611 126.799 316.811 126.75 317.912 126.786C323.911 126.983 324.649 124.819 327.944 120.196C331.239 115.574 352.926 123.049 339.845 131.261C339.845 131.261 337.878 132.54 330.698 131.704C329.384 131.551 327.724 131.449 326.61 132.299C324.647 133.797 326.621 136.972 324.638 138.217C323.482 138.944 321.624 139.157 320.296 139.208C319.082 139.255 317.873 139.136 316.67 138.965Z" fill="url(#paint5_linear_1603_3993)"/>
<g opacity="0.8">
<path d="M312.666 136.491C312.711 136.491 312.756 136.47 312.785 136.43C312.823 136.378 316.621 131.215 322.009 129.996C324.117 129.519 325.939 128.452 327.7 127.42C330.671 125.681 333.477 124.038 337.618 124.882C337.698 124.898 337.776 124.847 337.792 124.767C337.809 124.687 337.757 124.609 337.677 124.593C333.425 123.726 330.439 125.475 327.551 127.166C325.809 128.186 324.007 129.241 321.944 129.708C316.446 130.952 312.585 136.204 312.546 136.257C312.499 136.323 312.513 136.415 312.579 136.463C312.605 136.482 312.636 136.491 312.666 136.491Z" fill="white"/>
</g>
<path d="M316.307 41.7506C316.749 41.7579 317.184 41.4213 317.236 40.9988L318.535 30.5696C318.588 30.145 318.27 29.8008 317.825 29.8008H309.072C308.638 29.8008 308.245 30.1402 308.194 30.5588C308.143 30.9774 308.42 31.3173 308.854 31.3182L316.765 31.3348L315.568 40.9744C315.516 41.396 315.864 41.7434 316.307 41.7506Z" fill="#05150E"/>
<path d="M303.905 72.0381L312.509 72.543C312.947 72.5686 313.344 72.252 313.396 71.8355L314.676 61.5558C314.728 61.1373 314.382 60.7831 313.942 60.7644C313.503 60.7458 313.073 61.0696 313.022 61.4872L311.841 70.9923L304.055 70.5496C303.628 70.5254 303.258 70.8387 303.208 71.2494C303.157 71.6601 303.478 72.013 303.905 72.0381Z" fill="#05150E"/>
<path d="M276.585 41.1024C276.981 41.1089 277.305 40.7904 277.351 40.3908L278.404 31.2545L285.727 31.2698C286.134 31.2706 286.52 30.9422 286.567 30.5362C286.615 30.13 286.34 29.8008 285.933 29.8008H277.92C277.523 29.8008 277.163 30.1256 277.117 30.5262L275.986 40.3687C275.94 40.7674 276.189 41.096 276.585 41.1024Z" fill="#05150E"/>
<path d="M273.266 70.2407L281.149 70.7032C281.55 70.7268 281.913 70.4227 281.959 70.0241C282.006 69.6254 281.684 69.2841 281.283 69.2614L274.071 68.8556L275.11 59.8401C275.155 59.4441 274.908 59.1092 274.514 59.0924C274.121 59.0758 273.801 59.3824 273.755 59.7776L272.64 69.487C272.594 69.8803 272.874 70.2177 273.266 70.2407Z" fill="#05150E"/>
<path d="M305.76 79.3118C305.707 79.7168 305.329 80.0189 304.915 80.0038L276.277 78.9586C275.899 78.9448 275.633 78.6336 275.685 78.2469L276.248 74.0734C276.3 73.687 276.645 73.4253 277.023 73.4359L305.687 74.2319C306.101 74.2434 306.394 74.5357 306.341 74.9404L305.76 79.3118Z" fill="#F4F7FA"/>
<path d="M304.651 87.7903C304.598 88.196 304.219 88.5423 303.806 88.5219L275.189 87.1082C274.812 87.0895 274.549 86.7281 274.601 86.3407L275.168 82.0867C275.22 81.6997 275.569 81.3681 275.947 81.3833L304.581 82.5382C304.994 82.5549 305.286 82.9287 305.233 83.3341L304.651 87.7903Z" fill="#F4F7FA"/>
<path d="M306.343 74.9231C306.275 74.9013 306.202 74.8892 306.125 74.8871L277.46 74.0915C277.082 74.0806 276.737 74.3429 276.686 74.7286L276.122 78.902C276.121 78.9129 276.119 78.9228 276.118 78.9337C275.828 78.8517 275.641 78.5763 275.685 78.2463L276.248 74.0729C276.3 73.6872 276.645 73.4249 277.023 73.4359L305.687 74.2314C306.094 74.2434 306.386 74.5264 306.343 74.9231Z" fill="#AABBCC"/>
<path d="M305.239 83.2391C305.17 83.2118 305.096 83.1954 305.017 83.1922L276.384 82.0371C276.006 82.0218 275.657 82.354 275.606 82.7409L275.037 86.9951C275.034 87.0225 275.032 87.0487 275.032 87.076C274.741 86.982 274.557 86.6695 274.6 86.3394L275.169 82.0852C275.22 81.6983 275.569 81.3661 275.947 81.3814L304.58 82.5365C304.963 82.5529 305.24 82.872 305.239 83.2391Z" fill="#AABBCC"/>
<path d="M297.041 94.6623C297.125 94.0222 296.673 93.4323 296.029 93.3954L281.215 92.5447C280.602 92.5094 280.035 93.0261 279.952 93.6495L279.341 98.2574C279.257 98.8815 279.683 99.4789 280.296 99.5209L295.102 100.534C295.745 100.578 296.337 100.035 296.422 99.3939L297.041 94.6623Z" fill="#00291B"/>
<path d="M293.165 68.0424C283.693 68.0424 276.729 60.1138 277.624 50.548C278.501 41.1748 286.628 33.6875 295.757 33.6875C304.885 33.6875 311.882 41.1748 311.345 50.548C310.797 60.1138 302.637 68.0424 293.165 68.0424Z" fill="#AABBCC"/>
<path d="M310.684 50.5487C310.15 59.7505 302.326 67.3446 293.217 67.3446C284.109 67.3446 277.431 59.7504 278.285 50.5487C279.123 41.5253 286.917 34.3379 295.707 34.3379C304.498 34.3379 311.207 41.5253 310.684 50.5487Z" fill="#EAEDF3"/>
<mask id="mask0_1603_3993" style="mask-type:luminance" maskUnits="userSpaceOnUse" x="278" y="34" width="33" height="34">
<path d="M310.684 50.5487C310.15 59.7505 302.326 67.3446 293.217 67.3446C284.109 67.3446 277.431 59.7504 278.285 50.5487C279.123 41.5253 286.917 34.3379 295.707 34.3379C304.498 34.3379 311.207 41.5253 310.684 50.5487Z" fill="white"/>
</mask>
<g mask="url(#mask0_1603_3993)">
<path d="M293.613 38.8121C290.528 38.7227 287.458 40.329 285.961 42.572C284.147 45.2899 286.144 46.6533 284.728 51.1168C283.411 55.2665 281.104 55.9794 281.231 58.728C281.37 61.7571 284.291 63.6884 285.449 64.4535C290.675 67.9091 299.295 67.7642 303.95 63.3099C304.337 62.9399 307.52 59.894 306.885 57.1095C306.32 54.6316 303.244 54.6143 302.776 52.0531C302.376 49.8578 304.514 49.1509 304.52 45.9922C304.521 45.3768 304.527 42.4744 302.307 41.1391C300.832 40.2517 299.126 40.5057 298.499 40.6297C297.796 40.0741 296.077 38.8836 293.613 38.8121Z" fill="url(#paint6_linear_1603_3993)"/>
<path d="M275.744 61.8166C275.744 61.8166 292.459 52.9453 311.527 61.7877C311.527 61.7877 308.559 69.4984 293.367 70.0293C277.643 70.5789 275.744 61.8166 275.744 61.8166Z" fill="url(#paint7_linear_1603_3993)"/>
<path d="M292.047 50.3008L291.125 54.4912C290.808 55.9298 289.668 57.1359 288.177 57.6038L283.178 59.1719C283.178 59.1719 292.165 63.4763 304.243 59.174L299.016 57.3922C297.537 56.8471 296.603 55.4796 296.65 53.9306L296.758 50.3561L292.047 50.3008Z" fill="url(#paint8_linear_1603_3993)"/>
<path d="M299.483 46.7188C299.237 50.2246 296.723 54.0033 293.935 53.9818C291.131 53.9601 289.157 50.1046 289.445 46.5605C289.73 43.0434 292.138 41.1798 294.901 41.2397C297.647 41.2993 299.728 43.2394 299.483 46.7188Z" fill="url(#paint9_linear_1603_3993)"/>
<path d="M296.934 43.5267C295.433 43.5711 293.141 43.8681 291.447 45.3969C288.589 47.9759 289.511 52.169 288.306 52.4065C287.231 52.6182 285.848 49.6177 286.15 46.3653C286.401 43.6589 287.648 40.5082 290.258 39.7713C291.788 39.3393 292.168 40.1057 296.95 40.6566C299.738 40.9777 298.552 42.1383 299.153 42.5927C301.826 44.6148 301.023 51.1402 299.492 51.2076C298.765 51.2396 297.889 49.5121 296.934 43.5267Z" fill="url(#paint10_linear_1603_3993)"/>
</g>
<g filter="url(#filter2_f_1603_3993)">
<path d="M267.715 27.2346C267.715 33.2384 262.877 38.4289 256.891 38.829C250.884 39.2306 246 34.6599 246 28.6189C246 22.578 250.884 17.3845 256.891 17.0202C262.877 16.6571 267.715 21.2308 267.715 27.2346Z" fill="#00291B"/>
<path d="M269 27.6194C269 33.6232 264.162 38.8136 258.176 39.2138C252.169 39.6153 247.285 35.0447 247.285 29.0037C247.285 22.9627 252.169 17.7693 258.176 17.405C264.162 17.0419 269 21.6155 269 27.6194Z" fill="#640000"/>
<path d="M257.794 34.2117C257.323 34.2425 256.885 34.0235 256.641 33.6322L252.548 27.0597C252.164 26.4438 252.371 25.6002 253.009 25.1756C253.647 24.7512 254.475 24.9062 254.858 25.5219L257.697 30.0842L261.442 22.4562C261.778 21.7716 262.586 21.4576 263.245 21.7545C263.905 22.0514 264.167 22.8464 263.831 23.5306L258.991 33.3961C258.77 33.8478 258.329 34.1587 257.841 34.2077C257.825 34.2093 257.809 34.2107 257.794 34.2117Z" fill="white"/>
</g>
<path d="M268.827 68.3446C268.827 73.8264 264.41 78.5655 258.944 78.9309C253.46 79.2975 249 75.1242 249 69.6086C249 64.0929 253.46 59.3511 258.944 59.0185C264.41 58.6869 268.827 62.8629 268.827 68.3446Z" fill="#00291B"/>
<path d="M270 68.6962C270 74.178 265.583 78.9171 260.117 79.2824C254.633 79.6491 250.173 75.4758 250.173 69.9601C250.173 64.4445 254.633 59.7026 260.117 59.37C265.583 59.0385 270 63.2144 270 68.6962Z" fill="#640000"/>
<path d="M259.768 74.7144C259.338 74.7426 258.938 74.5426 258.716 74.1853L254.979 68.1844C254.628 67.622 254.817 66.8517 255.4 66.4641C255.982 66.0766 256.738 66.2181 257.088 66.7803L259.679 70.9458L263.099 63.9812C263.406 63.3561 264.143 63.0694 264.746 63.3405C265.348 63.6115 265.587 64.3375 265.281 64.9621L260.862 73.9698C260.659 74.3822 260.257 74.666 259.811 74.7108C259.797 74.7123 259.782 74.7135 259.768 74.7144Z" fill="white"/>
<path d="M329.173 52.3446C329.173 57.8264 333.59 62.5655 339.056 62.9309C344.54 63.2975 349 59.1242 349 53.6086C349 48.0929 344.54 43.3511 339.056 43.0185C333.59 42.6869 329.173 46.8629 329.173 52.3446Z" fill="#00291B"/>
<path d="M328 52.6962C328 58.178 332.417 62.9171 337.883 63.2824C343.367 63.6491 347.827 59.4758 347.827 53.9601C347.827 48.4445 343.367 43.7026 337.883 43.37C332.417 43.0385 328 47.2144 328 52.6962Z" fill="#640000"/>
<path d="M338.232 58.7144C338.662 58.7426 339.062 58.5426 339.284 58.1853L343.021 52.1844C343.372 51.622 343.183 50.8517 342.6 50.4641C342.018 50.0766 341.262 50.2181 340.912 50.7803L338.321 54.9458L334.901 47.9812C334.594 47.3561 333.857 47.0694 333.254 47.3405C332.652 47.6115 332.413 48.3375 332.719 48.9621L337.138 57.9698C337.341 58.3822 337.743 58.666 338.189 58.7108C338.203 58.7123 338.218 58.7135 338.232 58.7144Z" fill="white"/>
</g>
<defs>
<filter id="filter0_f_1603_3993" x="226" y="55" width="162.561" height="145.969" filterUnits="userSpaceOnUse" color-interpolation-filters="sRGB">
<feFlood flood-opacity="0" result="BackgroundImageFix"/>
<feBlend mode="normal" in="SourceGraphic" in2="BackgroundImageFix" result="shape"/>
<feGaussianBlur stdDeviation="5" result="effect1_foregroundBlur_1603_3993"/>
</filter>
<filter id="filter1_f_1603_3993" x="331" y="1" width="27" height="26.2383" filterUnits="userSpaceOnUse" color-interpolation-filters="sRGB">
<feFlood flood-opacity="0" result="BackgroundImageFix"/>
<feBlend mode="normal" in="SourceGraphic" in2="BackgroundImageFix" result="shape"/>
<feGaussianBlur stdDeviation="1" result="effect1_foregroundBlur_1603_3993"/>
</filter>
<filter id="filter2_f_1603_3993" x="244" y="15" width="27" height="26.2383" filterUnits="userSpaceOnUse" color-interpolation-filters="sRGB">
<feFlood flood-opacity="0" result="BackgroundImageFix"/>
<feBlend mode="normal" in="SourceGraphic" in2="BackgroundImageFix" result="shape"/>
<feGaussianBlur stdDeviation="1" result="effect1_foregroundBlur_1603_3993"/>
</filter>
<linearGradient id="paint0_linear_1603_3993" x1="304.513" y1="68.9006" x2="326.59" y2="71.3089" gradientUnits="userSpaceOnUse">
<stop stop-color="#444B8C"/>
<stop offset="0.9964" stop-color="#26264F"/>
</linearGradient>
<linearGradient id="paint1_linear_1603_3993" x1="264.178" y1="37.2049" x2="394.986" y2="129.735" gradientUnits="userSpaceOnUse">
<stop stop-color="#640000"/>
<stop offset="1" stop-color="#B50606"/>
</linearGradient>
<linearGradient id="paint2_linear_1603_3993" x1="277.094" y1="32.1353" x2="405.607" y2="104.7" gradientUnits="userSpaceOnUse">
<stop stop-color="#640000"/>
<stop offset="1" stop-color="#B50606"/>
</linearGradient>
<linearGradient id="paint3_linear_1603_3993" x1="299.356" y1="116.617" x2="320.545" y2="116.617" gradientUnits="userSpaceOnUse">
<stop stop-color="#1E1E1E"/>
<stop offset="0.413462" stop-color="#BE0606"/>
<stop offset="1" stop-color="#640000"/>
</linearGradient>
<linearGradient id="paint4_linear_1603_3993" x1="305.477" y1="111.298" x2="339.255" y2="111.298" gradientUnits="userSpaceOnUse">
<stop stop-color="#1E1E1E"/>
<stop offset="0.413462" stop-color="#BE0606"/>
<stop offset="1" stop-color="#640000"/>
</linearGradient>
<linearGradient id="paint5_linear_1603_3993" x1="310.115" y1="122.544" x2="330.558" y2="160.336" gradientUnits="userSpaceOnUse">
<stop stop-color="#640000"/>
<stop offset="1" stop-color="#B50606"/>
</linearGradient>
<linearGradient id="paint6_linear_1603_3993" x1="292.761" y1="35.7131" x2="291.226" y2="9.8679" gradientUnits="userSpaceOnUse">
<stop stop-color="#311944"/>
<stop offset="1" stop-color="#893976"/>
</linearGradient>
<linearGradient id="paint7_linear_1603_3993" x1="279.854" y1="-17.4388" x2="305.268" y2="128.69" gradientUnits="userSpaceOnUse">
<stop stop-color="#FFC444"/>
<stop offset="0.9964" stop-color="#F36F56"/>
</linearGradient>
<linearGradient id="paint8_linear_1603_3993" x1="293.971" y1="63.1573" x2="292.693" y2="43.584" gradientUnits="userSpaceOnUse">
<stop stop-color="#893976"/>
<stop offset="1" stop-color="#311944"/>
</linearGradient>
<linearGradient id="paint9_linear_1603_3993" x1="297.176" y1="45.3854" x2="275.438" y2="60.8551" gradientUnits="userSpaceOnUse">
<stop stop-color="#893976"/>
<stop offset="1" stop-color="#311944"/>
</linearGradient>
<linearGradient id="paint10_linear_1603_3993" x1="292.817" y1="35.7106" x2="291.282" y2="9.86537" gradientUnits="userSpaceOnUse">
<stop stop-color="#311944"/>
<stop offset="1" stop-color="#893976"/>
</linearGradient>
<clipPath id="clip0_1603_3993">
<rect width="361" height="145" rx="12" fill="white"/>
</clipPath>
</defs>
</svg>
