<svg width="152" height="145" viewBox="0 0 152 145" fill="none" xmlns="http://www.w3.org/2000/svg">
<path d="M59.4777 1.29836C61.524 2.27043 63.4574 3.42626 65.3826 4.61572C71.0792 8.32155 71.0792 8.32155 77.6225 8.93833C81.6032 7.91619 85.0037 5.75156 88.4568 3.59917C91.5648 1.69021 95.2225 -0.475493 98.993 0.0920553C102.067 0.960973 103.452 3.09244 105.041 5.7215C105.932 7.50876 106.714 9.33434 107.486 11.175C109.851 17.2615 109.851 17.2615 114.315 21.8056C116.816 22.8133 119.311 23.4001 122.002 23.5868C134.028 24.4805 134.028 24.4805 137.086 27.1241C138.845 29.1607 139.008 31.3579 138.911 33.9692C138.678 36.4513 138.102 38.7732 137.475 41.182C136.412 45.3496 135.377 50.1649 136.925 54.3367C137.512 55.2752 138.13 56.0057 138.911 56.7886C139.15 57.0524 139.389 57.3163 139.634 57.5881C141.089 59.1288 142.679 60.4631 144.33 61.7898C151.405 67.4835 151.405 67.4835 151.978 71.0884C152.167 74.4681 151.131 76.5921 148.923 79.0912C146.881 81.1954 144.671 83.0414 142.385 84.873C139.603 87.162 136.863 89.538 136.25 93.2339C136.234 93.7767 136.232 94.3199 136.24 94.8628C136.241 95.1642 136.242 95.4656 136.243 95.7762C136.357 99.3407 137.207 102.79 138.051 106.243C139.607 112.74 139.607 112.74 138.496 115.859C138.3 116.129 138.105 116.399 137.903 116.677C137.623 117.093 137.623 117.093 137.336 117.517C135.141 119.58 132.501 120.206 129.587 120.597C129.253 120.647 128.919 120.696 128.575 120.747C126.579 121.029 124.595 121.213 122.581 121.326C119.261 121.52 114.999 122.069 112.526 124.512C111.029 126.211 110.011 127.883 109.099 129.946C108.895 130.388 108.895 130.388 108.687 130.839C108.008 132.321 107.364 133.813 106.755 135.324C105.301 138.898 103.668 142.775 99.9695 144.541C97.0046 145.476 94.4311 144.498 91.7351 143.241C89.7734 142.18 87.8588 141.038 85.9388 139.905C80.3423 136.555 80.3423 136.555 73.9935 136.003C70.3689 136.988 67.1884 139.119 64.0315 141.083C58.4509 144.534 58.4509 144.534 55.4455 144.849C55.0047 144.899 54.564 144.949 54.1098 145C52.0765 144.794 50.9224 144.173 49.3972 142.839C46.8237 139.489 45.3488 135.676 43.8262 131.779C42.1953 127.753 40.4606 124.627 36.4218 122.723C33.2948 121.647 30.2024 121.379 26.9179 121.175C17.3722 120.471 17.3722 120.471 14.3173 117.104C12.6054 114.714 12.809 112.125 13.2583 109.332C13.7873 106.398 14.3763 103.472 15.1647 100.596C15.9478 97.5035 16.2201 93.6114 15.0844 90.5967C14.4915 89.6822 13.8697 88.9311 13.1077 88.1527C12.8987 87.9178 12.6898 87.683 12.4745 87.4411C11.1442 86.0216 9.65939 84.82 8.14306 83.6039C0.728521 77.6153 0.728521 77.6153 0.0283081 73.4256C-0.171591 70.4354 0.686539 68.6666 2.62402 66.4391C4.76752 64.0612 7.15692 62.0567 9.64882 60.0541C12.1171 58.029 14.9722 55.5734 15.7209 52.3294C15.7987 51.4358 15.8059 50.573 15.779 49.6764C15.7748 49.3498 15.7706 49.0231 15.7663 48.6866C15.6624 45.7252 15.0086 42.9641 14.264 40.1069C13.2274 36.1151 12.1294 31.6332 14.3173 27.8372C16.7756 24.9341 20.6699 24.3081 24.3017 23.9826C25.576 23.8821 26.8507 23.7904 28.1257 23.7001C32.2869 23.3964 36.4441 23.0193 39.72 20.1972C42.2461 17.1262 43.6077 13.382 45.128 9.75745C48.2307 2.55132 48.2307 2.55132 51.2117 0.644947C54.129 -0.49796 56.6574 0.204847 59.4777 1.29836Z" fill="white"/>
<path d="M104.793 50.5956C107.298 52.2553 108.997 53.4884 109.796 56.4875C110.42 59.6052 109.557 61.5657 107.953 64.2136C106.964 65.4562 105.866 66.56 104.73 67.6706C104.412 67.9901 104.093 68.3096 103.765 68.6388C102.72 69.6845 101.668 70.7228 100.615 71.7607C99.8818 72.4899 99.149 73.2194 98.4165 73.9492C96.8841 75.4736 95.3485 76.9945 93.8099 78.5126C92.0367 80.2624 90.2702 82.0186 88.507 83.7782C86.8025 85.479 85.0935 87.1751 83.3824 88.8692C82.6581 89.5871 81.935 90.3061 81.2131 91.0263C80.2029 92.0327 79.1876 93.0338 78.1708 94.0336C77.7279 94.4778 77.7279 94.4778 77.276 94.931C75.2439 96.9141 73.2599 98.4769 70.381 99C67.2378 98.9624 65.1784 98.3219 62.811 96.2488C62.2974 95.6709 61.7856 95.0911 61.2882 94.4994C60.0403 93.0173 58.7624 91.741 57.2663 90.506C55.9923 89.4387 54.852 88.3108 53.8636 86.9774C53.0216 86.0009 52.2398 85.3546 51.2097 84.5905C49.6684 83.4313 48.4262 82.2139 47.1957 80.7368C46.693 80.1408 46.1693 79.562 45.6317 78.9969C43.6114 76.8678 42.105 75.0713 42 72.0622C42.129 69.8282 42.5712 67.9438 44.0568 66.2237C46.3354 64.2052 48.13 63.2721 51.2018 63.3264C56.3017 63.7765 60.4782 69.6349 63.8726 73.0327C64.3838 73.5429 64.8951 74.053 65.4065 74.563C66.6487 75.8023 67.8896 77.0428 69.1299 78.284C71.3397 76.4288 71.3397 76.4288 73.4267 74.4397C73.6404 74.2237 73.8541 74.0076 74.0743 73.7849C74.311 73.545 74.5477 73.305 74.7915 73.0578C75.465 72.3873 76.139 71.7173 76.8136 71.0478C77.1764 70.6871 77.5392 70.3264 77.913 69.9548C83.343 64.557 88.773 59.1592 94.203 53.7614C94.5517 53.4033 94.9005 53.0452 95.2598 52.6763C97.9652 50.0837 101.218 49.3412 104.793 50.5956Z" fill="#05150E"/>
</svg>
